<?xml version="1.0" encoding="utf-8"?>
<!-- Generator: Adobe Illustrator 18.0.0, SVG Export Plug-In . SVG Version: 6.00 Build 0)  -->
<!DOCTYPE svg PUBLIC "-//W3C//DTD SVG 1.1//EN" "http://www.w3.org/Graphics/SVG/1.1/DTD/svg11.dtd">
<svg version="1.1" id="图层_1" xmlns="http://www.w3.org/2000/svg" xmlns:xlink="http://www.w3.org/1999/xlink" x="0px" y="0px"
	 viewBox="0 0 40 40" enable-background="new 0 0 40 40" xml:space="preserve">
<g>
	<g>
		<g>
			<g>
				<path fill="#231815" d="M22.4,24.5c-0.1,0-0.3,0-0.4-0.1c-0.2-0.2-0.2-0.5,0-0.7l3.3-3.3c0.2-0.2,0.2-0.5,0-0.7l-3.3-3.3
					c-0.2-0.2-0.2-0.5,0-0.7s0.5-0.2,0.7,0l3.3,3.3c0.6,0.6,0.6,1.5,0,2.1l-3.3,3.3C22.7,24.5,22.6,24.5,22.4,24.5z"/>
			</g>
			<g>
				<path fill="#231815" d="M25.4,20.5h-12c-0.3,0-0.5-0.2-0.5-0.5s0.2-0.5,0.5-0.5h12c0.3,0,0.5,0.2,0.5,0.5S25.7,20.5,25.4,20.5z"
					/>
			</g>
		</g>
	</g>
</g>
</svg>
