<?xml version="1.0" encoding="utf-8"?>
<!-- Generator: Adobe Illustrator 18.0.0, SVG Export Plug-In . SVG Version: 6.00 Build 0)  -->
<!DOCTYPE svg PUBLIC "-//W3C//DTD SVG 1.1//EN" "http://www.w3.org/Graphics/SVG/1.1/DTD/svg11.dtd">
<svg version="1.1" id="图层_1" xmlns="http://www.w3.org/2000/svg" xmlns:xlink="http://www.w3.org/1999/xlink" x="0px" y="0px"
	 viewBox="0 0 40 40" enable-background="new 0 0 40 40" xml:space="preserve">
<g>
	<g>
		<g>
			<g>
				<path fill="#231815" d="M24,18.1c-0.1,0-0.3,0-0.4-0.1l-3.3-3.3c-0.2-0.2-0.5-0.2-0.7,0l-3.3,3.3c-0.2,0.2-0.5,0.2-0.7,0
					s-0.2-0.5,0-0.7l3.3-3.3c0.6-0.6,1.5-0.6,2.1,0l3.3,3.3c0.2,0.2,0.2,0.5,0,0.7C24.3,18,24.1,18.1,24,18.1z"/>
			</g>
			<g>
				<path fill="#231815" d="M20,27.1c-0.3,0-0.5-0.2-0.5-0.5v-12c0-0.3,0.2-0.5,0.5-0.5s0.5,0.2,0.5,0.5v12
					C20.5,26.8,20.3,27.1,20,27.1z"/>
			</g>
		</g>
	</g>
</g>
</svg>
