<?xml version="1.0" encoding="utf-8"?>
<!-- Generator: Adobe Illustrator 18.0.0, SVG Export Plug-In . SVG Version: 6.00 Build 0)  -->
<!DOCTYPE svg PUBLIC "-//W3C//DTD SVG 1.1//EN" "http://www.w3.org/Graphics/SVG/1.1/DTD/svg11.dtd">
<svg version="1.1" id="图层_1" xmlns="http://www.w3.org/2000/svg" xmlns:xlink="http://www.w3.org/1999/xlink" x="0px" y="0px"
	 viewBox="0 0 40 40" enable-background="new 0 0 40 40" xml:space="preserve">
<g>
	<g>
		<g>
			<g>
				<path fill="#231815" d="M20,26.5c-0.4,0-0.8-0.1-1.1-0.4l-3.3-3.3c-0.2-0.2-0.2-0.5,0-0.7s0.5-0.2,0.7,0l3.3,3.3
					c0.2,0.2,0.5,0.2,0.7,0l3.3-3.3c0.2-0.2,0.5-0.2,0.7,0s0.2,0.5,0,0.7l-3.3,3.3C20.8,26.4,20.4,26.5,20,26.5z"/>
			</g>
			<g>
				<path fill="#231815" d="M20,25.9c-0.3,0-0.5-0.2-0.5-0.5v-12c0-0.3,0.2-0.5,0.5-0.5s0.5,0.2,0.5,0.5v12
					C20.5,25.7,20.3,25.9,20,25.9z"/>
			</g>
		</g>
	</g>
</g>
</svg>
