<?xml version="1.0" encoding="utf-8"?>
<!-- Generator: Adobe Illustrator 18.0.0, SVG Export Plug-In . SVG Version: 6.00 Build 0)  -->
<!DOCTYPE svg PUBLIC "-//W3C//DTD SVG 1.1//EN" "http://www.w3.org/Graphics/SVG/1.1/DTD/svg11.dtd">
<svg version="1.1" id="图层_1" xmlns="http://www.w3.org/2000/svg" xmlns:xlink="http://www.w3.org/1999/xlink" x="0px" y="0px"
	 viewBox="0 0 40 40" enable-background="new 0 0 40 40" xml:space="preserve">
<g>
	<g>
		<g>
			<g>
				<g>
					<path fill="#231815" d="M17.5,23.5c-0.1,0-0.3,0-0.4-0.1c-0.2-0.2-0.2-0.5,0-0.7l2.6-2.6l-2.6-2.6c-0.2-0.2-0.2-0.5,0-0.7
						s0.5-0.2,0.7,0l3,3c0.2,0.2,0.2,0.5,0,0.7l-3,3C17.8,23.5,17.6,23.5,17.5,23.5z"/>
				</g>
				<g>
					<path fill="#231815" d="M20,20.5h-8c-0.3,0-0.5-0.2-0.5-0.5s0.2-0.5,0.5-0.5h8c0.3,0,0.5,0.2,0.5,0.5S20.3,20.5,20,20.5z"/>
				</g>
			</g>
			<g>
				<path fill="#231815" d="M24,27.5h-6c-0.3,0-0.5-0.2-0.5-0.5s0.2-0.5,0.5-0.5h6c0.8,0,1.5-0.7,1.5-1.5V15c0-0.8-0.7-1.5-1.5-1.5
					h-6c-0.3,0-0.5-0.2-0.5-0.5s0.2-0.5,0.5-0.5h6c1.4,0,2.5,1.1,2.5,2.5v10C26.5,26.4,25.4,27.5,24,27.5z"/>
			</g>
		</g>
	</g>
</g>
</svg>
