<?xml version="1.0" encoding="utf-8"?>
<!-- Generator: Adobe Illustrator 18.0.0, SVG Export Plug-In . SVG Version: 6.00 Build 0)  -->
<!DOCTYPE svg PUBLIC "-//W3C//DTD SVG 1.1//EN" "http://www.w3.org/Graphics/SVG/1.1/DTD/svg11.dtd">
<svg version="1.1" id="图层_1" xmlns="http://www.w3.org/2000/svg" xmlns:xlink="http://www.w3.org/1999/xlink" x="0px" y="0px"
	 viewBox="0 0 40 40" enable-background="new 0 0 40 40" xml:space="preserve">
<g>
	<g>
		<g>
			<g>
				<g>
					<path fill="#231815" d="M24,23.5c-0.1,0-0.3,0-0.4-0.1c-0.2-0.2-0.2-0.5,0-0.7l2.6-2.6l-2.6-2.6c-0.2-0.2-0.2-0.5,0-0.7
						s0.5-0.2,0.7,0l3,3c0.2,0.2,0.2,0.5,0,0.7l-3,3C24.3,23.5,24.1,23.5,24,23.5z"/>
				</g>
				<g>
					<path fill="#231815" d="M26.5,20.5h-8c-0.3,0-0.5-0.2-0.5-0.5s0.2-0.5,0.5-0.5h8c0.3,0,0.5,0.2,0.5,0.5S26.8,20.5,26.5,20.5z"
						/>
				</g>
			</g>
			<g>
				<path fill="#231815" d="M21,27.5h-6c-1.4,0-2.5-1.1-2.5-2.5V15c0-1.4,1.1-2.5,2.5-2.5h6c0.3,0,0.5,0.2,0.5,0.5s-0.2,0.5-0.5,0.5
					h-6c-0.8,0-1.5,0.7-1.5,1.5v10c0,0.8,0.7,1.5,1.5,1.5h6c0.3,0,0.5,0.2,0.5,0.5S21.3,27.5,21,27.5z"/>
			</g>
		</g>
	</g>
</g>
</svg>
