<?xml version="1.0" encoding="utf-8"?>
<!-- Generator: Adobe Illustrator 18.0.0, SVG Export Plug-In . SVG Version: 6.00 Build 0)  -->
<!DOCTYPE svg PUBLIC "-//W3C//DTD SVG 1.1//EN" "http://www.w3.org/Graphics/SVG/1.1/DTD/svg11.dtd">
<svg version="1.1" id="图层_1" xmlns="http://www.w3.org/2000/svg" xmlns:xlink="http://www.w3.org/1999/xlink" x="0px" y="0px"
	 viewBox="0 0 40 40" enable-background="new 0 0 40 40" xml:space="preserve">
<g>
	<g>
		<g>
			<g>
				<g>
					<path fill="#231815" d="M23,16.5c-0.1,0-0.3,0-0.4-0.1L20,13.7l-2.6,2.6c-0.2,0.2-0.5,0.2-0.7,0s-0.2-0.5,0-0.7l3-3
						c0.2-0.2,0.5-0.2,0.7,0l3,3c0.2,0.2,0.2,0.5,0,0.7C23.3,16.5,23.1,16.5,23,16.5z"/>
				</g>
				<g>
					<path fill="#231815" d="M20,22c-0.3,0-0.5-0.2-0.5-0.5v-8c0-0.3,0.2-0.5,0.5-0.5s0.5,0.2,0.5,0.5v8C20.5,21.8,20.3,22,20,22z"
						/>
				</g>
			</g>
			<g>
				<path fill="#231815" d="M25,27.5H15c-1.4,0-2.5-1.1-2.5-2.5v-2c0-0.3,0.2-0.5,0.5-0.5s0.5,0.2,0.5,0.5v2c0,0.8,0.7,1.5,1.5,1.5
					h10c0.8,0,1.5-0.7,1.5-1.5v-2c0-0.3,0.2-0.5,0.5-0.5s0.5,0.2,0.5,0.5v2C27.5,26.4,26.4,27.5,25,27.5z"/>
			</g>
		</g>
	</g>
</g>
</svg>
