<?xml version="1.0" encoding="utf-8"?>
<!-- Generator: Adobe Illustrator 18.0.0, SVG Export Plug-In . SVG Version: 6.00 Build 0)  -->
<!DOCTYPE svg PUBLIC "-//W3C//DTD SVG 1.1//EN" "http://www.w3.org/Graphics/SVG/1.1/DTD/svg11.dtd">
<svg version="1.1" id="图层_1" xmlns="http://www.w3.org/2000/svg" xmlns:xlink="http://www.w3.org/1999/xlink" x="0px" y="0px"
	 viewBox="0 0 40 40" enable-background="new 0 0 40 40" xml:space="preserve">
<g>
	<g>
		<g>
			<g>
				<g>
					<path fill="#231815" d="M26,16h-8c-0.3,0-0.5-0.2-0.5-0.5S17.7,15,18,15h8c0.3,0,0.5,0.2,0.5,0.5S26.3,16,26,16z"/>
				</g>
				<g>
					<path fill="#231815" d="M26,20.5h-8c-0.3,0-0.5-0.2-0.5-0.5s0.2-0.5,0.5-0.5h8c0.3,0,0.5,0.2,0.5,0.5S26.3,20.5,26,20.5z"/>
				</g>
				<g>
					<path fill="#231815" d="M26,25h-8c-0.3,0-0.5-0.2-0.5-0.5S17.7,24,18,24h8c0.3,0,0.5,0.2,0.5,0.5S26.3,25,26,25z"/>
				</g>
			</g>
			<g>
				<g>
					<path fill="#231815" d="M14,16c-0.1,0-0.3-0.1-0.4-0.2c-0.1-0.1-0.1-0.2-0.1-0.3c0-0.1,0-0.3,0.1-0.4c0.2-0.2,0.5-0.2,0.7,0
						c0.1,0.1,0.2,0.2,0.2,0.4c0,0.1-0.1,0.3-0.2,0.3C14.3,15.9,14.1,16,14,16z"/>
				</g>
				<g>
					<path fill="#231815" d="M14,20.5c-0.1,0-0.3-0.1-0.4-0.2c-0.1-0.1-0.1-0.2-0.1-0.3c0-0.1,0-0.3,0.1-0.4c0.2-0.2,0.5-0.2,0.7,0
						c0.1,0.1,0.2,0.2,0.2,0.4c0,0.1-0.1,0.3-0.2,0.3C14.3,20.4,14.1,20.5,14,20.5z"/>
				</g>
				<g>
					<path fill="#231815" d="M14,25c-0.1,0-0.3-0.1-0.4-0.2c-0.1-0.1-0.1-0.2-0.1-0.3c0-0.1,0-0.3,0.1-0.4c0.2-0.2,0.5-0.2,0.7,0
						c0.1,0.1,0.2,0.2,0.2,0.4c0,0.1-0.1,0.3-0.2,0.3C14.3,24.9,14.1,25,14,25z"/>
				</g>
			</g>
		</g>
	</g>
</g>
</svg>
