<?xml version="1.0" encoding="utf-8"?>
<!-- Generator: Adobe Illustrator 18.0.0, SVG Export Plug-In . SVG Version: 6.00 Build 0)  -->
<!DOCTYPE svg PUBLIC "-//W3C//DTD SVG 1.1//EN" "http://www.w3.org/Graphics/SVG/1.1/DTD/svg11.dtd">
<svg version="1.1" id="图层_1" xmlns="http://www.w3.org/2000/svg" xmlns:xlink="http://www.w3.org/1999/xlink" x="0px" y="0px"
	 viewBox="0 0 40 40" enable-background="new 0 0 40 40" xml:space="preserve">
<g>
	<g>
		<g>
			<g>
				<g>
					<path fill="#231815" d="M25.6,15.5h-6.8c-0.3,0-0.5-0.2-0.5-0.5s0.2-0.5,0.5-0.5h6.8c0.3,0,0.5,0.2,0.5,0.5
						S25.9,15.5,25.6,15.5z"/>
				</g>
				<g>
					<path fill="#231815" d="M25.6,20.5h-6.8c-0.3,0-0.5-0.2-0.5-0.5s0.2-0.5,0.5-0.5h6.8c0.3,0,0.5,0.2,0.5,0.5
						S25.9,20.5,25.6,20.5z"/>
				</g>
				<g>
					<path fill="#231815" d="M25.6,25.5h-6.8c-0.3,0-0.5-0.2-0.5-0.5s0.2-0.5,0.5-0.5h6.8c0.3,0,0.5,0.2,0.5,0.5
						S25.9,25.5,25.6,25.5z"/>
				</g>
			</g>
		</g>
		<g>
			<g>
				<path fill="#231815" d="M15,16c-0.2,0-0.4-0.1-0.6-0.2L14,15.4c-0.2-0.2-0.2-0.5,0-0.7s0.5-0.2,0.7,0l0.2,0.2l0.7-0.8
					c0.2-0.2,0.5-0.2,0.7,0c0.2,0.2,0.2,0.5,0,0.7l-0.9,0.9C15.4,15.9,15.2,16,15,16C15,16,15,16,15,16z"/>
			</g>
			<g>
				<path fill="#231815" d="M15,21c-0.2,0-0.4-0.1-0.6-0.2L14,20.4c-0.2-0.2-0.2-0.5,0-0.7s0.5-0.2,0.7,0l0.2,0.2l0.7-0.8
					c0.2-0.2,0.5-0.2,0.7,0c0.2,0.2,0.2,0.5,0,0.7l-0.9,0.9C15.4,20.9,15.2,21,15,21C15,21,15,21,15,21z"/>
			</g>
			<g>
				<path fill="#231815" d="M15,26c-0.2,0-0.4-0.1-0.6-0.2L14,25.4c-0.2-0.2-0.2-0.5,0-0.7s0.5-0.2,0.7,0l0.2,0.2l0.7-0.8
					c0.2-0.2,0.5-0.2,0.7,0c0.2,0.2,0.2,0.5,0,0.7l-0.9,0.9C15.4,25.9,15.2,26,15,26C15,26,15,26,15,26z"/>
			</g>
		</g>
	</g>
</g>
</svg>
