<?xml version="1.0" encoding="utf-8"?>
<!-- Generator: Adobe Illustrator 18.0.0, SVG Export Plug-In . SVG Version: 6.00 Build 0)  -->
<!DOCTYPE svg PUBLIC "-//W3C//DTD SVG 1.1//EN" "http://www.w3.org/Graphics/SVG/1.1/DTD/svg11.dtd">
<svg version="1.1" id="图层_1" xmlns="http://www.w3.org/2000/svg" xmlns:xlink="http://www.w3.org/1999/xlink" x="0px" y="0px"
	 viewBox="0 0 40 40" enable-background="new 0 0 40 40" xml:space="preserve">
<g>
	<g>
		<g>
			<g>
				<path fill="#231815" d="M24.5,28.5h-9c-1.4,0-2.5-1.1-2.5-2.5V14c0-1.4,1.1-2.5,2.5-2.5h9c1.4,0,2.5,1.1,2.5,2.5v12
					C27,27.4,25.9,28.5,24.5,28.5z M15.5,12.5c-0.8,0-1.5,0.7-1.5,1.5v12c0,0.8,0.7,1.5,1.5,1.5h9c0.8,0,1.5-0.7,1.5-1.5V14
					c0-0.8-0.7-1.5-1.5-1.5H15.5z"/>
			</g>
			<g>
				<g>
					<path fill="#231815" d="M23,16.5h-6c-0.3,0-0.5-0.2-0.5-0.5s0.2-0.5,0.5-0.5h6c0.3,0,0.5,0.2,0.5,0.5S23.3,16.5,23,16.5z"/>
				</g>
				<g>
					<path fill="#231815" d="M23,20.5h-6c-0.3,0-0.5-0.2-0.5-0.5s0.2-0.5,0.5-0.5h6c0.3,0,0.5,0.2,0.5,0.5S23.3,20.5,23,20.5z"/>
				</g>
				<g>
					<path fill="#231815" d="M23,24.5h-6c-0.3,0-0.5-0.2-0.5-0.5s0.2-0.5,0.5-0.5h6c0.3,0,0.5,0.2,0.5,0.5S23.3,24.5,23,24.5z"/>
				</g>
			</g>
		</g>
	</g>
</g>
</svg>
