<?xml version="1.0" encoding="utf-8"?>
<!-- Generator: Adobe Illustrator 18.0.0, SVG Export Plug-In . SVG Version: 6.00 Build 0)  -->
<!DOCTYPE svg PUBLIC "-//W3C//DTD SVG 1.1//EN" "http://www.w3.org/Graphics/SVG/1.1/DTD/svg11.dtd">
<svg version="1.1" id="图层_1" xmlns="http://www.w3.org/2000/svg" xmlns:xlink="http://www.w3.org/1999/xlink" x="0px" y="0px"
	 viewBox="0 0 40 40" enable-background="new 0 0 40 40" xml:space="preserve">
<g>
	<g>
		<g>
			<g>
				<path fill="#231815" d="M24,28.5h-8c-1.4,0-2.5-1.1-2.5-2.5V14c0-1.4,1.1-2.5,2.5-2.5h3.6c0.4,0,0.8,0.2,1.1,0.4l5.4,5.4
					c0.3,0.3,0.4,0.7,0.4,1.1V26C26.5,27.4,25.4,28.5,24,28.5z M16,12.5c-0.8,0-1.5,0.7-1.5,1.5v12c0,0.8,0.7,1.5,1.5,1.5h8
					c0.8,0,1.5-0.7,1.5-1.5v-7.6c0-0.1-0.1-0.3-0.1-0.4l-5.4-5.4c-0.1-0.1-0.2-0.1-0.4-0.1H16z"/>
			</g>
			<g>
				<path fill="#231815" d="M26,18.5h-4c-1.4,0-2.5-1.1-2.5-2.5v-4c0-0.3,0.2-0.5,0.5-0.5s0.5,0.2,0.5,0.5v4c0,0.8,0.7,1.5,1.5,1.5
					h4c0.3,0,0.5,0.2,0.5,0.5S26.3,18.5,26,18.5z"/>
			</g>
		</g>
		<g>
			<g>
				<path fill="#231815" d="M21.5,24.9c-0.1,0-0.3,0-0.4-0.1l-3-3c-0.2-0.2-0.2-0.5,0-0.7s0.5-0.2,0.7,0l3,3c0.2,0.2,0.2,0.5,0,0.7
					C21.8,24.8,21.6,24.9,21.5,24.9z"/>
			</g>
			<g>
				<path fill="#231815" d="M18.5,24.9c-0.1,0-0.3,0-0.4-0.1c-0.2-0.2-0.2-0.5,0-0.7l3-3c0.2-0.2,0.5-0.2,0.7,0s0.2,0.5,0,0.7l-3,3
					C18.8,24.8,18.6,24.9,18.5,24.9z"/>
			</g>
		</g>
	</g>
</g>
</svg>
