<?xml version="1.0" encoding="utf-8"?>
<!-- Generator: Adobe Illustrator 18.0.0, SVG Export Plug-In . SVG Version: 6.00 Build 0)  -->
<!DOCTYPE svg PUBLIC "-//W3C//DTD SVG 1.1//EN" "http://www.w3.org/Graphics/SVG/1.1/DTD/svg11.dtd">
<svg version="1.1" id="图层_1" xmlns="http://www.w3.org/2000/svg" xmlns:xlink="http://www.w3.org/1999/xlink" x="0px" y="0px"
	 viewBox="0 0 40 40" enable-background="new 0 0 40 40" xml:space="preserve">
<g>
	<g>
		<g>
			<g>
				<g>
					<path fill="#231815" d="M20,21.5c-0.3,0-0.5-0.2-0.5-0.5c0-0.9,0.4-1.8,1.2-2.4c0.4-0.3,0.5-0.7,0.4-1.2
						c-0.1-0.4-0.4-0.8-0.9-0.9c-0.4-0.1-0.7,0-1,0.2c-0.3,0.2-0.4,0.6-0.4,0.9c0,0.3-0.2,0.5-0.5,0.5s-0.5-0.2-0.5-0.5
						c0-0.7,0.3-1.3,0.8-1.7s1.2-0.6,1.8-0.4c0.8,0.2,1.5,0.8,1.7,1.7c0.2,0.8-0.1,1.6-0.8,2.2c-0.5,0.4-0.9,1-0.9,1.6
						C20.5,21.3,20.3,21.5,20,21.5z"/>
				</g>
				<g>
					<path fill="#231815" d="M20,24.5c-0.1,0-0.3-0.1-0.4-0.2c-0.1-0.1-0.1-0.2-0.1-0.3c0-0.1,0-0.3,0.1-0.4c0.2-0.2,0.5-0.2,0.7,0
						c0.1,0.1,0.2,0.2,0.2,0.4c0,0.1-0.1,0.3-0.2,0.3C20.3,24.4,20.1,24.5,20,24.5z"/>
				</g>
			</g>
			<g>
				<path fill="#231815" d="M20,28.5c-4.7,0-8.5-3.8-8.5-8.5s3.8-8.5,8.5-8.5s8.5,3.8,8.5,8.5S24.7,28.5,20,28.5z M20,12.5
					c-4.1,0-7.5,3.4-7.5,7.5s3.4,7.5,7.5,7.5s7.5-3.4,7.5-7.5S24.1,12.5,20,12.5z"/>
			</g>
		</g>
	</g>
</g>
</svg>
