<?xml version="1.0" encoding="utf-8"?>
<!-- Generator: Adobe Illustrator 18.0.0, SVG Export Plug-In . SVG Version: 6.00 Build 0)  -->
<!DOCTYPE svg PUBLIC "-//W3C//DTD SVG 1.1//EN" "http://www.w3.org/Graphics/SVG/1.1/DTD/svg11.dtd">
<svg version="1.1" id="图层_1" xmlns="http://www.w3.org/2000/svg" xmlns:xlink="http://www.w3.org/1999/xlink" x="0px" y="0px"
	 viewBox="0 0 40 40" enable-background="new 0 0 40 40" xml:space="preserve">
<g>
	<g>
		<g>
			<g>
				<path fill="#231815" d="M20,25.2c-3.6,0-7.5-0.8-7.5-2.5c0-0.3,0.2-0.5,0.5-0.5c0.8,0,1.5-0.7,1.5-1.5v-2c0-3,2.5-5.5,5.5-5.5
					s5.5,2.5,5.5,5.5v2c0,0.8,0.7,1.5,1.5,1.5c0.3,0,0.5,0.2,0.5,0.5C27.5,24.4,23.6,25.2,20,25.2z M13.8,23.1
					c0.8,0.5,2.8,1.1,6.2,1.1s5.4-0.6,6.2-1.1c-1-0.3-1.7-1.3-1.7-2.4v-2c0-2.5-2-4.5-4.5-4.5s-4.5,2-4.5,4.5v2
					C15.5,21.8,14.8,22.7,13.8,23.1z"/>
			</g>
			<g>
				<path fill="#231815" d="M20,27.7c-1.7,0-3-1.3-3-3c0-0.3,0.2-0.5,0.5-0.5s0.5,0.2,0.5,0.5c0,1.1,0.9,2,2,2s2-0.9,2-2
					c0-0.3,0.2-0.5,0.5-0.5s0.5,0.2,0.5,0.5C23,26.4,21.7,27.7,20,27.7z"/>
			</g>
			<g>
				<path fill="#231815" d="M19.5,13.7v-2c0-0.3,0.2-0.5,0.5-0.5s0.5,0.2,0.5,0.5v2H19.5z"/>
			</g>
		</g>
	</g>
</g>
</svg>
