<?xml version="1.0" encoding="utf-8"?>
<!-- Generator: Adobe Illustrator 18.0.0, SVG Export Plug-In . SVG Version: 6.00 Build 0)  -->
<!DOCTYPE svg PUBLIC "-//W3C//DTD SVG 1.1//EN" "http://www.w3.org/Graphics/SVG/1.1/DTD/svg11.dtd">
<svg version="1.1" id="图层_1" xmlns="http://www.w3.org/2000/svg" xmlns:xlink="http://www.w3.org/1999/xlink" x="0px" y="0px"
	 viewBox="0 0 40 40" enable-background="new 0 0 40 40" xml:space="preserve">
<g>
	<g>
		<g>
			<g>
				<path fill="#231815" d="M26.9,26c-0.3,0-0.5-0.1-0.7-0.3l-1-0.8h-5.8c-1.3,0-2.4-1.1-2.4-2.4V20c0-1.3,1.1-2.4,2.4-2.4h6.3
					c1.3,0,2.4,1.1,2.4,2.4v4.9C28,25.5,27.5,26,26.9,26z M19.4,18.7c-0.8,0-1.4,0.6-1.4,1.4v2.5c0,0.8,0.6,1.4,1.4,1.4h6
					c0.1,0,0.2,0,0.3,0.1l1.2,1c0,0,0.1,0,0.1-0.1V20c0-0.8-0.6-1.4-1.4-1.4H19.4z"/>
			</g>
			<g>
				<path fill="#231815" d="M20,21.9c-0.1,0-0.3,0-0.4-0.1c-0.1-0.1-0.1-0.2-0.1-0.4c0-0.1,0-0.3,0.1-0.3c0.2-0.2,0.5-0.2,0.7,0
					c0.1,0.1,0.1,0.2,0.1,0.3c0,0.1,0,0.3-0.1,0.4C20.3,21.8,20.1,21.9,20,21.9z"/>
			</g>
			<g>
				<path fill="#231815" d="M22.5,21.9c-0.1,0-0.3,0-0.4-0.1c-0.1-0.1-0.2-0.2-0.2-0.4c0-0.1,0.1-0.3,0.2-0.3c0.2-0.2,0.5-0.2,0.7,0
					c0.1,0.1,0.1,0.2,0.1,0.3c0,0.1-0.1,0.3-0.1,0.4C22.8,21.8,22.6,21.9,22.5,21.9z"/>
			</g>
			<g>
				<path fill="#231815" d="M25,21.9c-0.1,0-0.3,0-0.4-0.1c-0.1-0.1-0.2-0.2-0.2-0.4c0-0.1,0.1-0.3,0.2-0.3c0.2-0.2,0.5-0.2,0.7,0
					c0.1,0.1,0.2,0.2,0.2,0.4c0,0.1-0.1,0.3-0.1,0.4C25.3,21.8,25.1,21.9,25,21.9z"/>
			</g>
		</g>
		<g>
			<g>
				<path fill="#231815" d="M20,18.2c-0.1,0-0.3,0-0.3-0.1c-0.1-0.1-0.2-0.2-0.2-0.4c0-0.1,0.1-0.3,0.2-0.4c0.2-0.2,0.5-0.2,0.7,0
					c0.1,0.1,0.2,0.2,0.2,0.4c0,0.1-0.1,0.3-0.2,0.4C20.2,18.1,20.1,18.2,20,18.2z"/>
			</g>
			<g>
				<path fill="#231815" d="M17.5,18.2c-0.1,0-0.3,0-0.4-0.1C17,17.9,17,17.8,17,17.7c0-0.1,0-0.3,0.1-0.4c0.2-0.2,0.5-0.2,0.7,0
					c0.1,0.1,0.2,0.2,0.2,0.4c0,0.1-0.1,0.3-0.2,0.4C17.8,18.1,17.6,18.2,17.5,18.2z"/>
			</g>
			<g>
				<path fill="#231815" d="M15,18.2c-0.1,0-0.3,0-0.4-0.1c-0.1-0.1-0.1-0.2-0.1-0.4c0-0.1,0-0.3,0.1-0.4c0.2-0.2,0.5-0.2,0.7,0
					c0.1,0.1,0.2,0.2,0.2,0.4c0,0.1-0.1,0.3-0.2,0.4C15.3,18.1,15.1,18.2,15,18.2z"/>
			</g>
			<g>
				<g>
					<path fill="#231815" d="M17.5,21.2h-2.7l-1,0.8c-0.2,0.2-0.5,0.3-0.7,0.3c-0.2,0-0.3,0-0.5-0.1c-0.4-0.2-0.7-0.6-0.7-1v-4.9
						c0-1.3,1.1-2.4,2.4-2.4h6.3c1.3,0,2.4,1.1,2.4,2.4v1.8h-1v-1.8c0-0.8-0.6-1.4-1.4-1.4h-6.3c-0.8,0-1.4,0.6-1.4,1.4v4.9
						c0,0.1,0,0.1,0.1,0.1c0,0,0.1,0,0.1,0l1.1-1c0.1-0.1,0.2-0.1,0.3-0.1h2.9V21.2z"/>
				</g>
			</g>
		</g>
	</g>
</g>
</svg>
