<?xml version="1.0" encoding="utf-8"?>
<!-- Generator: Adobe Illustrator 18.0.0, SVG Export Plug-In . SVG Version: 6.00 Build 0)  -->
<!DOCTYPE svg PUBLIC "-//W3C//DTD SVG 1.1//EN" "http://www.w3.org/Graphics/SVG/1.1/DTD/svg11.dtd">
<svg version="1.1" id="图层_1" xmlns="http://www.w3.org/2000/svg" xmlns:xlink="http://www.w3.org/1999/xlink" x="0px" y="0px"
	 viewBox="0 0 40 40" enable-background="new 0 0 40 40" xml:space="preserve">
<g>
	<g>
		<g>
			<g>
				<path fill="#231815" d="M25.3,26H14.7c-1.5,0-2.7-1.2-2.7-2.7v-6.7c0-1.5,1.2-2.7,2.7-2.7h10.7c1.5,0,2.7,1.2,2.7,2.7v6.7
					C28,24.8,26.8,26,25.3,26z M14.7,15c-0.9,0-1.7,0.8-1.7,1.7v6.7c0,0.9,0.8,1.7,1.7,1.7h10.7c0.9,0,1.7-0.8,1.7-1.7v-6.7
					c0-0.9-0.8-1.7-1.7-1.7H14.7z"/>
			</g>
			<g>
				<path fill="#231815" d="M27.8,17.4L21.6,21c-0.4,0.3-1,0.4-1.6,0.4s-1.1-0.1-1.6-0.4l-6.2-3.6l0.5-0.9l6.2,3.6
					c0.6,0.3,1.6,0.3,2.1,0l6.2-3.6L27.8,17.4z"/>
			</g>
			<g>
				
					<rect x="14.4" y="18.8" transform="matrix(0.7747 0.6323 -0.6323 0.7747 17.3755 -4.3999)" fill="#231815" width="1" height="6.8"/>
			</g>
			<g>
				
					<rect x="21.8" y="21.7" transform="matrix(0.6324 0.7746 -0.7746 0.6324 26.4248 -11.317)" fill="#231815" width="6.8" height="1"/>
			</g>
		</g>
	</g>
</g>
</svg>
