<?xml version="1.0" encoding="utf-8"?>
<!-- Generator: Adobe Illustrator 18.0.0, SVG Export Plug-In . SVG Version: 6.00 Build 0)  -->
<!DOCTYPE svg PUBLIC "-//W3C//DTD SVG 1.1//EN" "http://www.w3.org/Graphics/SVG/1.1/DTD/svg11.dtd">
<svg version="1.1" id="图层_1" xmlns="http://www.w3.org/2000/svg" xmlns:xlink="http://www.w3.org/1999/xlink" x="0px" y="0px"
	 viewBox="0 0 40 40" enable-background="new 0 0 40 40" xml:space="preserve">
<g>
	<g>
		<g>
			<g>
				<path fill="#231815" d="M23.1,25.3L23.1,25.3c-0.1,0-0.3,0-0.4-0.1l-9.3-2.7c-1.1-0.3-1.8-1.3-1.8-2.4v-2c0-1.1,0.7-2.1,1.8-2.4
					l9.3-2.7c0.9-0.3,1.9,0.5,1.9,1.4v9.3c0,0.4-0.2,0.8-0.4,1.1C23.9,25.2,23.5,25.3,23.1,25.3z M23.1,14c0,0-0.1,0-0.1,0l-9.3,2.7
					c-0.6,0.2-1.1,0.8-1.1,1.4v2c0,0.7,0.4,1.3,1.1,1.4l9.3,2.7c0.2,0,0.4,0,0.5-0.1c0.1-0.1,0.1-0.2,0.1-0.4v-9.3
					C23.6,14.2,23.4,14,23.1,14z"/>
			</g>
			<g>
				<path fill="#231815" d="M23.8,16.1c0.1-0.1,0.3-0.1,0.5,0l2,1c0.2,0.1,0.3,0.3,0.3,0.4v3c0,0.2-0.1,0.4-0.3,0.4l-2,1
					c-0.1,0-0.1,0.1-0.2,0.1c-0.1,0-0.2,0-0.3-0.1V16.1z M24.6,17.3v3.4l1-0.5v-2.4L24.6,17.3z"/>
			</g>
			<g>
				<path fill="#231815" d="M14.9,22.2l1.7,7c0.1,0.3-0.1,0.5-0.4,0.6c0,0-0.1,0-0.1,0c-0.2,0-0.4-0.2-0.5-0.4l-1.7-7L14.9,22.2z"/>
			</g>
		</g>
	</g>
</g>
</svg>
