<?xml version="1.0" encoding="utf-8"?>
<!-- Generator: Adobe Illustrator 18.0.0, SVG Export Plug-In . SVG Version: 6.00 Build 0)  -->
<!DOCTYPE svg PUBLIC "-//W3C//DTD SVG 1.1//EN" "http://www.w3.org/Graphics/SVG/1.1/DTD/svg11.dtd">
<svg version="1.1" id="图层_1" xmlns="http://www.w3.org/2000/svg" xmlns:xlink="http://www.w3.org/1999/xlink" x="0px" y="0px"
	 viewBox="0 0 40 40" enable-background="new 0 0 40 40" xml:space="preserve">
<g>
	<g>
		<g>
			<path fill="#231815" d="M22.6,28.5h-5.2c-1.3,0-2.4-1.1-2.4-2.4V13.9c0-1.3,1.1-2.4,2.4-2.4h5.2c1.3,0,2.4,1.1,2.4,2.4v12.2
				C25,27.4,23.9,28.5,22.6,28.5z M17.4,12.5c-0.8,0-1.4,0.6-1.4,1.4v12.2c0,0.8,0.6,1.4,1.4,1.4h5.2c0.8,0,1.4-0.6,1.4-1.4V13.9
				c0-0.8-0.6-1.4-1.4-1.4H17.4z"/>
		</g>
		<g>
			<path fill="#231815" d="M22.7,24.5h-5.4c-0.3,0-0.5-0.2-0.5-0.5V14c0-0.3,0.2-0.5,0.5-0.5h5.4c0.3,0,0.5,0.2,0.5,0.5v10
				C23.2,24.3,23,24.5,22.7,24.5z M17.8,23.5h4.4v-9h-4.4V23.5z"/>
		</g>
		<g>
			<path fill="#231815" d="M20,27c-0.3,0-0.5-0.1-0.7-0.3C19.1,26.5,19,26.3,19,26s0.1-0.5,0.3-0.7c0.4-0.4,1-0.4,1.4,0
				c0.2,0.2,0.3,0.4,0.3,0.7c0,0.3-0.1,0.5-0.3,0.7C20.5,26.9,20.3,27,20,27z"/>
		</g>
	</g>
</g>
</svg>
