<?xml version="1.0" encoding="utf-8"?>
<!-- Generator: Adobe Illustrator 18.0.0, SVG Export Plug-In . SVG Version: 6.00 Build 0)  -->
<!DOCTYPE svg PUBLIC "-//W3C//DTD SVG 1.1//EN" "http://www.w3.org/Graphics/SVG/1.1/DTD/svg11.dtd">
<svg version="1.1" id="图层_1" xmlns="http://www.w3.org/2000/svg" xmlns:xlink="http://www.w3.org/1999/xlink" x="0px" y="0px"
	 viewBox="0 0 40 40" enable-background="new 0 0 40 40" xml:space="preserve">
<g>
	<g>
		<g>
			<path fill="#231815" d="M27,25H14c-1.4,0-2.5-1.1-2.5-2.5v-8c0-1.4,1.1-2.5,2.5-2.5h13c1.4,0,2.5,1.1,2.5,2.5v8
				C29.5,23.9,28.4,25,27,25z M14,13c-0.8,0-1.5,0.7-1.5,1.5v8c0,0.8,0.7,1.5,1.5,1.5h13c0.8,0,1.5-0.7,1.5-1.5v-8
				c0-0.8-0.7-1.5-1.5-1.5H14z"/>
		</g>
		<g>
			<g>
				
					<rect x="20.4" y="25.5" transform="matrix(0.3162 0.9487 -0.9487 0.3162 39.7088 -3.093)" fill="#231815" width="3.2" height="1"/>
			</g>
			<g>
				
					<rect x="18.5" y="24.4" transform="matrix(0.9486 0.3165 -0.3165 0.9486 9.2064 -4.6771)" fill="#231815" width="1" height="3.2"/>
			</g>
		</g>
		<g>
			<path fill="#231815" d="M27,23H14c-0.3,0-0.5-0.2-0.5-0.5v-8c0-0.3,0.2-0.5,0.5-0.5h13c0.3,0,0.5,0.2,0.5,0.5v8
				C27.5,22.8,27.3,23,27,23z M14.5,22h12v-7h-12V22z"/>
		</g>
	</g>
	<g>
		<path fill="#231815" d="M23.5,28h-6c-0.3,0-0.5-0.2-0.5-0.5s0.2-0.5,0.5-0.5h6c0.3,0,0.5,0.2,0.5,0.5S23.8,28,23.5,28z"/>
	</g>
</g>
</svg>
