<?xml version="1.0" encoding="utf-8"?>
<!-- Generator: Adobe Illustrator 18.0.0, SVG Export Plug-In . SVG Version: 6.00 Build 0)  -->
<!DOCTYPE svg PUBLIC "-//W3C//DTD SVG 1.1//EN" "http://www.w3.org/Graphics/SVG/1.1/DTD/svg11.dtd">
<svg version="1.1" id="图层_1" xmlns="http://www.w3.org/2000/svg" xmlns:xlink="http://www.w3.org/1999/xlink" x="0px" y="0px"
	 viewBox="0 0 40 40" enable-background="new 0 0 40 40" xml:space="preserve">
<g>
	<g>
		<path fill="#231815" d="M21.5,29.5h-3.1c-2.7,0-5-2.2-5-5v-9.1c0-2.7,2.2-5,5-5h3.1c2.7,0,5,2.2,5,5v9.1
			C26.5,27.3,24.3,29.5,21.5,29.5z M18.5,11.5c-2.2,0-4,1.8-4,4v9.1c0,2.2,1.8,4,4,4h3.1c2.2,0,4-1.8,4-4v-9.1c0-2.2-1.8-4-4-4H18.5
			z"/>
	</g>
	<g>
		<path fill="#231815" d="M20.5,11v4.5c0,0.3-0.2,0.5-0.5,0.5s-0.5-0.2-0.5-0.5V11H20.5z"/>
	</g>
	<g>
		<rect x="14" y="18.4" fill="#231815" width="12" height="1"/>
	</g>
</g>
</svg>
