<?xml version="1.0" encoding="utf-8"?>
<!-- Generator: Adobe Illustrator 18.0.0, SVG Export Plug-In . SVG Version: 6.00 Build 0)  -->
<!DOCTYPE svg PUBLIC "-//W3C//DTD SVG 1.1//EN" "http://www.w3.org/Graphics/SVG/1.1/DTD/svg11.dtd">
<svg version="1.1" id="图层_1" xmlns="http://www.w3.org/2000/svg" xmlns:xlink="http://www.w3.org/1999/xlink" x="0px" y="0px"
	 viewBox="0 0 40 40" enable-background="new 0 0 40 40" xml:space="preserve">
<g>
	<g>
		<g>
			<path fill="#231815" d="M24.8,25.5H14.2c-1.5,0-2.7-1.2-2.7-2.7v-5.5c0-1.5,1.2-2.7,2.7-2.7h10.5c1.5,0,2.7,1.2,2.7,2.7v5.5
				C27.5,24.3,26.3,25.5,24.8,25.5z M14.2,15.5c-1,0-1.7,0.8-1.7,1.7v5.5c0,1,0.8,1.7,1.7,1.7h10.5c1,0,1.7-0.8,1.7-1.7v-5.5
				c0-1-0.8-1.7-1.7-1.7H14.2z"/>
		</g>
		<g>
			<path fill="#231815" d="M27,18.6h1c0.3,0,0.5,0.2,0.5,0.5v2c0,0.3-0.2,0.5-0.5,0.5h-1V18.6z"/>
		</g>
		<g>
			<path fill="#231815" d="M15,22.5c-0.3,0-0.5-0.2-0.5-0.5v-4c0-0.3,0.2-0.5,0.5-0.5s0.5,0.2,0.5,0.5v4
				C15.5,22.3,15.3,22.5,15,22.5z"/>
		</g>
		<g>
			<path fill="#231815" d="M18,22.5c-0.3,0-0.5-0.2-0.5-0.5v-4c0-0.3,0.2-0.5,0.5-0.5s0.5,0.2,0.5,0.5v4
				C18.5,22.3,18.3,22.5,18,22.5z"/>
		</g>
		<g>
			<path fill="#231815" d="M21,22.5c-0.3,0-0.5-0.2-0.5-0.5v-4c0-0.3,0.2-0.5,0.5-0.5s0.5,0.2,0.5,0.5v4
				C21.5,22.3,21.3,22.5,21,22.5z"/>
		</g>
		<g>
			<path fill="#231815" d="M24,22.5c-0.3,0-0.5-0.2-0.5-0.5v-4c0-0.3,0.2-0.5,0.5-0.5s0.5,0.2,0.5,0.5v4
				C24.5,22.3,24.3,22.5,24,22.5z"/>
		</g>
	</g>
</g>
</svg>
