<?xml version="1.0" encoding="utf-8"?>
<!-- Generator: Adobe Illustrator 18.0.0, SVG Export Plug-In . SVG Version: 6.00 Build 0)  -->
<!DOCTYPE svg PUBLIC "-//W3C//DTD SVG 1.1//EN" "http://www.w3.org/Graphics/SVG/1.1/DTD/svg11.dtd">
<svg version="1.1" id="图层_1" xmlns="http://www.w3.org/2000/svg" xmlns:xlink="http://www.w3.org/1999/xlink" x="0px" y="0px"
	 viewBox="0 0 40 40" enable-background="new 0 0 40 40" xml:space="preserve">
<g>
	<g>
		<g>
			<g>
				<path fill="none" stroke="#768C03" stroke-linecap="round" stroke-linejoin="round" stroke-miterlimit="10" d="M23.4,14.4"/>
			</g>
			<g>
				<path fill="#231815" d="M20,28.1c-4.1,0-7.5-3.4-7.5-7.5c0-2.7,1.5-5.2,3.9-6.6c0.2-0.1,0.5,0,0.7,0.2c0.1,0.2,0,0.5-0.2,0.7
					c-2.1,1.1-3.4,3.3-3.4,5.7c0,3.6,2.9,6.5,6.5,6.5s6.5-2.9,6.5-6.5c0-2.4-1.3-4.5-3.4-5.7c-0.2-0.1-0.3-0.4-0.2-0.7
					c0.1-0.2,0.4-0.3,0.7-0.2c2.4,1.3,3.9,3.8,3.9,6.6C27.5,24.7,24.1,28.1,20,28.1z"/>
			</g>
		</g>
		<g>
			<path fill="#231815" d="M20,17.9c-0.3,0-0.5-0.2-0.5-0.5v-5c0-0.3,0.2-0.5,0.5-0.5s0.5,0.2,0.5,0.5v5
				C20.5,17.7,20.3,17.9,20,17.9z"/>
		</g>
	</g>
</g>
</svg>
