<?xml version="1.0" encoding="utf-8"?>
<!-- Generator: Adobe Illustrator 18.0.0, SVG Export Plug-In . SVG Version: 6.00 Build 0)  -->
<!DOCTYPE svg PUBLIC "-//W3C//DTD SVG 1.1//EN" "http://www.w3.org/Graphics/SVG/1.1/DTD/svg11.dtd">
<svg version="1.1" id="图层_1" xmlns="http://www.w3.org/2000/svg" xmlns:xlink="http://www.w3.org/1999/xlink" x="0px" y="0px"
	 viewBox="0 0 40 40" enable-background="new 0 0 40 40" xml:space="preserve">
<g>
	<g>
		<path fill="none" stroke="#768C03" stroke-linecap="round" stroke-linejoin="round" stroke-miterlimit="10" d="M17.5,16"/>
	</g>
	<g>
		<g>
			<path fill="#231815" d="M16.2,26.1h-2.5c-0.3,0-0.5-0.2-0.5-0.5s0.2-0.5,0.5-0.5h2.5c0.3,0,0.5,0.2,0.5,0.5S16.5,26.1,16.2,26.1z
				"/>
		</g>
		<g>
			<path fill="#231815" d="M17.9,28H12c-0.3,0-0.5-0.2-0.5-0.5S11.7,27,12,27h5.9c0.3,0,0.5,0.2,0.5,0.5S18.1,28,17.9,28z"/>
		</g>
		<path fill="#231815" d="M15.5,25.6v-5.4c0.5-0.2,1.5-0.7,2.8-0.7c1.7,0,3,0.8,3,0.8c0.1,0,1.6,0.9,3.5,0.9s3.5-0.9,3.5-0.9
			c0.1-0.1,0.2-0.2,0.2-0.3c0-0.1,0-0.3-0.1-0.4l-1.7-2.4l1.7-3.6c0.1-0.2,0-0.4-0.1-0.6c-0.2-0.1-0.4-0.2-0.6-0.1
			c0,0-1.3,0.8-3,0.8s-3-0.8-3-0.8c-0.1,0-1.6-0.9-3.5-0.9s-3.5,0.9-3.5,0.9c-0.1,0.1-0.2,0.3-0.2,0.4v12.2H15.5z M24.7,20.2
			c-1.7,0-3-0.8-3-0.8c-0.1,0-1.6-0.9-3.5-0.9c-1.1,0-2.1,0.3-2.8,0.6v-5.4c0.5-0.2,1.5-0.7,2.8-0.7c1.7,0,3,0.8,3,0.8
			c0.1,0,1.6,0.9,3.5,0.9c0.9,0,1.6-0.2,2.2-0.4L25.7,17c-0.1,0.2-0.1,0.4,0,0.5l1.5,2.2C26.7,19.9,25.8,20.2,24.7,20.2z"/>
	</g>
</g>
</svg>
