<?xml version="1.0" encoding="utf-8"?>
<!-- Generator: Adobe Illustrator 18.0.0, SVG Export Plug-In . SVG Version: 6.00 Build 0)  -->
<!DOCTYPE svg PUBLIC "-//W3C//DTD SVG 1.1//EN" "http://www.w3.org/Graphics/SVG/1.1/DTD/svg11.dtd">
<svg version="1.1" id="图层_1" xmlns="http://www.w3.org/2000/svg" xmlns:xlink="http://www.w3.org/1999/xlink" x="0px" y="0px"
	 viewBox="0 0 40 40" enable-background="new 0 0 40 40" xml:space="preserve">
<g>
	<g>
		<path fill="#231815" d="M20,28.5c-2.3,0-4.4-0.9-6-2.5c-3.3-3.3-3.3-8.7,0-12c1.6-1.6,3.7-2.5,6-2.5s4.4,0.9,6,2.5
			c3.3,3.3,3.3,8.7,0,12C24.4,27.6,22.3,28.5,20,28.5z M20,12.5c-2,0-3.9,0.8-5.3,2.2c-2.9,2.9-2.9,7.7,0,10.6
			c1.4,1.4,3.3,2.2,5.3,2.2s3.9-0.8,5.3-2.2c2.9-2.9,2.9-7.7,0-10.6C23.9,13.3,22,12.5,20,12.5z"/>
	</g>
	<g>
		<rect x="12" y="19.5" transform="matrix(0.7071 -0.7071 0.7071 0.7071 -8.2843 20)" fill="#231815" width="16" height="1"/>
	</g>
	<g>
		<g>
			<path fill="#231815" d="M12.3,17.9c1.6,0.5,3.4,0.1,4.5-1.1c1.2-1.2,1.6-2.9,1.1-4.5l1-0.3c0.6,2,0.1,4.1-1.3,5.5
				c-1,1-2.4,1.6-3.9,1.6c-0.6,0-1.1-0.1-1.7-0.3L12.3,17.9z"/>
		</g>
		<g>
			<path fill="#231815" d="M21.1,28c-0.6-2-0.1-4.1,1.3-5.5c1.4-1.4,3.6-2,5.5-1.3l-0.3,1c-1.6-0.5-3.4-0.1-4.5,1.1
				s-1.6,2.9-1.1,4.5L21.1,28z"/>
		</g>
	</g>
	<g>
		<rect x="12" y="19.5" transform="matrix(0.7071 0.7071 -0.7071 0.7071 20 -8.2843)" fill="#231815" width="16" height="1"/>
	</g>
</g>
</svg>
