<?xml version="1.0" encoding="utf-8"?>
<!-- Generator: Adobe Illustrator 18.0.0, SVG Export Plug-In . SVG Version: 6.00 Build 0)  -->
<!DOCTYPE svg PUBLIC "-//W3C//DTD SVG 1.1//EN" "http://www.w3.org/Graphics/SVG/1.1/DTD/svg11.dtd">
<svg version="1.1" id="图层_1" xmlns="http://www.w3.org/2000/svg" xmlns:xlink="http://www.w3.org/1999/xlink" x="0px" y="0px"
	 viewBox="0 0 40 40" enable-background="new 0 0 40 40" xml:space="preserve">
<g>
	<g>
		<g>
			<rect x="23.2" y="16.5" transform="matrix(0.866 -0.5 0.5 0.866 -5.1248 14.877)" fill="#231815" width="4" height="1"/>
		</g>
		<g>
			<rect x="21" y="14.3" transform="matrix(-0.4999 0.8661 -0.8661 -0.4999 47.3204 2.3052)" fill="#231815" width="4" height="1"/>
		</g>
		<g>
			<rect x="23.2" y="22.5" transform="matrix(0.866 0.5001 -0.5001 0.866 14.8751 -9.5139)" fill="#231815" width="4" height="1"/>
		</g>
		<g>
			<rect x="21" y="24.7" transform="matrix(0.5 0.866 -0.866 0.5 33.3228 -7.3212)" fill="#231815" width="4" height="1"/>
		</g>
		<g>
			<rect x="12.8" y="16.5" transform="matrix(0.866 0.5 -0.5 0.866 10.4883 -5.1291)" fill="#231815" width="4" height="1"/>
		</g>
		<g>
			<rect x="15" y="14.3" transform="matrix(0.5 0.866 -0.866 0.5 21.3215 -7.3208)" fill="#231815" width="4" height="1"/>
		</g>
		<g>
			
				<rect x="15" y="24.7" transform="matrix(-0.4998 0.8662 -0.8662 -0.4998 47.3266 23.0468)" fill="#231815" width="4" height="1"/>
		</g>
		<g>
			<rect x="12.8" y="22.5" transform="matrix(-0.866 0.5 -0.5 -0.866 39.1305 35.5203)" fill="#231815" width="4" height="1"/>
		</g>
		<g>
			<path fill="#231815" d="M20,28.5c-3,0-5.9-1.6-7.4-4.3c-1.1-2-1.4-4.3-0.9-6.5c0.6-2.2,2-4,4-5.2c1.3-0.7,2.8-1.1,4.2-1.1
				c3,0,5.9,1.6,7.4,4.3c2.3,4.1,1,9.3-3.1,11.6C23,28.1,21.5,28.5,20,28.5z M20,12.5c-1.3,0-2.6,0.3-3.7,1c-1.7,1-3,2.6-3.5,4.6
				s-0.3,4,0.8,5.7c1.3,2.3,3.8,3.8,6.5,3.8c1.3,0,2.6-0.3,3.7-1c3.6-2.1,4.8-6.7,2.7-10.2C25.2,13.9,22.7,12.5,20,12.5z"/>
		</g>
		<g>
			<path fill="#231815" d="M20,24.5c-1.6,0-3.1-0.9-3.9-2.3c-1.2-2.1-0.5-4.9,1.6-6.1c0.7-0.4,1.5-0.6,2.2-0.6
				c1.6,0,3.1,0.9,3.9,2.3c1.2,2.1,0.5,4.9-1.6,6.1C21.6,24.3,20.8,24.5,20,24.5z M20,16.5c-0.6,0-1.2,0.2-1.7,0.5
				c-1.7,1-2.2,3.1-1.3,4.8c0.6,1.1,1.8,1.8,3,1.8c0.6,0,1.2-0.2,1.7-0.5c1.7-1,2.2-3.1,1.3-4.8C22.4,17.2,21.2,16.5,20,16.5z"/>
		</g>
	</g>
</g>
</svg>
