<?xml version="1.0" encoding="utf-8"?>
<!-- Generator: Adobe Illustrator 18.0.0, SVG Export Plug-In . SVG Version: 6.00 Build 0)  -->
<!DOCTYPE svg PUBLIC "-//W3C//DTD SVG 1.1//EN" "http://www.w3.org/Graphics/SVG/1.1/DTD/svg11.dtd">
<svg version="1.1" id="图层_1" xmlns="http://www.w3.org/2000/svg" xmlns:xlink="http://www.w3.org/1999/xlink" x="0px" y="0px"
	 viewBox="0 0 40 40" enable-background="new 0 0 40 40" xml:space="preserve">
<g>
	<g>
		<g>
			<g>
				<g>
					<path fill="#231815" d="M18,26.5c-0.3,0-0.5-0.2-0.5-0.5v-6c0-0.3,0.2-0.5,0.5-0.5s0.5,0.2,0.5,0.5v6
						C18.5,26.3,18.3,26.5,18,26.5z"/>
				</g>
				<g>
					<path fill="#231815" d="M22,26.5c-0.3,0-0.5-0.2-0.5-0.5v-9c0-0.3,0.2-0.5,0.5-0.5s0.5,0.2,0.5,0.5v9
						C22.5,26.3,22.3,26.5,22,26.5z"/>
				</g>
				<g>
					<path fill="#231815" d="M26,26.5c-0.3,0-0.5-0.2-0.5-0.5V14c0-0.3,0.2-0.5,0.5-0.5s0.5,0.2,0.5,0.5v12
						C26.5,26.3,26.3,26.5,26,26.5z"/>
				</g>
				<g>
					<path fill="#231815" d="M14,26.5c-0.3,0-0.5-0.2-0.5-0.5v-3c0-0.3,0.2-0.5,0.5-0.5s0.5,0.2,0.5,0.5v3
						C14.5,26.3,14.3,26.5,14,26.5z"/>
				</g>
			</g>
		</g>
	</g>
</g>
</svg>
