<?xml version="1.0" encoding="utf-8"?>
<!-- Generator: Adobe Illustrator 18.0.0, SVG Export Plug-In . SVG Version: 6.00 Build 0)  -->
<!DOCTYPE svg PUBLIC "-//W3C//DTD SVG 1.1//EN" "http://www.w3.org/Graphics/SVG/1.1/DTD/svg11.dtd">
<svg version="1.1" id="图层_1" xmlns="http://www.w3.org/2000/svg" xmlns:xlink="http://www.w3.org/1999/xlink" x="0px" y="0px"
	 viewBox="0 0 40 40" enable-background="new 0 0 40 40" xml:space="preserve">
<g>
	<g>
		<g>
			<g>
				<g>
					<path fill="#231815" d="M28,18.2c-0.1,0-0.3,0-0.4-0.1c-2-2-4.8-3.2-7.6-3.2S14.4,16,12.4,18c-0.2,0.2-0.5,0.2-0.7,0
						s-0.2-0.5,0-0.7c2.2-2.2,5.2-3.5,8.4-3.5s6.1,1.2,8.4,3.5c0.2,0.2,0.2,0.5,0,0.7C28.3,18.1,28.1,18.2,28,18.2z"/>
				</g>
				<g>
					<path fill="#231815" d="M25.3,20.8c-0.1,0-0.3,0-0.4-0.1c-2.7-2.7-7.2-2.7-10,0c-0.2,0.2-0.5,0.2-0.7,0s-0.2-0.5,0-0.7
						c3.1-3.1,8.2-3.1,11.4,0c0.2,0.2,0.2,0.5,0,0.7C25.6,20.8,25.5,20.8,25.3,20.8z"/>
				</g>
				<g>
					<path fill="#231815" d="M22.7,23.5c-0.1,0-0.3,0-0.4-0.1c-1.3-1.3-3.4-1.3-4.6,0c-0.2,0.2-0.5,0.2-0.7,0s-0.2-0.5,0-0.7
						c1.7-1.7,4.4-1.7,6,0c0.2,0.2,0.2,0.5,0,0.7C22.9,23.4,22.8,23.5,22.7,23.5z"/>
				</g>
				<g>
					<path fill="#231815" d="M20,26.2c-0.1,0-0.3-0.1-0.4-0.2c-0.1-0.1-0.1-0.2-0.1-0.3s0-0.3,0.1-0.4c0.2-0.2,0.5-0.2,0.7,0
						c0.1,0.1,0.2,0.2,0.2,0.4s-0.1,0.3-0.1,0.3C20.3,26.1,20.1,26.2,20,26.2z"/>
				</g>
			</g>
		</g>
	</g>
</g>
</svg>
