<?xml version="1.0" encoding="utf-8"?>
<!-- Generator: Adobe Illustrator 18.0.0, SVG Export Plug-In . SVG Version: 6.00 Build 0)  -->
<!DOCTYPE svg PUBLIC "-//W3C//DTD SVG 1.1//EN" "http://www.w3.org/Graphics/SVG/1.1/DTD/svg11.dtd">
<svg version="1.1" id="图层_1" xmlns="http://www.w3.org/2000/svg" xmlns:xlink="http://www.w3.org/1999/xlink" x="0px" y="0px"
	 viewBox="0 0 40 40" enable-background="new 0 0 40 40" xml:space="preserve">
<g>
	<g>
		<g>
			<path fill="#231815" d="M23.5,28.5L23.5,28.5c-0.9,0-1.8-0.3-2.5-0.8c-2.1-1.5-3.5-2.8-4.7-4c-1.2-1.2-2.5-2.6-4-4.7
				c-1.5-2-0.9-4.6,1.4-7c0.7-0.7,1.9-0.7,2.6,0l1.4,1.4c0.3,0.3,0.5,0.8,0.5,1.3c0,0.5-0.2,1-0.5,1.3l-0.6,0.6
				c-0.2,0.2-0.1,0.5,0,0.7c0.7,0.9,1.9,2.2,2.6,2.8c0.7,0.7,1.9,1.9,2.8,2.6c0.2,0.2,0.5,0.2,0.7,0l0.6-0.6c0.7-0.7,1.9-0.7,2.6,0
				l1.4,1.4c0.3,0.3,0.5,0.8,0.5,1.3c0,0.5-0.2,1-0.5,1.3C26.5,27.7,25,28.5,23.5,28.5z M15,12.5c-0.2,0-0.4,0.1-0.6,0.2
				c-2,2-2.4,4.1-1.3,5.7c1.5,2.1,2.7,3.4,3.9,4.6c1.2,1.2,2.5,2.4,4.6,3.9c1.6,1.1,3.7,0.7,5.7-1.3c0.2-0.2,0.2-0.4,0.2-0.6
				c0-0.2-0.1-0.4-0.2-0.6L25.8,23c-0.3-0.3-0.9-0.3-1.2,0L24,23.6c-0.5,0.5-1.3,0.5-2,0c-1-0.7-2.2-2-2.9-2.7c-0.7-0.7-2-2-2.7-2.9
				c-0.5-0.7-0.5-1.5,0-2l0.6-0.6c0.2-0.2,0.2-0.4,0.2-0.6c0-0.2-0.1-0.4-0.2-0.6l-1.4-1.4C15.4,12.6,15.2,12.5,15,12.5z"/>
		</g>
	</g>
</g>
</svg>
