<?xml version="1.0" encoding="utf-8"?>
<!-- Generator: Adobe Illustrator 18.0.0, SVG Export Plug-In . SVG Version: 6.00 Build 0)  -->
<!DOCTYPE svg PUBLIC "-//W3C//DTD SVG 1.1//EN" "http://www.w3.org/Graphics/SVG/1.1/DTD/svg11.dtd">
<svg version="1.1" id="图层_1" xmlns="http://www.w3.org/2000/svg" xmlns:xlink="http://www.w3.org/1999/xlink" x="0px" y="0px"
	 viewBox="0 0 40 40" enable-background="new 0 0 40 40" xml:space="preserve">
<g>
	<g>
		<g>
			<g>
				<g>
					<path fill="#231815" d="M24.6,28.5h-8.2c-1.3,0-2.4-1.1-2.4-2.4V13.9c0-1.3,1.1-2.4,2.4-2.4h8.2c1.3,0,2.4,1.1,2.4,2.4v12.2
						C27,27.4,25.9,28.5,24.6,28.5z M16.4,12.5c-0.8,0-1.4,0.6-1.4,1.4v12.2c0,0.8,0.6,1.4,1.4,1.4h8.2c0.8,0,1.4-0.6,1.4-1.4V13.9
						c0-0.8-0.6-1.4-1.4-1.4H16.4z"/>
				</g>
				<g>
					<g>
						<path fill="#231815" d="M15.5,16.5h-2c-0.3,0-0.5-0.2-0.5-0.5s0.2-0.5,0.5-0.5h2c0.3,0,0.5,0.2,0.5,0.5S15.8,16.5,15.5,16.5z"
							/>
					</g>
					<g>
						<path fill="#231815" d="M15.5,21.8h-2c-0.3,0-0.5-0.2-0.5-0.5s0.2-0.5,0.5-0.5h2c0.3,0,0.5,0.2,0.5,0.5S15.8,21.8,15.5,21.8z"
							/>
					</g>
					<g>
						<path fill="#231815" d="M15.5,24.5h-2c-0.3,0-0.5-0.2-0.5-0.5s0.2-0.5,0.5-0.5h2c0.3,0,0.5,0.2,0.5,0.5S15.8,24.5,15.5,24.5z"
							/>
					</g>
					<g>
						<path fill="#231815" d="M15.5,19.2h-2c-0.3,0-0.5-0.2-0.5-0.5s0.2-0.5,0.5-0.5h2c0.3,0,0.5,0.2,0.5,0.5S15.8,19.2,15.5,19.2z"
							/>
					</g>
				</g>
			</g>
			<g>
				<g>
					<path fill="#231815" d="M21.4,20.7c-1,0-1.8-0.9-1.8-2s0.8-2,1.8-2s1.8,0.9,1.8,2S22.4,20.7,21.4,20.7z M21.4,17.8
						c-0.4,0-0.8,0.4-0.8,1s0.4,1,0.8,1s0.8-0.4,0.8-1S21.9,17.8,21.4,17.8z"/>
				</g>
				<g>
					<path fill="#231815" d="M22.1,19.6h0.1c1.1,0,1.9,0.9,1.9,1.9v1.2c0,0.3-0.2,0.5-0.5,0.5s-0.5-0.2-0.5-0.5v-1.2
						c0-0.5-0.4-0.9-0.9-0.9h-0.1V19.6z"/>
				</g>
				<g>
					<path fill="#231815" d="M20.8,20.6h-0.1c-0.5,0-0.9,0.4-0.9,0.9v1.2c0,0.3-0.2,0.5-0.5,0.5s-0.5-0.2-0.5-0.5v-1.2
						c0-1.1,0.9-1.9,1.9-1.9h0.1V20.6z"/>
				</g>
			</g>
			<g>
				<rect x="16.4" y="12" fill="#231815" width="1" height="16"/>
			</g>
		</g>
	</g>
</g>
</svg>
