<?xml version="1.0" encoding="utf-8"?>
<!-- Generator: Adobe Illustrator 18.0.0, SVG Export Plug-In . SVG Version: 6.00 Build 0)  -->
<!DOCTYPE svg PUBLIC "-//W3C//DTD SVG 1.1//EN" "http://www.w3.org/Graphics/SVG/1.1/DTD/svg11.dtd">
<svg version="1.1" id="图层_1" xmlns="http://www.w3.org/2000/svg" xmlns:xlink="http://www.w3.org/1999/xlink" x="0px" y="0px"
	 viewBox="0 0 40 40" enable-background="new 0 0 40 40" xml:space="preserve">
<g>
	<g>
		<g>
			<g>
				<g>
					<path fill="#231815" d="M25.5,27.5h-11c-1.4,0-2.5-1.1-2.5-2.5v-9c0-1.4,1.1-2.5,2.5-2.5h11c1.4,0,2.5,1.1,2.5,2.5v9
						C28,26.4,26.9,27.5,25.5,27.5z M14.5,14.5c-0.8,0-1.5,0.7-1.5,1.5v9c0,0.8,0.7,1.5,1.5,1.5h11c0.8,0,1.5-0.7,1.5-1.5v-9
						c0-0.8-0.7-1.5-1.5-1.5H14.5z"/>
				</g>
				<g>
					<g>
						<path fill="#231815" d="M17,15.5c-0.3,0-0.5-0.2-0.5-0.5v-2c0-0.3,0.2-0.5,0.5-0.5s0.5,0.2,0.5,0.5v2
							C17.5,15.3,17.3,15.5,17,15.5z"/>
					</g>
					<g>
						<path fill="#231815" d="M23,15.5c-0.3,0-0.5-0.2-0.5-0.5v-2c0-0.3,0.2-0.5,0.5-0.5s0.5,0.2,0.5,0.5v2
							C23.5,15.3,23.3,15.5,23,15.5z"/>
					</g>
				</g>
				<g>
					<path fill="#231815" d="M27,18.5H13c-0.3,0-0.5-0.2-0.5-0.5s0.2-0.5,0.5-0.5H27c0.3,0,0.5,0.2,0.5,0.5S27.3,18.5,27,18.5z"/>
				</g>
			</g>
			<g>
				<g>
					<path fill="#231815" d="M15.5,25c-0.3,0-0.5-0.1-0.7-0.3c-0.2-0.2-0.3-0.5-0.3-0.7c0-0.3,0.1-0.5,0.3-0.7c0.4-0.4,1-0.4,1.4,0
						c0.2,0.2,0.3,0.5,0.3,0.7s-0.1,0.5-0.3,0.7C16,24.9,15.8,25,15.5,25z"/>
				</g>
				<g>
					<path fill="#231815" d="M15.5,22c-0.3,0-0.5-0.1-0.7-0.3c-0.2-0.2-0.3-0.4-0.3-0.7c0-0.3,0.1-0.5,0.3-0.7c0.4-0.4,1-0.4,1.4,0
						c0.2,0.2,0.3,0.5,0.3,0.7s-0.1,0.5-0.3,0.7C16,21.9,15.8,22,15.5,22z"/>
				</g>
				<g>
					<path fill="#231815" d="M18.5,25c-0.3,0-0.5-0.1-0.7-0.3c-0.2-0.2-0.3-0.5-0.3-0.7s0.1-0.5,0.3-0.7c0.4-0.4,1-0.4,1.4,0
						c0.2,0.2,0.3,0.5,0.3,0.7s-0.1,0.5-0.3,0.7C19,24.9,18.8,25,18.5,25z"/>
				</g>
				<g>
					<path fill="#231815" d="M18.5,22c-0.3,0-0.5-0.1-0.7-0.3c-0.2-0.2-0.3-0.5-0.3-0.7s0.1-0.5,0.3-0.7c0.4-0.4,1-0.4,1.4,0
						c0.2,0.2,0.3,0.5,0.3,0.7s-0.1,0.5-0.3,0.7C19,21.9,18.8,22,18.5,22z"/>
				</g>
				<g>
					<path fill="#231815" d="M21.5,25c-0.3,0-0.5-0.1-0.7-0.3c-0.2-0.2-0.3-0.5-0.3-0.7s0.1-0.5,0.3-0.7c0.4-0.4,1-0.4,1.4,0
						c0.2,0.2,0.3,0.4,0.3,0.7c0,0.3-0.1,0.5-0.3,0.7C22,24.9,21.8,25,21.5,25z"/>
				</g>
				<g>
					<path fill="#231815" d="M21.5,22c-0.3,0-0.5-0.1-0.7-0.3c-0.2-0.2-0.3-0.5-0.3-0.7s0.1-0.5,0.3-0.7c0.4-0.4,1-0.4,1.4,0
						c0.2,0.2,0.3,0.5,0.3,0.7c0,0.3-0.1,0.5-0.3,0.7C22,21.9,21.8,22,21.5,22z"/>
				</g>
				<g>
					<path fill="#231815" d="M24.5,25c-0.3,0-0.5-0.1-0.7-0.3c-0.2-0.2-0.3-0.5-0.3-0.7c0-0.3,0.1-0.5,0.3-0.7c0.4-0.4,1-0.4,1.4,0
						c0.2,0.2,0.3,0.5,0.3,0.7s-0.1,0.5-0.3,0.7C25,24.9,24.8,25,24.5,25z"/>
				</g>
				<g>
					<path fill="#231815" d="M24.5,22c-0.3,0-0.5-0.1-0.7-0.3c-0.2-0.2-0.3-0.5-0.3-0.7s0.1-0.5,0.3-0.7c0.4-0.4,1-0.4,1.4,0
						c0.2,0.2,0.3,0.5,0.3,0.7c0,0.3-0.1,0.5-0.3,0.7C25,21.9,24.8,22,24.5,22z"/>
				</g>
			</g>
		</g>
	</g>
</g>
</svg>
