<?xml version="1.0" encoding="utf-8"?>
<!-- Generator: Adobe Illustrator 18.0.0, SVG Export Plug-In . SVG Version: 6.00 Build 0)  -->
<!DOCTYPE svg PUBLIC "-//W3C//DTD SVG 1.1//EN" "http://www.w3.org/Graphics/SVG/1.1/DTD/svg11.dtd">
<svg version="1.1" id="图层_1" xmlns="http://www.w3.org/2000/svg" xmlns:xlink="http://www.w3.org/1999/xlink" x="0px" y="0px"
	 viewBox="0 0 40 40" enable-background="new 0 0 40 40" xml:space="preserve">
<g>
	<g>
		<g>
			<g>
				<g>
					<g>
						<path fill="#231815" d="M20,27c-3.6,0-6.5-2.9-6.5-6.5S16.4,14,20,14s6.5,2.9,6.5,6.5S23.6,27,20,27z M20,15
							c-3,0-5.5,2.5-5.5,5.5S17,26,20,26s5.5-2.5,5.5-5.5S23,15,20,15z"/>
					</g>
					<g>
						<path fill="#231815" d="M22.3,21H21c-0.8,0-1.5-0.7-1.5-1.5v-1.8c0-0.3,0.2-0.5,0.5-0.5s0.5,0.2,0.5,0.5v1.8
							c0,0.3,0.2,0.5,0.5,0.5h1.3c0.3,0,0.5,0.2,0.5,0.5S22.5,21,22.3,21z"/>
					</g>
				</g>
				<g>
					<g>
						<path fill="#231815" d="M27.6,16.2c-0.2,0-0.3-0.1-0.4-0.2c-0.7-1.2-1.7-2.2-2.9-2.8c-0.2-0.1-0.3-0.4-0.2-0.7
							c0.1-0.2,0.4-0.3,0.7-0.2c1.3,0.8,2.4,1.9,3.2,3.2c0.1,0.2,0.1,0.5-0.2,0.7C27.8,16.2,27.7,16.2,27.6,16.2z"/>
					</g>
					<g>
						<path fill="#231815" d="M12.4,16.2c-0.1,0-0.2,0-0.3-0.1c-0.2-0.1-0.3-0.5-0.2-0.7c0.8-1.3,1.9-2.4,3.2-3.2
							c0.2-0.1,0.5-0.1,0.7,0.2c0.1,0.2,0.1,0.5-0.2,0.7c-1.2,0.7-2.2,1.7-2.9,2.8C12.7,16.1,12.5,16.2,12.4,16.2z"/>
					</g>
				</g>
				<g>
					<path fill="#231815" d="M16.9,25.7L15,27.6c-0.1,0.1-0.2,0.1-0.4,0.1s-0.3,0-0.4-0.1c-0.2-0.2-0.2-0.5,0-0.7l1.9-1.9L16.9,25.7
						z"/>
				</g>
				<g>
					<path fill="#231815" d="M23.8,25l1.9,1.9c0.2,0.2,0.2,0.5,0,0.7c-0.1,0.1-0.2,0.1-0.4,0.1s-0.3,0-0.4-0.1l-1.9-1.9L23.8,25z"/>
				</g>
			</g>
		</g>
	</g>
</g>
</svg>
