<?xml version="1.0" encoding="utf-8"?>
<!-- Generator: Adobe Illustrator 18.0.0, SVG Export Plug-In . SVG Version: 6.00 Build 0)  -->
<!DOCTYPE svg PUBLIC "-//W3C//DTD SVG 1.1//EN" "http://www.w3.org/Graphics/SVG/1.1/DTD/svg11.dtd">
<svg version="1.1" id="图层_1" xmlns="http://www.w3.org/2000/svg" xmlns:xlink="http://www.w3.org/1999/xlink" x="0px" y="0px"
	 viewBox="0 0 40 40" enable-background="new 0 0 40 40" xml:space="preserve">
<g>
	<g>
		<g>
			<g>
				<g>
					<path fill="#231815" d="M20,28.5c-4.7,0-8.5-3.8-8.5-8.5s3.8-8.5,8.5-8.5s8.5,3.8,8.5,8.5S24.7,28.5,20,28.5z M20,12.5
						c-4.1,0-7.5,3.4-7.5,7.5s3.4,7.5,7.5,7.5s7.5-3.4,7.5-7.5S24.1,12.5,20,12.5z"/>
				</g>
				<g>
					<path fill="#231815" d="M22,20.5h-1.4c-0.6,0-1.1-0.5-1.1-1.1V16c0-0.3,0.2-0.5,0.5-0.5s0.5,0.2,0.5,0.5v3.4
						c0,0.1,0.1,0.1,0.1,0.1H22c0.3,0,0.5,0.2,0.5,0.5S22.3,20.5,22,20.5z"/>
				</g>
				<g>
					<path fill="#231815" d="M20,14.5c-0.3,0-0.5-0.2-0.5-0.5v-1.5c0-0.3,0.2-0.5,0.5-0.5s0.5,0.2,0.5,0.5V14
						C20.5,14.3,20.3,14.5,20,14.5z"/>
				</g>
				<g>
					<path fill="#231815" d="M27.5,20.5H26c-0.3,0-0.5-0.2-0.5-0.5s0.2-0.5,0.5-0.5h1.5c0.3,0,0.5,0.2,0.5,0.5S27.8,20.5,27.5,20.5z
						"/>
				</g>
				<g>
					<path fill="#231815" d="M14,20.5h-1.5c-0.3,0-0.5-0.2-0.5-0.5s0.2-0.5,0.5-0.5H14c0.3,0,0.5,0.2,0.5,0.5S14.3,20.5,14,20.5z"/>
				</g>
				<g>
					<path fill="#231815" d="M20,28c-0.3,0-0.5-0.2-0.5-0.5V26c0-0.3,0.2-0.5,0.5-0.5s0.5,0.2,0.5,0.5v1.5C20.5,27.8,20.3,28,20,28z
						"/>
				</g>
			</g>
		</g>
	</g>
</g>
</svg>
