<?xml version="1.0" encoding="utf-8"?>
<!-- Generator: Adobe Illustrator 18.0.0, SVG Export Plug-In . SVG Version: 6.00 Build 0)  -->
<!DOCTYPE svg PUBLIC "-//W3C//DTD SVG 1.1//EN" "http://www.w3.org/Graphics/SVG/1.1/DTD/svg11.dtd">
<svg version="1.1" id="图层_1" xmlns="http://www.w3.org/2000/svg" xmlns:xlink="http://www.w3.org/1999/xlink" x="0px" y="0px"
	 viewBox="0 0 40 40" enable-background="new 0 0 40 40" xml:space="preserve">
<g>
	<g>
		<g>
			<g>
				<g>
					<path fill="#231815" d="M21.9,25.8h-3.9c-0.3,0-0.5-0.2-0.5-0.5s0.2-0.5,0.5-0.5h3.9c0.3,0,0.5,0.2,0.5,0.5
						S22.2,25.8,21.9,25.8z"/>
				</g>
				<g>
					<path fill="#231815" d="M25.3,28.5H14.7c-0.6,0-1.2-0.5-1.2-1.2V26c0-0.6,0.5-1.2,1.2-1.2H15c0.3-1.8,1.5-3.4,2.4-4.6l0.1-0.2
						l-0.1-0.2c-0.9-1.2-2.1-2.8-2.4-4.6h-0.3c-0.6,0-1.2-0.5-1.2-1.2v-1.3c0-0.6,0.5-1.2,1.2-1.2h10.7c0.6,0,1.2,0.5,1.2,1.2V14
						c0,0.6-0.5,1.2-1.2,1.2H25c-0.3,1.8-1.5,3.4-2.4,4.6L22.5,20l0.1,0.2c0.9,1.2,2.1,2.8,2.4,4.6h0.3c0.6,0,1.2,0.5,1.2,1.2v1.3
						C26.5,28,26,28.5,25.3,28.5z M14.7,25.8c-0.1,0-0.2,0.1-0.2,0.2v1.3c0,0.1,0.1,0.2,0.2,0.2h10.7c0.1,0,0.2-0.1,0.2-0.2V26
						c0-0.1-0.1-0.2-0.2-0.2h-0.7c-0.3,0-0.5-0.2-0.5-0.5c-0.1-1.8-1.4-3.4-2.2-4.6l-0.4-0.5c-0.1-0.2-0.1-0.4,0-0.6l0.4-0.5
						c0.9-1.2,2.1-2.8,2.2-4.6c0-0.3,0.2-0.5,0.5-0.5h0.7c0.1,0,0.2-0.1,0.2-0.2v-1.3c0-0.1-0.1-0.2-0.2-0.2H14.7
						c-0.1,0-0.2,0.1-0.2,0.2V14c0,0.1,0.1,0.2,0.2,0.2h0.7c0.3,0,0.5,0.2,0.5,0.5c0.1,1.8,1.4,3.4,2.2,4.6l0.4,0.5
						c0.1,0.2,0.1,0.4,0,0.6l-0.4,0.5c-0.9,1.2-2.1,2.8-2.2,4.6c0,0.3-0.2,0.5-0.5,0.5H14.7z"/>
				</g>
			</g>
		</g>
	</g>
</g>
</svg>
