<?xml version="1.0" encoding="utf-8"?>
<!-- Generator: Adobe Illustrator 18.0.0, SVG Export Plug-In . SVG Version: 6.00 Build 0)  -->
<!DOCTYPE svg PUBLIC "-//W3C//DTD SVG 1.1//EN" "http://www.w3.org/Graphics/SVG/1.1/DTD/svg11.dtd">
<svg version="1.1" id="图层_1" xmlns="http://www.w3.org/2000/svg" xmlns:xlink="http://www.w3.org/1999/xlink" x="0px" y="0px"
	 viewBox="0 0 40 40" enable-background="new 0 0 40 40" xml:space="preserve">
<g>
	<g>
		<g>
			<g>
				<g>
					<path fill="#231815" d="M16.5,27.5c-1,0-2.1-0.4-2.9-1.2c-0.8-0.8-1.2-1.8-1.2-2.9c0-1.1,0.4-2.1,1.2-2.9l1.9-1.9
						c0.2-0.2,0.5-0.2,0.7,0s0.2,0.5,0,0.7l-1.9,1.9c-0.6,0.6-0.9,1.3-0.9,2.2s0.3,1.6,0.9,2.2c1.2,1.2,3.2,1.2,4.3,0l1.9-1.9
						c0.2-0.2,0.5-0.2,0.7,0s0.2,0.5,0,0.7l-1.9,1.9C18.6,27.1,17.6,27.5,16.5,27.5z"/>
				</g>
				<g>
					<path fill="#231815" d="M24.1,21.4c-0.1,0-0.3,0-0.4-0.1c-0.2-0.2-0.2-0.5,0-0.7l1.9-1.9c1.2-1.2,1.2-3.1,0-4.3
						c-1.2-1.2-3.1-1.2-4.3,0l-1.9,1.9c-0.2,0.2-0.5,0.2-0.7,0s-0.2-0.5,0-0.7l1.9-1.9c1.6-1.6,4.1-1.6,5.7,0c1.6,1.6,1.6,4.1,0,5.7
						l-1.9,1.9C24.3,21.4,24.2,21.4,24.1,21.4z"/>
				</g>
				<g>
					<path fill="#231815" d="M16.5,24c-0.1,0-0.3,0-0.4-0.1c-0.2-0.2-0.2-0.5,0-0.7l6.9-6.9c0.2-0.2,0.5-0.2,0.7,0s0.2,0.5,0,0.7
						l-6.9,6.9C16.8,23.9,16.7,24,16.5,24z"/>
				</g>
			</g>
		</g>
	</g>
</g>
</svg>
