<?xml version="1.0" encoding="utf-8"?>
<!-- Generator: Adobe Illustrator 18.0.0, SVG Export Plug-In . SVG Version: 6.00 Build 0)  -->
<!DOCTYPE svg PUBLIC "-//W3C//DTD SVG 1.1//EN" "http://www.w3.org/Graphics/SVG/1.1/DTD/svg11.dtd">
<svg version="1.1" id="图层_1" xmlns="http://www.w3.org/2000/svg" xmlns:xlink="http://www.w3.org/1999/xlink" x="0px" y="0px"
	 viewBox="0 0 40 40" enable-background="new 0 0 40 40" xml:space="preserve">
<g>
	<g>
		<g>
			<g>
				<path fill="#231815" d="M13.3,22.4c-0.2,0-0.4-0.1-0.5-0.4c-0.2-0.7-0.3-1.4-0.3-2.1c0-4.1,3.4-7.5,7.5-7.5
					c0.7,0,1.4,0.1,2.1,0.3c0.3,0.1,0.4,0.4,0.3,0.6c-0.1,0.3-0.4,0.4-0.6,0.3c-0.6-0.2-1.2-0.3-1.8-0.3c-3.6,0-6.5,2.9-6.5,6.5
					c0,0.6,0.1,1.2,0.3,1.8c0.1,0.3-0.1,0.5-0.3,0.6C13.4,22.4,13.3,22.4,13.3,22.4z"/>
			</g>
			<g>
				<path fill="#231815" d="M19.4,26.5c0.2,0,0.4,0,0.6,0c3.6,0,6.5-2.9,6.5-6.5c0-0.2,0-0.4,0-0.6l0.3-1.9c0.2,0,0.4,0.2,0.4,0.4
					c0.2,0.7,0.3,1.4,0.3,2.1c0,4.1-3.4,7.5-7.5,7.5c-0.7,0-1.4-0.1-2.1-0.3c-0.2-0.1-0.3-0.2-0.4-0.4L19.4,26.5z"/>
			</g>
			<g>
				<path fill="#231815" d="M14.2,28.5c-0.8,0-1.5-0.2-1.9-0.7c-1.1-1.1-0.9-3.3,0.6-6.1c0.1-0.2,0.3-0.3,0.5-0.3
					c0.2,0,0.4,0.2,0.4,0.4c0.6,2.1,2.3,3.8,4.4,4.4c0.2,0.1,0.3,0.2,0.4,0.4c0,0.2-0.1,0.4-0.3,0.5C16.7,28,15.3,28.5,14.2,28.5z
					 M13.2,23.2c-0.8,1.8-0.9,3.3-0.3,3.9c0.6,0.6,2.1,0.5,3.9-0.3C15.2,26,14,24.8,13.2,23.2z"/>
			</g>
			<g>
				<path fill="#231815" d="M26.7,18.6C26.7,18.6,26.7,18.6,26.7,18.6c-0.3,0-0.4-0.2-0.5-0.4c-0.6-2.1-2.3-3.8-4.4-4.4
					c-0.2-0.1-0.3-0.2-0.4-0.4c0-0.2,0.1-0.4,0.3-0.5c2.7-1.5,5-1.7,6.1-0.6c1.1,1.1,0.9,3.3-0.6,6.1C27.1,18.5,26.9,18.6,26.7,18.6
					z M23.2,13.2c1.6,0.7,2.9,2,3.6,3.6c0.8-1.8,0.9-3.3,0.3-3.9C26.4,12.3,25,12.4,23.2,13.2z"/>
			</g>
			<g>
				<path fill="#231815" d="M27.2,17.9c0,0.1,0,0.3,0,0.4c-0.9,1.7-2.3,3.4-3.9,5c-1.6,1.6-3.3,2.9-5,3.9c-0.1,0-0.2,0.1-0.2,0.1
					c0,0-0.1,0-0.1,0l0.1-1c1.5-0.9,3.1-2.1,4.6-3.6c1.5-1.5,2.7-3.1,3.6-4.6L27.2,17.9z"/>
			</g>
		</g>
	</g>
</g>
</svg>
