<?xml version="1.0" encoding="utf-8"?>
<!-- Generator: Adobe Illustrator 18.0.0, SVG Export Plug-In . SVG Version: 6.00 Build 0)  -->
<!DOCTYPE svg PUBLIC "-//W3C//DTD SVG 1.1//EN" "http://www.w3.org/Graphics/SVG/1.1/DTD/svg11.dtd">
<svg version="1.1" id="图层_1" xmlns="http://www.w3.org/2000/svg" xmlns:xlink="http://www.w3.org/1999/xlink" x="0px" y="0px"
	 viewBox="0 0 40 40" enable-background="new 0 0 40 40" xml:space="preserve">
<g>
	<g>
		<g>
			<g>
				<path fill="#231815" d="M20,29c-0.5,0-1-0.3-1.3-0.8L14.5,21c-1.8-3.1-0.9-7.2,2.1-9c1-0.6,2.2-1,3.4-1c2.3,0,4.5,1.2,5.6,3.3
					c1.1,2,1.2,4.4,0,6.4c0,0,0,0,0,0.1l-4.3,7.5C21,28.7,20.5,29,20,29z M20,12c-1,0-2,0.3-2.9,0.8c-2.5,1.5-3.3,5-1.7,7.6l4.2,7.3
					C19.7,28,19.9,28,20,28c0.1,0,0.3,0,0.4-0.3l4.3-7.4c0,0,0,0,0-0.1c1-1.7,1-3.8,0-5.5C23.8,13.1,22,12,20,12z"/>
			</g>
			<g>
				<path fill="#231815" d="M20,20c-1.4,0-2.5-1.1-2.5-2.5S18.6,15,20,15s2.5,1.1,2.5,2.5S21.4,20,20,20z M20,16
					c-0.8,0-1.5,0.7-1.5,1.5S19.2,19,20,19s1.5-0.7,1.5-1.5S20.8,16,20,16z"/>
			</g>
		</g>
	</g>
</g>
</svg>
