<?xml version="1.0" encoding="utf-8"?>
<!-- Generator: Adobe Illustrator 18.0.0, SVG Export Plug-In . SVG Version: 6.00 Build 0)  -->
<!DOCTYPE svg PUBLIC "-//W3C//DTD SVG 1.1//EN" "http://www.w3.org/Graphics/SVG/1.1/DTD/svg11.dtd">
<svg version="1.1" id="图层_1" xmlns="http://www.w3.org/2000/svg" xmlns:xlink="http://www.w3.org/1999/xlink" x="0px" y="0px"
	 viewBox="0 0 40 40" enable-background="new 0 0 40 40" xml:space="preserve">
<g>
	<g>
		<g>
			<g>
				<path fill="#231815" d="M20.9,28.5c-0.8,0-1.5-0.6-1.7-1.4l-0.8-4.9c0-0.3-0.3-0.5-0.6-0.6l-4.9-0.8c-0.8-0.1-1.3-0.7-1.4-1.5
					c-0.1-0.8,0.3-1.5,1.1-1.7l12.6-4.9c0.7-0.3,1.6,0,2,0.6c0.3,0.5,0.4,1,0.2,1.6l-4.9,12.6C22.2,28.1,21.6,28.5,20.9,28.5z
					 M25.8,13.5c-0.1,0-0.2,0-0.3,0l-12.6,4.9c-0.4,0.1-0.5,0.5-0.4,0.7c0,0.2,0.2,0.5,0.6,0.6l4.9,0.8c0.7,0.1,1.3,0.7,1.4,1.4
					l0.8,4.9c0.1,0.4,0.4,0.6,0.7,0.6c0.1,0,0.5,0,0.6-0.4l4.9-12.6c0.1-0.3,0-0.5-0.1-0.6C26.3,13.6,26,13.5,25.8,13.5z"/>
			</g>
			<g>
				<path fill="#231815" d="M18.2,21.1l7.6-7.6c0.2-0.2,0.5-0.2,0.7,0s0.2,0.5,0,0.7l-7.6,7.6L18.2,21.1z"/>
			</g>
		</g>
	</g>
</g>
</svg>
