<?xml version="1.0" encoding="utf-8"?>
<!-- Generator: Adobe Illustrator 18.0.0, SVG Export Plug-In . SVG Version: 6.00 Build 0)  -->
<!DOCTYPE svg PUBLIC "-//W3C//DTD SVG 1.1//EN" "http://www.w3.org/Graphics/SVG/1.1/DTD/svg11.dtd">
<svg version="1.1" id="图层_1" xmlns="http://www.w3.org/2000/svg" xmlns:xlink="http://www.w3.org/1999/xlink" x="0px" y="0px"
	 viewBox="0 0 40 40" enable-background="new 0 0 40 40" xml:space="preserve">
<g>
	<g>
		<g>
			<g>
				<path fill="#231815" d="M19.9,28.2c-0.1,0-0.3-0.1-0.4-0.1l-7.6-7.6c-0.2-0.2-0.2-0.5,0-0.7c1.2-1.2,3.1-1.5,4.6-0.8l4-4l0,0
					c-0.3-0.3-0.5-0.8-0.5-1.2s0.2-0.9,0.5-1.2l0.2-0.2c0.7-0.7,1.8-0.7,2.4,0l4.6,4.6c0.3,0.3,0.5,0.8,0.5,1.2S28,19,27.7,19.3
					l-0.2,0.2c-0.7,0.7-1.8,0.7-2.4,0l0,0l-4,4c0.7,1.5,0.4,3.4-0.8,4.6C20.1,28.2,20,28.2,19.9,28.2z M13,20.2l6.8,6.8
					c0.7-1,0.8-2.3,0.1-3.3c-0.1-0.2-0.1-0.4,0.1-0.6l4.7-4.7c0.2-0.2,0.5-0.2,0.7,0l0.4,0.4c0.3,0.3,0.8,0.3,1,0l0.2-0.2
					c0.1-0.1,0.2-0.3,0.2-0.5s-0.1-0.4-0.2-0.5L22.4,13c-0.3-0.3-0.8-0.3-1,0l-0.2,0.2c-0.1,0.1-0.2,0.3-0.2,0.5s0.1,0.4,0.2,0.5
					l0.4,0.4c0.2,0.2,0.2,0.5,0,0.7L17,19.9c-0.2,0.2-0.4,0.2-0.6,0.1C15.3,19.4,14,19.5,13,20.2z"/>
			</g>
			<g>
				<path fill="#231815" d="M16.4,24.3l-3.3,3.3c-0.1,0.1-0.2,0.1-0.4,0.1s-0.3,0-0.4-0.1c-0.2-0.2-0.2-0.5,0-0.7l3.3-3.3L16.4,24.3
					z"/>
			</g>
		</g>
	</g>
</g>
</svg>
