<?xml version="1.0" encoding="utf-8"?>
<!-- Generator: Adobe Illustrator 18.0.0, SVG Export Plug-In . SVG Version: 6.00 Build 0)  -->
<!DOCTYPE svg PUBLIC "-//W3C//DTD SVG 1.1//EN" "http://www.w3.org/Graphics/SVG/1.1/DTD/svg11.dtd">
<svg version="1.1" id="图层_1" xmlns="http://www.w3.org/2000/svg" xmlns:xlink="http://www.w3.org/1999/xlink" x="0px" y="0px"
	 viewBox="0 0 40 40" enable-background="new 0 0 40 40" xml:space="preserve">
<g>
	<g>
		<path fill="#231815" d="M23,28c-0.4,0-0.7-0.2-0.9-0.6L20,22.3l-2.4,2.1l0.4,1.2c0,0.1,0,0.1,0,0.2c0,0.6-0.5,1-1.1,1l0,0
			c-0.3,0-0.6-0.1-0.8-0.3l-2.6-2.6c-0.3-0.3-0.4-0.8-0.3-1.2c0.2-0.4,0.5-0.7,1-0.7c0.1,0,0.1,0,0.2,0l1.2,0.4l2.1-2.4l-5.1-2.1
			c-0.3-0.1-0.5-0.4-0.6-0.7s0-0.6,0.3-0.9l0.6-0.6c0.2-0.2,0.4-0.3,0.7-0.3l7.7,0.8l2.5-2.5c1-1,2.4-1.6,3.8-1.7
			c0.1,0,0.3,0,0.4,0.1c0.1,0.1,0.2,0.2,0.1,0.4c-0.1,1.4-0.7,2.8-1.7,3.8l-2.5,2.5l0.8,7.6c0,0.3-0.1,0.6-0.3,0.8l-0.6,0.6
			C23.5,27.9,23.2,28,23,28z M20,21.3c0.4,0,0.8,0.2,0.9,0.6l2.1,5l0.5-0.5l-0.8-7.5c0-0.3,0.1-0.6,0.3-0.8l2.5-2.5
			c0.7-0.7,1.2-1.6,1.4-2.5c-1,0.2-1.8,0.7-2.5,1.4L21.9,17c-0.2,0.2-0.4,0.3-0.7,0.3l-7.7-0.8L13,17.1l5.1,2
			c0.3,0.1,0.5,0.4,0.6,0.7c0.1,0.3,0,0.6-0.2,0.9l-2.3,2.7c-0.1,0.2-0.3,0.2-0.5,0.2L14.2,23c0,0,0,0,0,0.1c0,0,0,0.1,0,0.1
			l2.6,2.6c0.1,0,0.1,0,0.2,0l-0.4-1.4c-0.1-0.2,0-0.4,0.2-0.5l2.7-2.3C19.5,21.4,19.8,21.3,20,21.3z"/>
	</g>
</g>
</svg>
