<?xml version="1.0" encoding="utf-8"?>
<!-- Generator: Adobe Illustrator 18.0.0, SVG Export Plug-In . SVG Version: 6.00 Build 0)  -->
<!DOCTYPE svg PUBLIC "-//W3C//DTD SVG 1.1//EN" "http://www.w3.org/Graphics/SVG/1.1/DTD/svg11.dtd">
<svg version="1.1" id="图层_1" xmlns="http://www.w3.org/2000/svg" xmlns:xlink="http://www.w3.org/1999/xlink" x="0px" y="0px"
	 viewBox="0 0 40 40" enable-background="new 0 0 40 40" xml:space="preserve">
<g>
	<g>
		<g>
			<path fill="#231815" d="M20,28.5c-4.7,0-8.5-3.8-8.5-8.5s3.8-8.5,8.5-8.5s8.5,3.8,8.5,8.5S24.7,28.5,20,28.5z M20,12.5
				c-4.1,0-7.5,3.4-7.5,7.5s3.4,7.5,7.5,7.5s7.5-3.4,7.5-7.5S24.1,12.5,20,12.5z"/>
		</g>
		<g>
			<path fill="#231815" d="M20,14.5c-0.3,0-0.5-0.2-0.5-0.5v-2c0-0.3,0.2-0.5,0.5-0.5s0.5,0.2,0.5,0.5v2
				C20.5,14.3,20.3,14.5,20,14.5z"/>
		</g>
		<g>
			<path fill="#231815" d="M20.5,12v2c0,0.3-0.2,0.5-0.5,0.5s-0.5-0.2-0.5-0.5v-2H20.5z"/>
		</g>
		<g>
			<path fill="#231815" d="M14.7,14l1.4,1.4c0.2,0.2,0.2,0.5,0,0.7c-0.1,0.1-0.2,0.1-0.4,0.1s-0.3,0-0.4-0.1L14,14.7L14.7,14z"/>
		</g>
		<g>
			<path fill="#231815" d="M26,14.7l-1.4,1.4c-0.1,0.1-0.2,0.1-0.4,0.1s-0.3,0-0.4-0.1c-0.2-0.2-0.2-0.5,0-0.7l1.4-1.4L26,14.7z"/>
		</g>
		<g>
			<path fill="#231815" d="M12,19.5h2c0.3,0,0.5,0.2,0.5,0.5s-0.2,0.5-0.5,0.5h-2V19.5z"/>
		</g>
		<g>
			<path fill="#231815" d="M28,20.5h-2c-0.3,0-0.5-0.2-0.5-0.5s0.2-0.5,0.5-0.5h2V20.5z"/>
		</g>
		<g>
			<path fill="#231815" d="M19.5,20v-2c0-0.3,0.2-0.5,0.5-0.5s0.5,0.2,0.5,0.5v2H19.5z"/>
		</g>
		<g>
			<path fill="#231815" d="M20,22.5c-0.8,0-1.5-0.7-1.5-1.5s0.7-1.5,1.5-1.5s1.5,0.7,1.5,1.5S20.8,22.5,20,22.5z M20,20.5
				c-0.3,0-0.5,0.2-0.5,0.5s0.2,0.5,0.5,0.5s0.5-0.2,0.5-0.5S20.3,20.5,20,20.5z"/>
		</g>
	</g>
</g>
</svg>
