<?xml version="1.0" encoding="utf-8"?>
<!-- Generator: Adobe Illustrator 18.0.0, SVG Export Plug-In . SVG Version: 6.00 Build 0)  -->
<!DOCTYPE svg PUBLIC "-//W3C//DTD SVG 1.1//EN" "http://www.w3.org/Graphics/SVG/1.1/DTD/svg11.dtd">
<svg version="1.1" id="图层_1" xmlns="http://www.w3.org/2000/svg" xmlns:xlink="http://www.w3.org/1999/xlink" x="0px" y="0px"
	 viewBox="0 0 40 40" enable-background="new 0 0 40 40" xml:space="preserve">
<g>
	<g>
		<g>
			<path fill="#231815" d="M14.9,27.5c-0.9,0-1.8-0.3-2.5-1c-1.4-1.4-1.4-3.6,0-5L20,14c1.9-1.9,5.1-2,7.1,0c1.9,1.9,1.9,5.1,0,7.1
				l-5.4,5.4c-0.2,0.2-0.5,0.2-0.7,0s-0.2-0.5,0-0.7l5.4-5.4c1.6-1.6,1.6-4.1,0-5.7c-1.6-1.6-4.1-1.6-5.7,0l-7.5,7.5
				c-1,1-1,2.6,0,3.5c1,1,2.6,1,3.5,0l6.8-6.8c0.4-0.4,0.4-1,0-1.4c-0.4-0.4-1-0.4-1.4,0l-4.7,4.7c-0.2,0.2-0.5,0.2-0.7,0
				s-0.2-0.5,0-0.7l4.7-4.7c0.8-0.8,2-0.8,2.8,0c0.8,0.8,0.8,2,0,2.8l-6.8,6.8C16.7,27.1,15.8,27.5,14.9,27.5z"/>
		</g>
	</g>
</g>
</svg>
