<?xml version="1.0" encoding="utf-8"?>
<!-- Generator: Adobe Illustrator 18.0.0, SVG Export Plug-In . SVG Version: 6.00 Build 0)  -->
<!DOCTYPE svg PUBLIC "-//W3C//DTD SVG 1.1//EN" "http://www.w3.org/Graphics/SVG/1.1/DTD/svg11.dtd">
<svg version="1.1" id="图层_1" xmlns="http://www.w3.org/2000/svg" xmlns:xlink="http://www.w3.org/1999/xlink" x="0px" y="0px"
	 viewBox="0 0 40 40" enable-background="new 0 0 40 40" xml:space="preserve">
<g>
	<g>
		<g>
			<path fill="#231815" d="M15,28.5c-1.2,0-2.2-0.6-2.9-1.5c-0.9-1.4-0.7-3.2,0.5-4.4l5.4-5.4c-0.1-1.5,0.4-3,1.5-4.1
				c1.4-1.4,3.4-1.9,5.2-1.3c0.3,0.1,0.5,0.3,0.6,0.6s0,0.6-0.2,0.8l-2,2l0.4,1.4l1.4,0.4l2-2c0.4-0.4,1.3-0.2,1.5,0.4
				c0.5,1.9,0,3.9-1.3,5.2c-1,1-2.3,1.5-3.7,1.5l0,0c-0.1,0-0.3,0-0.4,0l-5.4,5.4C16.7,28.1,15.9,28.5,15,28.5z M13.4,23.3
				c-0.9,0.9-1.1,2.2-0.4,3.2c0.5,0.7,1.2,1.1,2.1,1.1c0.7,0,1.3-0.3,1.7-0.7l5.5-5.5l0.1-0.1c0.1-0.1,0.3-0.2,0.4-0.2
				c1.3,0.2,2.6-0.3,3.5-1.2c1.1-1.1,1.5-2.6,1.1-4l-1.8,1.8C25.4,17.9,25.2,18,25,18h-0.2l-1.5-0.4c-0.3-0.1-0.5-0.3-0.6-0.6
				l-0.4-1.5c-0.1-0.3,0-0.6,0.2-0.8l1.8-1.8c-1.4-0.4-3,0.1-4,1.1c-0.9,0.9-1.4,2.2-1.2,3.5c0,0.2-0.1,0.3-0.2,0.4L13.4,23.3z"/>
		</g>
	</g>
</g>
</svg>
