<?xml version="1.0" encoding="utf-8"?>
<!-- Generator: Adobe Illustrator 18.0.0, SVG Export Plug-In . SVG Version: 6.00 Build 0)  -->
<!DOCTYPE svg PUBLIC "-//W3C//DTD SVG 1.1//EN" "http://www.w3.org/Graphics/SVG/1.1/DTD/svg11.dtd">
<svg version="1.1" id="图层_1" xmlns="http://www.w3.org/2000/svg" xmlns:xlink="http://www.w3.org/1999/xlink" x="0px" y="0px"
	 viewBox="0 0 40 40" enable-background="new 0 0 40 40" xml:space="preserve">
<g>
	<g>
		<g>
			<path fill="#231815" d="M25.1,18.6c-0.1,0-0.3,0-0.4-0.1l-3.2-3.2c-0.1-0.1-0.1-0.2-0.1-0.4s0.1-0.3,0.1-0.4l1.3-1.3
				c0.8-0.8,2.1-0.8,2.8,0l1.1,1.1c0.8,0.8,0.8,2.1,0,2.8l-1.3,1.3C25.4,18.6,25.2,18.6,25.1,18.6z M22.6,14.9l2.5,2.5l1-1
				c0.4-0.4,0.4-1,0-1.4L25,13.9c-0.4-0.4-1-0.4-1.4,0L22.6,14.9z"/>
		</g>
		<g>
			<path fill="#231815" d="M12.5,28c-0.1,0-0.3-0.1-0.4-0.1C12,27.7,12,27.6,12,27.4l0.6-3.8c0-0.1,0.1-0.2,0.1-0.3l8.8-8.8
				c0.2-0.2,0.5-0.2,0.7,0l3.2,3.2c0.1,0.1,0.1,0.2,0.1,0.4s-0.1,0.3-0.1,0.4l-8.8,8.8c-0.1,0.1-0.2,0.1-0.3,0.1L12.5,28
				C12.6,28,12.5,28,12.5,28z M13.6,23.9l-0.5,3l3-0.5l8.3-8.3l-2.5-2.5L13.6,23.9z"/>
		</g>
		<g>
			<path fill="#231815" d="M17.2,26.5c-0.1,0-0.3,0-0.4-0.1l-3.2-3.2c-0.2-0.2-0.2-0.5,0-0.7s0.5-0.2,0.7,0l3.2,3.2
				c0.2,0.2,0.2,0.5,0,0.7C17.5,26.4,17.4,26.5,17.2,26.5z"/>
		</g>
	</g>
</g>
</svg>
