<?xml version="1.0" encoding="utf-8"?>
<!-- Generator: Adobe Illustrator 18.0.0, SVG Export Plug-In . SVG Version: 6.00 Build 0)  -->
<!DOCTYPE svg PUBLIC "-//W3C//DTD SVG 1.1//EN" "http://www.w3.org/Graphics/SVG/1.1/DTD/svg11.dtd">
<svg version="1.1" id="图层_1" xmlns="http://www.w3.org/2000/svg" xmlns:xlink="http://www.w3.org/1999/xlink" x="0px" y="0px"
	 viewBox="0 0 40 40" enable-background="new 0 0 40 40" xml:space="preserve">
<g>
	<g>
		<g>
			<path fill="#231815" d="M15.9,28.5c-0.3,0-0.5-0.1-0.8-0.2l-0.3-0.1c-1.3-0.5-1.9-2-1.3-3.3l0.7-1.6c0.3-0.6,0.7-1.1,1.4-1.3
				c0.6-0.3,1.3-0.3,1.9,0l1.4,0.6l4.5-10.8c0.1-0.3,0.4-0.4,0.7-0.3c0.3,0.1,0.4,0.4,0.3,0.7l-6.2,15C17.5,28,16.8,28.5,15.9,28.5z
				 M16.4,22.8c-0.2,0-0.4,0-0.6,0.1c-0.4,0.2-0.7,0.4-0.8,0.8l-0.7,1.6c-0.3,0.8,0,1.6,0.8,2l0.3,0.1c0.6,0.2,1.2,0,1.5-0.6
				l1.4-3.3L17,22.9C16.8,22.9,16.6,22.8,16.4,22.8z"/>
		</g>
		<g>
			<path fill="#231815" d="M24.1,28.5c-0.8,0-1.6-0.5-2-1.3l-6.2-15c-0.1-0.3,0-0.5,0.3-0.7c0.3-0.1,0.5,0,0.7,0.3l4.5,10.8l1.4-0.6
				c0.6-0.3,1.3-0.3,1.9,0c0.6,0.3,1.1,0.7,1.4,1.3l0.7,1.6c0.5,1.3-0.1,2.7-1.3,3.3l-0.3,0.1C24.6,28.4,24.3,28.5,24.1,28.5z
				 M21.7,23.5l1.4,3.3c0.1,0.3,0.3,0.5,0.6,0.6c0.3,0.1,0.6,0.1,0.9,0l0.3-0.1c0.8-0.3,1.1-1.2,0.8-2L25,23.7
				c-0.2-0.4-0.4-0.7-0.8-0.8c-0.4-0.2-0.8-0.2-1.1,0L21.7,23.5z"/>
		</g>
	</g>
</g>
</svg>
