<?xml version="1.0" encoding="utf-8"?>
<!-- Generator: Adobe Illustrator 18.0.0, SVG Export Plug-In . SVG Version: 6.00 Build 0)  -->
<!DOCTYPE svg PUBLIC "-//W3C//DTD SVG 1.1//EN" "http://www.w3.org/Graphics/SVG/1.1/DTD/svg11.dtd">
<svg version="1.1" id="图层_1" xmlns="http://www.w3.org/2000/svg" xmlns:xlink="http://www.w3.org/1999/xlink" x="0px" y="0px"
	 viewBox="0 0 40 40" enable-background="new 0 0 40 40" xml:space="preserve">
<g>
	<g>
		<g>
			<path fill="#231815" d="M27,18.5H13c-0.3,0-0.5-0.2-0.5-0.5v-2c0-0.8,0.7-1.5,1.5-1.5h12c0.8,0,1.5,0.7,1.5,1.5v2
				C27.5,18.2,27.3,18.5,27,18.5z M13.5,17.5h13V16c0-0.3-0.2-0.5-0.5-0.5H14c-0.3,0-0.5,0.2-0.5,0.5V17.5z"/>
		</g>
		<g>
			<path fill="#231815" d="M24,28.5h-8c-1.4,0-2.5-1.1-2.5-2.5v-8c0-0.3,0.2-0.5,0.5-0.5s0.5,0.2,0.5,0.5v8c0,0.8,0.7,1.5,1.5,1.5h8
				c0.8,0,1.5-0.7,1.5-1.5v-8c0-0.3,0.2-0.5,0.5-0.5s0.5,0.2,0.5,0.5v8C26.5,27.4,25.4,28.5,24,28.5z"/>
		</g>
		<g>
			<path fill="#231815" d="M22.5,15h-1v-2c0-0.3-0.2-0.5-0.5-0.5h-2c-0.3,0-0.5,0.2-0.5,0.5v2h-1v-2c0-0.8,0.7-1.5,1.5-1.5h2
				c0.8,0,1.5,0.7,1.5,1.5V15z"/>
		</g>
		<g>
			<path fill="#231815" d="M17,25.5c-0.3,0-0.5-0.2-0.5-0.5v-4c0-0.3,0.2-0.5,0.5-0.5s0.5,0.2,0.5,0.5v4
				C17.5,25.3,17.3,25.5,17,25.5z"/>
		</g>
		<g>
			<path fill="#231815" d="M20,25.5c-0.3,0-0.5-0.2-0.5-0.5v-4c0-0.3,0.2-0.5,0.5-0.5s0.5,0.2,0.5,0.5v4
				C20.5,25.3,20.3,25.5,20,25.5z"/>
		</g>
		<g>
			<path fill="#231815" d="M23,25.5c-0.3,0-0.5-0.2-0.5-0.5v-4c0-0.3,0.2-0.5,0.5-0.5s0.5,0.2,0.5,0.5v4
				C23.5,25.3,23.3,25.5,23,25.5z"/>
		</g>
	</g>
</g>
</svg>
