<?xml version="1.0" encoding="utf-8"?>
<!-- Generator: Adobe Illustrator 18.0.0, SVG Export Plug-In . SVG Version: 6.00 Build 0)  -->
<!DOCTYPE svg PUBLIC "-//W3C//DTD SVG 1.1//EN" "http://www.w3.org/Graphics/SVG/1.1/DTD/svg11.dtd">
<svg version="1.1" id="图层_1" xmlns="http://www.w3.org/2000/svg" xmlns:xlink="http://www.w3.org/1999/xlink" x="0px" y="0px"
	 viewBox="0 0 40 40" enable-background="new 0 0 40 40" xml:space="preserve">
<g>
	<g>
		<g>
			<g>
				<path fill="#231815" d="M28,28.5H12c-0.3,0-0.5-0.2-0.5-0.5V12c0-0.3,0.2-0.5,0.5-0.5s0.5,0.2,0.5,0.5v15.5H28
					c0.3,0,0.5,0.2,0.5,0.5S28.3,28.5,28,28.5z"/>
			</g>
			<g>
				<path fill="#231815" d="M12,22.5c-0.2,0-0.3-0.1-0.4-0.2c-0.2-0.2-0.1-0.5,0.1-0.7l3.9-2.9c0.2-0.1,0.4-0.1,0.6,0L20,21l6.6-6.2
					c0.2-0.2,0.5-0.2,0.7,0s0.2,0.5,0,0.7L20.4,22c-0.2,0.2-0.4,0.2-0.6,0.1L16,19.8l-3.6,2.7C12.2,22.5,12.1,22.5,12,22.5z"/>
			</g>
		</g>
		<g>
			<path fill="#231815" d="M16.4,28v-4.4h-1V28h-1v-4.9c0-0.3,0.2-0.5,0.5-0.5h2c0.3,0,0.5,0.2,0.5,0.5V28H16.4z"/>
		</g>
		<g>
			<path fill="#231815" d="M20.9,28v-2.7h-1V28h-1v-3.2c0-0.3,0.2-0.5,0.5-0.5h2c0.3,0,0.5,0.2,0.5,0.5V28H20.9z"/>
		</g>
		<g>
			<path fill="#231815" d="M25.4,28v-5.9h-1V28h-1v-6.4c0-0.3,0.2-0.5,0.5-0.5h2c0.3,0,0.5,0.2,0.5,0.5V28H25.4z"/>
		</g>
	</g>
</g>
</svg>
