<?xml version="1.0" encoding="utf-8"?>
<!-- Generator: Adobe Illustrator 18.0.0, SVG Export Plug-In . SVG Version: 6.00 Build 0)  -->
<!DOCTYPE svg PUBLIC "-//W3C//DTD SVG 1.1//EN" "http://www.w3.org/Graphics/SVG/1.1/DTD/svg11.dtd">
<svg version="1.1" id="图层_1" xmlns="http://www.w3.org/2000/svg" xmlns:xlink="http://www.w3.org/1999/xlink" x="0px" y="0px"
	 viewBox="0 0 40 40" enable-background="new 0 0 40 40" xml:space="preserve">
<g>
	<g>
		<g>
			<g>
				<path fill="#231815" d="M20,28.5c-0.6,0-1.3-0.1-1.9-0.2c-4.6-1-7.4-5.6-6.4-10.2c0.9-3.9,4.3-6.6,8.3-6.6
					c0.6,0,1.3,0.1,1.9,0.2c4.6,1,7.4,5.6,6.4,10.2C27.4,25.8,24,28.5,20,28.5z M20,12.5c-3.5,0-6.5,2.4-7.3,5.8
					c-0.9,4,1.6,8.1,5.7,9c0.5,0.1,1.1,0.2,1.7,0.2c3.5,0,6.5-2.4,7.3-5.8c0.9-4-1.6-8.1-5.7-9C21.1,12.6,20.5,12.5,20,12.5z"/>
			</g>
			<g>
				<path fill="#231815" d="M22.3,12.3l-1.6,6.9l6.4-2.2c0.3-0.1,0.5,0.1,0.6,0.3c0.1,0.3-0.1,0.5-0.3,0.6l-7.2,2.5
					c-0.1,0-0.1,0-0.2,0c-0.1,0-0.2,0-0.3-0.1c-0.1-0.1-0.2-0.3-0.2-0.5l1.8-7.8L22.3,12.3z"/>
			</g>
		</g>
		<g>
			<path fill="#231815" d="M20,20.5h-7.8c-0.3,0-0.5-0.2-0.5-0.5s0.2-0.5,0.5-0.5H20c0.3,0,0.5,0.2,0.5,0.5S20.3,20.5,20,20.5z"/>
		</g>
	</g>
</g>
</svg>
