<?xml version="1.0" encoding="utf-8"?>
<!-- Generator: Adobe Illustrator 18.0.0, SVG Export Plug-In . SVG Version: 6.00 Build 0)  -->
<!DOCTYPE svg PUBLIC "-//W3C//DTD SVG 1.1//EN" "http://www.w3.org/Graphics/SVG/1.1/DTD/svg11.dtd">
<svg version="1.1" id="图层_1" xmlns="http://www.w3.org/2000/svg" xmlns:xlink="http://www.w3.org/1999/xlink" x="0px" y="0px"
	 viewBox="0 0 40 40" enable-background="new 0 0 40 40" xml:space="preserve">
<g>
	<g>
		<g>
			<path fill="#231815" d="M19.5,28.4c-0.8,0-1.5-0.7-1.5-1.5v-6.7c0-0.1,0-0.2-0.1-0.3l-4-4.7c-0.2-0.3-0.4-0.6-0.4-1v-1.6
				c0-0.8,0.7-1.5,1.5-1.5h10c0.8,0,1.5,0.7,1.5,1.5l0,1.6c0,0.4-0.1,0.7-0.4,1l-4,4.7C22,19.9,22,20,22,20.1v6.2
				c0,0.6-0.3,1.1-0.8,1.3l-1,0.5C20,28.3,19.7,28.4,19.5,28.4z M15,12c-0.3,0-0.5,0.2-0.5,0.5v1.6c0,0.1,0,0.2,0.1,0.3l4,4.7
				c0.2,0.3,0.4,0.6,0.4,1v6.7c0,0.4,0.4,0.6,0.7,0.4l1-0.5c0.2-0.1,0.3-0.3,0.3-0.4v-6.2c0-0.4,0.1-0.7,0.4-1l4-4.7
				c0.1-0.1,0.1-0.2,0.1-0.3l0-1.6c0-0.3-0.2-0.5-0.5-0.5H15z"/>
		</g>
		<g>
			<rect x="14" y="14" fill="#231815" width="12.1" height="1"/>
		</g>
	</g>
</g>
</svg>
