<?xml version="1.0" encoding="utf-8"?>
<!-- Generator: Adobe Illustrator 18.0.0, SVG Export Plug-In . SVG Version: 6.00 Build 0)  -->
<!DOCTYPE svg PUBLIC "-//W3C//DTD SVG 1.1//EN" "http://www.w3.org/Graphics/SVG/1.1/DTD/svg11.dtd">
<svg version="1.1" id="图层_1" xmlns="http://www.w3.org/2000/svg" xmlns:xlink="http://www.w3.org/1999/xlink" x="0px" y="0px"
	 viewBox="0 0 40 40" enable-background="new 0 0 40 40" xml:space="preserve">
<g>
	<g>
		<g>
			<path fill="#231815" d="M26,28H14c-1.4,0-2.5-1.1-2.5-2.5v-8c0-1.4,1.1-2.5,2.5-2.5h12c1.4,0,2.5,1.1,2.5,2.5v8
				C28.5,26.9,27.4,28,26,28z M14,16c-0.8,0-1.5,0.7-1.5,1.5v8c0,0.8,0.7,1.5,1.5,1.5h12c0.8,0,1.5-0.7,1.5-1.5v-8
				c0-0.8-0.7-1.5-1.5-1.5H14z"/>
		</g>
		<g>
			<rect x="12" y="20" fill="#231815" width="16" height="1"/>
		</g>
		<g>
			<g>
				<path fill="#231815" d="M17,22c-0.3,0-0.5-0.2-0.5-0.5v-2c0-0.3,0.2-0.5,0.5-0.5s0.5,0.2,0.5,0.5v2C17.5,21.8,17.3,22,17,22z"/>
			</g>
			<g>
				<path fill="#231815" d="M23,22c-0.3,0-0.5-0.2-0.5-0.5v-2c0-0.3,0.2-0.5,0.5-0.5s0.5,0.2,0.5,0.5v2C23.5,21.8,23.3,22,23,22z"/>
			</g>
		</g>
		<g>
			<path fill="#231815" d="M16.5,15.5v-1.7c0-1,0.8-1.8,1.8-1.8h3.5c1,0,1.8,0.8,1.8,1.8v1.7h-1v-1.7c0-0.4-0.3-0.8-0.8-0.8h-3.5
				c-0.4,0-0.8,0.3-0.8,0.8v1.7H16.5z"/>
		</g>
	</g>
</g>
</svg>
