<?xml version="1.0" encoding="utf-8"?>
<!-- Generator: Adobe Illustrator 18.0.0, SVG Export Plug-In . SVG Version: 6.00 Build 0)  -->
<!DOCTYPE svg PUBLIC "-//W3C//DTD SVG 1.1//EN" "http://www.w3.org/Graphics/SVG/1.1/DTD/svg11.dtd">
<svg version="1.1" id="图层_1" xmlns="http://www.w3.org/2000/svg" xmlns:xlink="http://www.w3.org/1999/xlink" x="0px" y="0px"
	 viewBox="0 0 40 40" enable-background="new 0 0 40 40" xml:space="preserve">
<g>
	<g>
		<g>
			<g>
				<path fill="#231815" d="M19.5,20.5H15c-0.3,0-0.5-0.2-0.5-0.5s0.2-0.5,0.5-0.5h4.5c0.3,0,0.5,0.2,0.5,0.5S19.8,20.5,19.5,20.5z"
					/>
			</g>
			<g>
				<path fill="#231815" d="M19.5,18H15c-0.3,0-0.5-0.2-0.5-0.5S14.7,17,15,17h4.5c0.3,0,0.5,0.2,0.5,0.5S19.8,18,19.5,18z"/>
			</g>
			<g>
				<g>
					<path fill="#231815" d="M27,26H13c-0.8,0-1.5-0.7-1.5-1.5v-9c0-0.8,0.7-1.5,1.5-1.5h14c0.8,0,1.5,0.7,1.5,1.5v9
						C28.5,25.3,27.8,26,27,26z M13,15c-0.3,0-0.5,0.2-0.5,0.5v9c0,0.3,0.2,0.5,0.5,0.5h14c0.3,0,0.5-0.2,0.5-0.5v-9
						c0-0.3-0.2-0.5-0.5-0.5H13z"/>
				</g>
			</g>
			<g>
				<path fill="#231815" d="M25,23H15c-0.3,0-0.5-0.2-0.5-0.5S14.7,22,15,22h10c0.3,0,0.5,0.2,0.5,0.5S25.3,23,25,23z"/>
			</g>
		</g>
		<g>
			<path fill="#231815" d="M25,20.8h-2.6c-0.3,0-0.5-0.2-0.5-0.5v-3c0-0.3,0.2-0.5,0.5-0.5H25c0.3,0,0.5,0.2,0.5,0.5v3
				C25.5,20.6,25.3,20.8,25,20.8z M22.9,19.8h1.6v-2h-1.6V19.8z"/>
		</g>
	</g>
</g>
</svg>
