<?xml version="1.0" encoding="utf-8"?>
<!-- Generator: Adobe Illustrator 18.0.0, SVG Export Plug-In . SVG Version: 6.00 Build 0)  -->
<!DOCTYPE svg PUBLIC "-//W3C//DTD SVG 1.1//EN" "http://www.w3.org/Graphics/SVG/1.1/DTD/svg11.dtd">
<svg version="1.1" id="图层_1" xmlns="http://www.w3.org/2000/svg" xmlns:xlink="http://www.w3.org/1999/xlink" x="0px" y="0px"
	 viewBox="0 0 40 40" enable-background="new 0 0 40 40" xml:space="preserve">
<g>
	<g>
		<g>
			<path fill="#231815" d="M24,28.5h-8c-1.4,0-2.5-1.1-2.5-2.5V14c0-1.4,1.1-2.5,2.5-2.5h8c1.4,0,2.5,1.1,2.5,2.5v12
				C26.5,27.4,25.4,28.5,24,28.5z M16,12.5c-0.8,0-1.5,0.7-1.5,1.5v12c0,0.8,0.7,1.5,1.5,1.5h8c0.8,0,1.5-0.7,1.5-1.5V14
				c0-0.8-0.7-1.5-1.5-1.5H16z"/>
		</g>
		<g>
			<path fill="#231815" d="M19,17.5h-2c-0.3,0-0.5-0.2-0.5-0.5v-2c0-0.3,0.2-0.5,0.5-0.5h2c0.3,0,0.5,0.2,0.5,0.5v2
				C19.5,17.3,19.3,17.5,19,17.5z M17.5,16.5h1v-1h-1V16.5z"/>
		</g>
		<g>
			<path fill="#231815" d="M23,19.5h-6c-0.3,0-0.5-0.2-0.5-0.5s0.2-0.5,0.5-0.5h6c0.3,0,0.5,0.2,0.5,0.5S23.3,19.5,23,19.5z"/>
		</g>
		<g>
			<path fill="#231815" d="M23,22.5h-6c-0.3,0-0.5-0.2-0.5-0.5s0.2-0.5,0.5-0.5h6c0.3,0,0.5,0.2,0.5,0.5S23.3,22.5,23,22.5z"/>
		</g>
		<g>
			<path fill="#231815" d="M23,25.5h-6c-0.3,0-0.5-0.2-0.5-0.5s0.2-0.5,0.5-0.5h6c0.3,0,0.5,0.2,0.5,0.5S23.3,25.5,23,25.5z"/>
		</g>
		<g>
			<path fill="#231815" d="M23,16.5h-2c-0.3,0-0.5-0.2-0.5-0.5s0.2-0.5,0.5-0.5h2c0.3,0,0.5,0.2,0.5,0.5S23.3,16.5,23,16.5z"/>
		</g>
	</g>
</g>
</svg>
