<?xml version="1.0" encoding="utf-8"?>
<!-- Generator: Adobe Illustrator 18.0.0, SVG Export Plug-In . SVG Version: 6.00 Build 0)  -->
<!DOCTYPE svg PUBLIC "-//W3C//DTD SVG 1.1//EN" "http://www.w3.org/Graphics/SVG/1.1/DTD/svg11.dtd">
<svg version="1.1" id="图层_1" xmlns="http://www.w3.org/2000/svg" xmlns:xlink="http://www.w3.org/1999/xlink" x="0px" y="0px"
	 viewBox="0 0 40 40" enable-background="new 0 0 40 40" xml:space="preserve">
<g>
	<g>
		<g>
			<path fill="#231815" d="M20,23.7c-1.7,0-3-1.3-3-3s1.3-3,3-3s3,1.3,3,3S21.7,23.7,20,23.7z M20,18.7c-1.1,0-2,0.9-2,2s0.9,2,2,2
				s2-0.9,2-2S21.1,18.7,20,18.7z"/>
		</g>
		<g>
			<path fill="#231815" d="M27,26.7H13c-0.8,0-1.5-0.7-1.5-1.5V17c0-0.8,0.7-1.5,1.5-1.5h2.4c0.3,0,0.5-0.2,0.5-0.5v-0.2
				c0-0.8,0.7-1.5,1.5-1.5h5.3c0.8,0,1.5,0.7,1.5,1.5V15c0,0.3,0.2,0.5,0.5,0.5H27c0.8,0,1.5,0.7,1.5,1.5v8.2
				C28.5,26,27.8,26.7,27,26.7z M13,16.5c-0.3,0-0.5,0.2-0.5,0.5v8.2c0,0.3,0.2,0.5,0.5,0.5h14c0.3,0,0.5-0.2,0.5-0.5V17
				c0-0.3-0.2-0.5-0.5-0.5h-2.4c-0.8,0-1.5-0.7-1.5-1.5v-0.2c0-0.3-0.2-0.5-0.5-0.5h-5.3c-0.3,0-0.5,0.2-0.5,0.5V15
				c0,0.8-0.7,1.5-1.5,1.5H13z"/>
		</g>
	</g>
</g>
</svg>
