<?xml version="1.0" encoding="utf-8"?>
<!-- Generator: Adobe Illustrator 18.0.0, SVG Export Plug-In . SVG Version: 6.00 Build 0)  -->
<!DOCTYPE svg PUBLIC "-//W3C//DTD SVG 1.1//EN" "http://www.w3.org/Graphics/SVG/1.1/DTD/svg11.dtd">
<svg version="1.1" id="图层_1" xmlns="http://www.w3.org/2000/svg" xmlns:xlink="http://www.w3.org/1999/xlink" x="0px" y="0px"
	 viewBox="0 0 40 40" enable-background="new 0 0 40 40" xml:space="preserve">
<g>
	<g>
		<g>
			<path fill="#231815" d="M18.5,24c-3,0-5.5-2.5-5.5-5.5s2.5-5.5,5.5-5.5s5.5,2.5,5.5,5.5S21.5,24,18.5,24z M18.5,14
				C16,14,14,16,14,18.5s2,4.5,4.5,4.5s4.5-2,4.5-4.5S21,14,18.5,14z"/>
		</g>
		<g>
			<path fill="#231815" d="M22.5,21.8l4.4,4.4c0.2,0.2,0.2,0.5,0,0.7C26.8,27,26.6,27,26.5,27s-0.3,0-0.4-0.1l-4.4-4.4L22.5,21.8z"
				/>
		</g>
	</g>
</g>
</svg>
