<?xml version="1.0" encoding="utf-8"?>
<!-- Generator: Adobe Illustrator 18.0.0, SVG Export Plug-In . SVG Version: 6.00 Build 0)  -->
<!DOCTYPE svg PUBLIC "-//W3C//DTD SVG 1.1//EN" "http://www.w3.org/Graphics/SVG/1.1/DTD/svg11.dtd">
<svg version="1.1" id="图层_1" xmlns="http://www.w3.org/2000/svg" xmlns:xlink="http://www.w3.org/1999/xlink" x="0px" y="0px"
	 viewBox="0 0 40 40" enable-background="new 0 0 40 40" xml:space="preserve">
<g>
	<g>
		<g>
			<path fill="#231815" d="M25.9,28.2H14.1c-0.9,0-1.6-0.7-1.6-1.6v-6.8c0-0.9,0.7-1.6,1.6-1.6h11.8c0.9,0,1.6,0.7,1.6,1.6v6.8
				C27.5,27.5,26.8,28.2,25.9,28.2z M14.1,19.2c-0.3,0-0.6,0.3-0.6,0.6v6.8c0,0.3,0.3,0.6,0.6,0.6h11.8c0.3,0,0.6-0.3,0.6-0.6v-6.8
				c0-0.3-0.3-0.6-0.6-0.6H14.1z"/>
		</g>
		<g>
			<path fill="#231815" d="M23.5,18.7v-2.3c0-1.9-1.6-3.5-3.5-3.5s-3.5,1.6-3.5,3.5v2.3h-1v-2.3c0-2.5,2-4.5,4.5-4.5s4.5,2,4.5,4.5
				v2.3H23.5z"/>
		</g>
		<g>
			<g>
				<path fill="#231815" d="M20,24.8c-0.3,0-0.5-0.2-0.5-0.5V22c0-0.3,0.2-0.5,0.5-0.5s0.5,0.2,0.5,0.5v2.3
					C20.5,24.6,20.3,24.8,20,24.8z"/>
			</g>
			<g>
				<path fill="#231815" d="M20,25.3c-0.3,0-0.5-0.1-0.7-0.3c-0.2-0.2-0.3-0.4-0.3-0.7c0-0.3,0.1-0.5,0.3-0.7c0.4-0.4,1-0.4,1.4,0
					c0.2,0.2,0.3,0.4,0.3,0.7c0,0.3-0.1,0.5-0.3,0.7C20.5,25.2,20.3,25.3,20,25.3z"/>
			</g>
		</g>
	</g>
</g>
</svg>
