<?xml version="1.0" encoding="utf-8"?>
<!-- Generator: Adobe Illustrator 18.0.0, SVG Export Plug-In . SVG Version: 6.00 Build 0)  -->
<!DOCTYPE svg PUBLIC "-//W3C//DTD SVG 1.1//EN" "http://www.w3.org/Graphics/SVG/1.1/DTD/svg11.dtd">
<svg version="1.1" id="图层_1" xmlns="http://www.w3.org/2000/svg" xmlns:xlink="http://www.w3.org/1999/xlink" x="0px" y="0px"
	 viewBox="0 0 40 40" enable-background="new 0 0 40 40" xml:space="preserve">
<g>
	<g>
		<g>
			<path fill="#231815" d="M16.9,28.5c-1.7,0-3.3-0.9-4.3-2.3c-1.1-1.7-1.1-4,0.2-5.7c1-1.3,2.4-2.1,4.1-2.1c0.6,0,1.3,0.1,1.9,0.4
				l2.5-2.5l-1.1-1.1c-0.6-0.6-0.6-1.5,0-2l0.8-0.8c0.5-0.5,1.5-0.5,2,0l1.1,1.1l0.4-0.4c0.5-0.5,1.5-0.5,2,0l0.8,0.8
				c0.6,0.6,0.6,1.5,0,2l-5.7,5.7c0.7,1.9,0.3,4-1.1,5.4C19.5,28,18.3,28.5,16.9,28.5z M16.9,19.4c-1.3,0-2.5,0.6-3.3,1.7
				c-1,1.3-1,3.2-0.1,4.6c0.8,1.2,2,1.9,3.4,1.9c1.1,0,2.1-0.4,2.9-1.2c1.2-1.2,1.5-3.1,0.8-4.6c-0.1-0.2-0.1-0.4,0.1-0.6l6-6
				c0.2-0.2,0.2-0.5,0-0.6l-0.8-0.8c-0.2-0.2-0.5-0.2-0.6,0l-0.8,0.8c-0.2,0.2-0.5,0.2-0.7,0L22.2,13c-0.2-0.2-0.5-0.2-0.6,0
				l-0.8,0.8c-0.2,0.2-0.2,0.5,0,0.6l1.5,1.5c0.1,0.1,0.1,0.2,0.1,0.4s-0.1,0.3-0.1,0.4l-3.1,3.1c-0.1,0.2-0.4,0.2-0.6,0.1
				C18.1,19.5,17.5,19.4,16.9,19.4z"/>
		</g>
		<g>
			<path fill="#231815" d="M16.9,25.4c-0.5,0-1-0.2-1.4-0.6c-0.4-0.4-0.6-0.9-0.6-1.4c0-0.5,0.2-1,0.6-1.4c0.8-0.8,2.1-0.8,2.8,0
				c0.4,0.4,0.6,0.9,0.6,1.4c0,0.5-0.2,1-0.6,1.4S17.4,25.4,16.9,25.4z M16.9,22.4c-0.3,0-0.5,0.1-0.7,0.3c-0.2,0.2-0.3,0.4-0.3,0.7
				c0,0.3,0.1,0.5,0.3,0.7c0.4,0.4,1,0.4,1.4,0c0.2-0.2,0.3-0.4,0.3-0.7c0-0.3-0.1-0.5-0.3-0.7S17.2,22.4,16.9,22.4z"/>
		</g>
	</g>
</g>
</svg>
