<?xml version="1.0" encoding="utf-8"?>
<!-- Generator: Adobe Illustrator 18.0.0, SVG Export Plug-In . SVG Version: 6.00 Build 0)  -->
<!DOCTYPE svg PUBLIC "-//W3C//DTD SVG 1.1//EN" "http://www.w3.org/Graphics/SVG/1.1/DTD/svg11.dtd">
<svg version="1.1" id="图层_1" xmlns="http://www.w3.org/2000/svg" xmlns:xlink="http://www.w3.org/1999/xlink" x="0px" y="0px"
	 viewBox="0 0 40 40" enable-background="new 0 0 40 40" xml:space="preserve">
<g>
	<g>
		<g>
			<path d="M26,27.4H14c-0.8,0-1.5-0.7-1.5-1.5v-5c0-0.3-0.2-0.5-0.5-0.5h-1c-0.2,0-0.4-0.1-0.5-0.3c-0.1-0.2,0-0.4,0.2-0.6l8.4-6.5
				c0.5-0.4,1.3-0.4,1.8,0l8.4,6.5c0.2,0.1,0.2,0.4,0.2,0.6c-0.1,0.2-0.3,0.3-0.5,0.3h-1c-0.3,0-0.5,0.2-0.5,0.5v5
				C27.5,26.7,26.8,27.4,26,27.4z M12.4,19.4c0.6,0.2,1.1,0.8,1.1,1.4v5c0,0.3,0.2,0.5,0.5,0.5h12c0.3,0,0.5-0.2,0.5-0.5v-5
				c0-0.7,0.5-1.3,1.1-1.4l-7.3-5.7c-0.2-0.1-0.4-0.1-0.6,0L12.4,19.4z"/>
		</g>
		<g>
			<path d="M23.5,26.9v-4c0-0.8-0.7-1.5-1.5-1.5h-4c-0.8,0-1.5,0.7-1.5,1.5v4h-1v-4c0-1.4,1.1-2.5,2.5-2.5h4c1.4,0,2.5,1.1,2.5,2.5
				v4H23.5z"/>
		</g>
		<g>
			<rect x="16" y="22.4" width="8" height="1"/>
		</g>
		<g>
			<rect x="16" y="24.4" width="8" height="1"/>
		</g>
	</g>
</g>
</svg>
