<?xml version="1.0" encoding="utf-8"?>
<!-- Generator: Adobe Illustrator 18.0.0, SVG Export Plug-In . SVG Version: 6.00 Build 0)  -->
<!DOCTYPE svg PUBLIC "-//W3C//DTD SVG 1.1//EN" "http://www.w3.org/Graphics/SVG/1.1/DTD/svg11.dtd">
<svg version="1.1" id="图层_1" xmlns="http://www.w3.org/2000/svg" xmlns:xlink="http://www.w3.org/1999/xlink" x="0px" y="0px"
	 viewBox="0 0 40 40" enable-background="new 0 0 40 40" xml:space="preserve">
<g>
	<g>
		<g>
			<path d="M20.2,20.6c-2.2,0-4-2-4-4.5s1.8-4.5,4-4.5s4,2,4,4.5S22.4,20.6,20.2,20.6z M20.2,12.6c-1.7,0-3,1.6-3,3.5s1.3,3.5,3,3.5
				s3-1.6,3-3.5S21.9,12.6,20.2,12.6z"/>
		</g>
		<g>
			<path d="M26.2,27.4c-0.3,0-0.5-0.2-0.5-0.5v-3.4c0-1.9-1.5-3.4-3.4-3.4H22c-0.3,0-0.5-0.2-0.5-0.5s0.2-0.5,0.5-0.5h0.4
				c2.4,0,4.4,2,4.4,4.4v3.4C26.7,27.2,26.5,27.4,26.2,27.4z"/>
		</g>
		<g>
			<path d="M14.2,27.4c-0.3,0-0.5-0.2-0.5-0.5v-3.4c0-2.4,2-4.4,4.4-4.4h0.4c0.3,0,0.5,0.2,0.5,0.5s-0.2,0.5-0.5,0.5h-0.4
				c-1.9,0-3.4,1.5-3.4,3.4v3.4C14.7,27.2,14.5,27.4,14.2,27.4z"/>
		</g>
	</g>
</g>
</svg>
