<?xml version="1.0" encoding="utf-8"?>
<!-- Generator: Adobe Illustrator 18.0.0, SVG Export Plug-In . SVG Version: 6.00 Build 0)  -->
<!DOCTYPE svg PUBLIC "-//W3C//DTD SVG 1.1//EN" "http://www.w3.org/Graphics/SVG/1.1/DTD/svg11.dtd">
<svg version="1.1" id="图层_1" xmlns="http://www.w3.org/2000/svg" xmlns:xlink="http://www.w3.org/1999/xlink" x="0px" y="0px"
	 viewBox="0 0 40 40" enable-background="new 0 0 40 40" xml:space="preserve">
<g>
	<g>
		<g>
			<g>
				<path d="M20.4,22.4h-0.7c-0.6,0-1.1-0.4-1.3-0.9l-0.2-0.7c-0.1-0.2,0-0.5,0.1-0.7s0.4-0.3,0.6-0.3h2.3c0.2,0,0.5,0.1,0.6,0.3
					s0.2,0.5,0.1,0.7l-0.2,0.7C21.4,22.1,20.9,22.4,20.4,22.4z M19.2,20.8l0.1,0.4c0,0.1,0.2,0.2,0.3,0.2h0.7c0.1,0,0.3-0.1,0.3-0.2
					l0.1-0.4H19.2z"/>
			</g>
			<g>
				<path d="M20.9,21.8l1,4.4c0,0.2,0,0.4-0.2,0.5l-1.4,0.9c-0.1,0.1-0.2,0.1-0.3,0.1s-0.2,0-0.3-0.1l-1.4-0.9
					c-0.2-0.1-0.3-0.3-0.2-0.5l1-4.4H20.9z M19.2,26.2l0.8,0.6l0.8-0.6L20,22.6L19.2,26.2z"/>
			</g>
		</g>
		<g>
			<g>
				<path d="M20,20.6c-2.2,0-4-2-4-4.5s1.8-4.5,4-4.5s4,2,4,4.5S22.2,20.6,20,20.6z M20,12.6c-1.7,0-3,1.6-3,3.5s1.3,3.5,3,3.5
					s3-1.6,3-3.5S21.7,12.6,20,12.6z"/>
			</g>
			<g>
				<path d="M26,27.4c-0.3,0-0.5-0.2-0.5-0.5v-3.4c0-1.9-1.5-3.4-3.4-3.4h-0.4c-0.3,0-0.5-0.2-0.5-0.5s0.2-0.5,0.5-0.5h0.4
					c2.4,0,4.4,2,4.4,4.4v3.4C26.5,27.2,26.3,27.4,26,27.4z"/>
			</g>
			<g>
				<path d="M14,27.4c-0.3,0-0.5-0.2-0.5-0.5v-3.4c0-2.4,2-4.4,4.4-4.4h0.4c0.3,0,0.5,0.2,0.5,0.5s-0.2,0.5-0.5,0.5h-0.4
					c-1.9,0-3.4,1.5-3.4,3.4v3.4C14.5,27.2,14.3,27.4,14,27.4z"/>
			</g>
		</g>
	</g>
</g>
</svg>
