<?xml version="1.0" encoding="utf-8"?>
<!-- Generator: Adobe Illustrator 18.0.0, SVG Export Plug-In . SVG Version: 6.00 Build 0)  -->
<!DOCTYPE svg PUBLIC "-//W3C//DTD SVG 1.1//EN" "http://www.w3.org/Graphics/SVG/1.1/DTD/svg11.dtd">
<svg version="1.1" id="图层_1" xmlns="http://www.w3.org/2000/svg" xmlns:xlink="http://www.w3.org/1999/xlink" x="0px" y="0px"
	 viewBox="0 0 40 40" enable-background="new 0 0 40 40" xml:space="preserve">
<g>
	<g>
		<g>
			<g>
				<g>
					<path d="M20,21.1c-2.2,0-4-2-4-4.5s1.8-4.5,4-4.5s4,2,4,4.5S22.2,21.1,20,21.1z M20,13.1c-1.7,0-3,1.6-3,3.5s1.3,3.5,3,3.5
						s3-1.6,3-3.5S21.7,13.1,20,13.1z"/>
				</g>
				<g>
					<path d="M26,27.9c-0.3,0-0.5-0.2-0.5-0.5V24c0-1.9-1.5-3.4-3.4-3.4h-0.4c-0.3,0-0.5-0.2-0.5-0.5s0.2-0.5,0.5-0.5h0.4
						c2.4,0,4.4,2,4.4,4.4v3.4C26.5,27.7,26.3,27.9,26,27.9z"/>
				</g>
				<g>
					<path d="M14,27.9c-0.3,0-0.5-0.2-0.5-0.5V24c0-2.4,2-4.4,4.4-4.4h0.4c0.3,0,0.5,0.2,0.5,0.5s-0.2,0.5-0.5,0.5h-0.4
						c-1.9,0-3.4,1.5-3.4,3.4v3.4C14.5,27.7,14.3,27.9,14,27.9z"/>
				</g>
			</g>
			<g>
				<path d="M17.9,19.9l2.1,3.3l2.1-3.3l0.8,0.5l-2.5,4c-0.1,0.1-0.3,0.2-0.4,0.2s-0.3-0.1-0.4-0.2l-2.5-4L17.9,19.9z"/>
			</g>
			<g>
				<path d="M16.6,15h8.9c0.3,0,0.5,0.2,0.5,0.5S25.8,16,25.6,16h-8.9V15z"/>
			</g>
		</g>
	</g>
</g>
</svg>
