<?xml version="1.0" encoding="utf-8"?>
<!-- Generator: Adobe Illustrator 18.0.0, SVG Export Plug-In . SVG Version: 6.00 Build 0)  -->
<!DOCTYPE svg PUBLIC "-//W3C//DTD SVG 1.1//EN" "http://www.w3.org/Graphics/SVG/1.1/DTD/svg11.dtd">
<svg version="1.1" id="图层_1" xmlns="http://www.w3.org/2000/svg" xmlns:xlink="http://www.w3.org/1999/xlink" x="0px" y="0px"
	 viewBox="0 0 40 40" enable-background="new 0 0 40 40" xml:space="preserve">
<g>
	<g>
		<g>
			<g>
				<g>
					<path d="M19.5,17.9l-2-5.4h-1.7l2.8,7.4H19c0.3,0,0.5,0.2,0.5,0.5s-0.2,0.5-0.5,0.5h-0.8c-0.2,0-0.4-0.1-0.5-0.3l-3.2-8.4
						c-0.1-0.2,0-0.3,0.1-0.5c0.1-0.1,0.2-0.2,0.4-0.2h2.8c0.2,0,0.4,0.1,0.5,0.3l2.1,5.7L19.5,17.9z"/>
				</g>
				<g>
					<path d="M18.6,20.7c-0.1-0.1-0.1-0.3-0.1-0.5l3.2-8.4c0.1-0.2,0.3-0.3,0.5-0.3h2.8c0.2,0,0.3,0.1,0.4,0.2
						c0.1,0.1,0.1,0.3,0.1,0.5l-3.2,8.4L18.6,20.7z M19.7,19.9h1.7l2.8-7.4h-1.7L19.7,19.9z"/>
				</g>
			</g>
			<g>
				<path d="M20,28.5c-2.4,0-4.3-1.9-4.3-4.3s1.9-4.3,4.3-4.3s4.3,1.9,4.3,4.3S22.4,28.5,20,28.5z M20,20.9c-1.8,0-3.3,1.5-3.3,3.3
					s1.5,3.3,3.3,3.3s3.3-1.5,3.3-3.3S21.8,20.9,20,20.9z"/>
			</g>
		</g>
	</g>
</g>
</svg>
