<?xml version="1.0" encoding="utf-8"?>
<!-- Generator: Adobe Illustrator 18.0.0, SVG Export Plug-In . SVG Version: 6.00 Build 0)  -->
<!DOCTYPE svg PUBLIC "-//W3C//DTD SVG 1.1//EN" "http://www.w3.org/Graphics/SVG/1.1/DTD/svg11.dtd">
<svg version="1.1" id="图层_1" xmlns="http://www.w3.org/2000/svg" xmlns:xlink="http://www.w3.org/1999/xlink" x="0px" y="0px"
	 viewBox="0 0 40 40" enable-background="new 0 0 40 40" xml:space="preserve">
<g>
	<g>
		<g>
			<g>
				<path d="M22.4,23c-0.1,0-0.1,0-0.2,0L20,22.1L17.8,23c-0.2,0.1-0.5,0-0.6-0.3l-1-2.1l-2.1-1c-0.2-0.1-0.4-0.4-0.3-0.6l0.8-2.2
					l-0.8-2.2c-0.1-0.2,0-0.5,0.3-0.6l2.1-1l1-2.1c0.1-0.2,0.4-0.4,0.6-0.3l2.2,0.8l2.2-0.8c0.2-0.1,0.5,0,0.6,0.3l1,2.1l2.1,1
					c0.2,0.1,0.4,0.4,0.3,0.6l-0.8,2.2l0.8,2.2c0.1,0.2,0,0.5-0.3,0.6l-2.1,1l-1,2.1C22.7,22.9,22.5,23,22.4,23z M20,21.1
					c0.1,0,0.1,0,0.2,0l1.9,0.7L23,20c0-0.1,0.1-0.2,0.2-0.2l1.9-0.9L24.4,17c0-0.1,0-0.2,0-0.3l0.7-1.9l-1.9-0.9
					c-0.1,0-0.2-0.1-0.2-0.2l-0.9-1.9l-1.9,0.7c-0.1,0-0.2,0-0.3,0l-1.9-0.7L17,13.6c0,0.1-0.1,0.2-0.2,0.2l-1.9,0.9l0.7,1.9
					c0,0.1,0,0.2,0,0.3l-0.7,1.9l1.9,0.9c0.1,0,0.2,0.1,0.2,0.2l0.9,1.9l1.9-0.7C19.9,21.1,19.9,21.1,20,21.1z"/>
			</g>
			<g>
				<g>
					<path d="M17,20.6l-2.2,6l1.9-0.3c0.2,0,0.4,0,0.5,0.2l1.2,1.5l2.2-6l0.9,0.3l-2.5,6.8c-0.1,0.2-0.2,0.3-0.4,0.3
						c0,0-0.1,0-0.1,0c-0.2,0-0.3-0.1-0.4-0.2l-1.5-1.9l-2.4,0.4c-0.2,0-0.4,0-0.5-0.2c-0.1-0.1-0.1-0.3-0.1-0.5l2.5-6.8L17,20.6z"
						/>
				</g>
				<g>
					<path d="M23.9,20.3l2.6,6.8c0.1,0.2,0,0.4-0.1,0.5c-0.1,0.1-0.3,0.2-0.5,0.2l-2.4-0.4l-1.5,1.9c-0.1,0.1-0.2,0.2-0.4,0.2
						c0,0-0.1,0-0.1,0c-0.2,0-0.3-0.1-0.4-0.3l-1.6-4.2l0.9-0.4l1.2,3.3l1.2-1.5c0.1-0.1,0.3-0.2,0.5-0.2l1.9,0.3l-2.2-6L23.9,20.3z
						"/>
				</g>
			</g>
		</g>
	</g>
</g>
</svg>
