<?xml version="1.0" encoding="utf-8"?>
<!-- Generator: Adobe Illustrator 18.0.0, SVG Export Plug-In . SVG Version: 6.00 Build 0)  -->
<!DOCTYPE svg PUBLIC "-//W3C//DTD SVG 1.1//EN" "http://www.w3.org/Graphics/SVG/1.1/DTD/svg11.dtd">
<svg version="1.1" id="图层_1" xmlns="http://www.w3.org/2000/svg" xmlns:xlink="http://www.w3.org/1999/xlink" x="0px" y="0px"
	 viewBox="0 0 40 40" enable-background="new 0 0 40 40" xml:space="preserve">
<g>
	<g>
		<g>
			<path d="M20,27.2c-0.2,0-0.4-0.1-0.6-0.2l-7.8-7.8c-0.2-0.2-0.2-0.5,0-0.7l3.8-4.8c0.1-0.1,0.2-0.2,0.4-0.2h8.5
				c0.2,0,0.3,0.1,0.4,0.2l3.8,4.8c0.2,0.2,0.1,0.5,0,0.7L20.6,27C20.4,27.2,20.2,27.2,20,27.2z M12.7,18.8l7.3,7.3l7.3-7.3L24,14.6
				h-8L12.7,18.8z"/>
		</g>
		<g>
			<rect x="12" y="18.4" width="16" height="1"/>
		</g>
		<g>
			<path d="M19.2,14.3L17.9,19l2.1,6.3l2.1-6.3l-1.3-4.7l1-0.3l1.4,4.9c0,0.1,0,0.2,0,0.3l-2.3,7c-0.1,0.3-0.4,0.6-0.8,0.6
				s-0.7-0.2-0.8-0.6l-2.3-7c0-0.1,0-0.2,0-0.3l1.4-4.9L19.2,14.3z"/>
		</g>
	</g>
</g>
</svg>
