<?xml version="1.0" encoding="utf-8"?>
<!-- Generator: Adobe Illustrator 18.0.0, SVG Export Plug-In . SVG Version: 6.00 Build 0)  -->
<!DOCTYPE svg PUBLIC "-//W3C//DTD SVG 1.1//EN" "http://www.w3.org/Graphics/SVG/1.1/DTD/svg11.dtd">
<svg version="1.1" id="图层_1" xmlns="http://www.w3.org/2000/svg" xmlns:xlink="http://www.w3.org/1999/xlink" x="0px" y="0px"
	 viewBox="0 0 40 40" enable-background="new 0 0 40 40" xml:space="preserve">
<g>
	<g>
		<g>
			<g>
				<path d="M25.3,26.4H14.8c-0.8,0-1.5-0.6-1.5-1.4l-0.7-6.3c0-0.2,0.1-0.4,0.3-0.5c0.2-0.1,0.5,0,0.6,0.2c0.9,1.3,2.2,2.8,2.7,2.8
					c0.6,0,2.2-2.9,3.3-6c0.1-0.4,0.8-0.4,0.9,0c1.1,3.2,2.7,6,3.3,6l0,0c0.5,0,1.8-1.4,2.8-2.8c0.1-0.2,0.4-0.3,0.6-0.2
					c0.2,0.1,0.3,0.3,0.3,0.5L26.8,25C26.7,25.8,26,26.4,25.3,26.4z M13.7,20.4l0.5,4.5c0,0.3,0.3,0.5,0.5,0.5h10.5
					c0.3,0,0.5-0.2,0.5-0.5l0.5-4.5c-0.7,0.9-1.7,1.8-2.5,1.8c-1.4-0.1-3-3.4-3.8-5.5c-0.8,2.1-2.4,5.3-3.7,5.5c0,0,0,0,0,0
					C15.5,22.2,14.5,21.3,13.7,20.4z"/>
			</g>
			<g>
				<circle cx="13" cy="18.7" r="1"/>
			</g>
			<g>
				<circle cx="20" cy="14.6" r="1"/>
			</g>
			<g>
				<circle cx="27" cy="18.7" r="1"/>
			</g>
		</g>
		<g>
			<circle cx="20" cy="23.1" r="1"/>
		</g>
	</g>
</g>
</svg>
