<?xml version="1.0" encoding="utf-8"?>
<!-- Generator: Adobe Illustrator 18.0.0, SVG Export Plug-In . SVG Version: 6.00 Build 0)  -->
<!DOCTYPE svg PUBLIC "-//W3C//DTD SVG 1.1//EN" "http://www.w3.org/Graphics/SVG/1.1/DTD/svg11.dtd">
<svg version="1.1" id="图层_1" xmlns="http://www.w3.org/2000/svg" xmlns:xlink="http://www.w3.org/1999/xlink" x="0px" y="0px"
	 viewBox="0 0 40 40" enable-background="new 0 0 40 40" xml:space="preserve">
<g>
	<g>
		<g>
			<g>
				<path d="M11.7,24.5c-0.8,0-1.5-0.7-1.5-1.5v-1.9c0-0.2,0-0.3,0.1-0.5l1.2-3c0.5-1.3,1.8-2.2,3.3-2.2h2l-0.5,1h-1.5
					c-1,0-1.9,0.6-2.3,1.6l-1.2,3l0,1.9c0,0.3,0.2,0.5,0.5,0.5V24.5z"/>
			</g>
			<g>
				<path d="M13.7,26.5c-1.4,0-2.5-1.1-2.5-2.5s1.1-2.5,2.5-2.5s2.5,1.1,2.5,2.5S15.1,26.5,13.7,26.5z M13.7,22.5
					c-0.8,0-1.5,0.7-1.5,1.5s0.7,1.5,1.5,1.5s1.5-0.7,1.5-1.5S14.5,22.5,13.7,22.5z"/>
			</g>
			<g>
				<path d="M26.7,23.5h1c0.3,0,0.5-0.2,0.5-0.5v-7c0-0.8-0.7-1.5-1.5-1.5h-8c-0.8,0-1.5,0.7-1.5,1.5v7.5h5.5v1h-6
					c-0.3,0-0.5-0.2-0.5-0.5v-8c0-1.4,1.1-2.5,2.5-2.5h8c1.4,0,2.5,1.1,2.5,2.5v7c0,0.8-0.7,1.5-1.5,1.5h-1V23.5z"/>
			</g>
			<g>
				<path d="M24.7,26.5c-1.4,0-2.5-1.1-2.5-2.5s1.1-2.5,2.5-2.5s2.5,1.1,2.5,2.5S26.1,26.5,24.7,26.5z M24.7,22.5
					c-0.8,0-1.5,0.7-1.5,1.5s0.7,1.5,1.5,1.5s1.5-0.7,1.5-1.5S25.5,22.5,24.7,22.5z"/>
			</g>
		</g>
		<g>
			<path d="M15.7,23.5h1c0.3,0,0.5,0.2,0.5,0.5s-0.2,0.5-0.5,0.5h-1V23.5z"/>
		</g>
	</g>
</g>
</svg>
