<?xml version="1.0" encoding="utf-8"?>
<!-- Generator: Adobe Illustrator 18.0.0, SVG Export Plug-In . SVG Version: 6.00 Build 0)  -->
<!DOCTYPE svg PUBLIC "-//W3C//DTD SVG 1.1//EN" "http://www.w3.org/Graphics/SVG/1.1/DTD/svg11.dtd">
<svg version="1.1" id="图层_1" xmlns="http://www.w3.org/2000/svg" xmlns:xlink="http://www.w3.org/1999/xlink" x="0px" y="0px"
	 viewBox="0 0 40 40" enable-background="new 0 0 40 40" xml:space="preserve">
<g>
	<g>
		<g>
			<g>
				<path d="M24.3,25.4h-7.1c-1.1,0-2.1-0.7-2.4-1.8l-2-6.9c0,0,0,0,0,0L12.3,15l-1-0.3c-0.3-0.1-0.4-0.4-0.3-0.6
					c0.1-0.3,0.4-0.4,0.6-0.3l1.2,0.4c0.2,0,0.3,0.2,0.3,0.3l0.5,1.6L26.6,17c0.4,0,0.9,0.3,1.1,0.6c0.3,0.4,0.3,0.8,0.2,1.3
					l-1.2,4.7C26.4,24.7,25.4,25.4,24.3,25.4z M14,17.1l1.8,6.2c0.2,0.6,0.8,1.1,1.4,1.1h7.1c0.7,0,1.3-0.5,1.4-1.1l1.2-4.7
					c0-0.1,0-0.3-0.1-0.4c-0.1-0.1-0.2-0.2-0.4-0.2L14,17.1z"/>
			</g>
			<g>
				<path d="M16.9,28.4c-1.1,0-2-0.9-2-2s0.9-2,2-2s2,0.9,2,2S18,28.4,16.9,28.4z M16.9,25.4c-0.6,0-1,0.4-1,1s0.4,1,1,1s1-0.4,1-1
					S17.4,25.4,16.9,25.4z"/>
			</g>
			<g>
				<path d="M24.2,28.4c-1.1,0-2-0.9-2-2s0.9-2,2-2s2,0.9,2,2S25.3,28.4,24.2,28.4z M24.2,25.4c-0.6,0-1,0.4-1,1s0.4,1,1,1
					s1-0.4,1-1S24.8,25.4,24.2,25.4z"/>
			</g>
		</g>
	</g>
</g>
</svg>
