<?xml version="1.0" encoding="utf-8"?>
<!-- Generator: Adobe Illustrator 18.0.0, SVG Export Plug-In . SVG Version: 6.00 Build 0)  -->
<!DOCTYPE svg PUBLIC "-//W3C//DTD SVG 1.1//EN" "http://www.w3.org/Graphics/SVG/1.1/DTD/svg11.dtd">
<svg version="1.1" id="图层_1" xmlns="http://www.w3.org/2000/svg" xmlns:xlink="http://www.w3.org/1999/xlink" x="0px" y="0px"
	 viewBox="0 0 40 40" enable-background="new 0 0 40 40" xml:space="preserve">
<g>
	<g>
		<g>
			<g>
				<path d="M27.2,21H12.8c-0.7,0-1.3-0.6-1.3-1.3v-1.4c0-0.7,0.6-1.3,1.3-1.3h14.4c0.7,0,1.3,0.6,1.3,1.3v1.4
					C28.5,20.4,27.9,21,27.2,21z M12.8,18c-0.2,0-0.3,0.1-0.3,0.3v1.4c0,0.2,0.1,0.3,0.3,0.3h14.4c0.2,0,0.3-0.1,0.3-0.3v-1.4
					c0-0.2-0.1-0.3-0.3-0.3H12.8z"/>
			</g>
			<g>
				<path d="M26.4,20.2c0.1,0.1,0.1,0.3,0.1,0.4l-0.6,4.3c-0.2,1.2-1.2,2.1-2.5,2.1h-6.8c-1.2,0-2.3-0.9-2.5-2.1l-0.6-4.3
					c0-0.1,0-0.3,0.1-0.4H26.4z M14.6,21l0.5,3.7c0.1,0.7,0.7,1.3,1.5,1.3h6.8c0.7,0,1.4-0.6,1.5-1.3l0.5-3.7H14.6z"/>
			</g>
			<g>
				<g>
					<path d="M13.9,17.2l2.8-4c0.2-0.2,0.5-0.3,0.7-0.1c0.2,0.2,0.3,0.5,0.1,0.7l-2.8,4L13.9,17.2z"/>
				</g>
				<g>
					<path d="M25.3,17.8l-2.8-4c-0.2-0.2-0.1-0.5,0.1-0.7c0.2-0.2,0.5-0.1,0.7,0.1l2.8,4L25.3,17.8z"/>
				</g>
			</g>
		</g>
	</g>
</g>
</svg>
