<?xml version="1.0" encoding="utf-8"?>
<!-- Generator: Adobe Illustrator 18.0.0, SVG Export Plug-In . SVG Version: 6.00 Build 0)  -->
<!DOCTYPE svg PUBLIC "-//W3C//DTD SVG 1.1//EN" "http://www.w3.org/Graphics/SVG/1.1/DTD/svg11.dtd">
<svg version="1.1" id="图层_1" xmlns="http://www.w3.org/2000/svg" xmlns:xlink="http://www.w3.org/1999/xlink" x="0px" y="0px"
	 viewBox="0 0 40 40" enable-background="new 0 0 40 40" xml:space="preserve">
<g>
	<g>
		<g>
			<g>
				<path d="M24.8,28.5h-9.7c-0.7,0-1.4-0.3-1.8-0.8c-0.5-0.5-0.7-1.2-0.7-1.9l0.7-9.2c0.1-0.8,0.7-1.4,1.5-1.4H25
					c0.8,0,1.4,0.6,1.5,1.4l0.7,9.2c0.1,0.7-0.2,1.4-0.7,1.9C26.2,28.2,25.5,28.5,24.8,28.5z M14.9,16.2c-0.3,0-0.5,0.2-0.5,0.5
					l-0.7,9.2c0,0.4,0.1,0.8,0.4,1.1c0.3,0.3,0.7,0.5,1.1,0.5h9.7c0.4,0,0.8-0.2,1.1-0.5c0.3-0.3,0.4-0.7,0.4-1.1l-0.7-9.2
					c0-0.3-0.2-0.5-0.5-0.5H14.9z"/>
			</g>
		</g>
		<g>
			<path d="M21.9,17.9c-0.3,0-0.5-0.2-0.5-0.5v-3.1c0-0.8-0.6-1.4-1.4-1.4s-1.4,0.6-1.4,1.4v3.1c0,0.3-0.2,0.5-0.5,0.5
				s-0.5-0.2-0.5-0.5v-3.1c0-1.3,1.1-2.4,2.4-2.4s2.4,1.1,2.4,2.4v3.1C22.4,17.7,22.1,17.9,21.9,17.9z"/>
		</g>
	</g>
</g>
</svg>
