<?xml version="1.0" encoding="utf-8"?>
<!-- Generator: Adobe Illustrator 18.0.0, SVG Export Plug-In . SVG Version: 6.00 Build 0)  -->
<!DOCTYPE svg PUBLIC "-//W3C//DTD SVG 1.1//EN" "http://www.w3.org/Graphics/SVG/1.1/DTD/svg11.dtd">
<svg version="1.1" id="图层_1" xmlns="http://www.w3.org/2000/svg" xmlns:xlink="http://www.w3.org/1999/xlink" x="0px" y="0px"
	 viewBox="0 0 40 40" enable-background="new 0 0 40 40" xml:space="preserve">
<g>
	<g>
		<g>
			<g>
				<path d="M17.7,29.5c-0.3,0-0.6-0.1-0.8-0.3l-6-6c-0.2-0.2-0.3-0.5-0.3-0.8s0.1-0.6,0.3-0.8l8.7-8.7c0.2-0.2,0.5-0.3,0.8-0.3h6
					c0.6,0,1.1,0.5,1.1,1.1v6c0,0.3-0.1,0.6-0.3,0.8l-8.7,8.7C18.2,29.4,17.9,29.5,17.7,29.5z M20.3,13.5l-8.8,8.8c0,0,0,0.1,0,0.2
					l6.1,6.1c0,0,0.1,0,0.1,0l8.7-8.7l0-6.1c0-0.1,0-0.1-0.1-0.1H20.3z"/>
			</g>
			<g>
				<path d="M23.5,17.5c-0.3,0-0.5-0.1-0.7-0.3c-0.4-0.4-0.4-1,0-1.4c0.4-0.4,1-0.4,1.4,0c0.4,0.4,0.4,1,0,1.4
					C24,17.4,23.8,17.5,23.5,17.5z"/>
			</g>
		</g>
	</g>
</g>
</svg>
