<?xml version="1.0" encoding="utf-8"?>
<!-- Generator: Adobe Illustrator 18.0.0, SVG Export Plug-In . SVG Version: 6.00 Build 0)  -->
<!DOCTYPE svg PUBLIC "-//W3C//DTD SVG 1.1//EN" "http://www.w3.org/Graphics/SVG/1.1/DTD/svg11.dtd">
<svg version="1.1" id="图层_1" xmlns="http://www.w3.org/2000/svg" xmlns:xlink="http://www.w3.org/1999/xlink" x="0px" y="0px"
	 viewBox="0 0 40 40" enable-background="new 0 0 40 40" xml:space="preserve">
<g>
	<g>
		<g>
			<path d="M22,13h2c1.4,0,2.5,1.1,2.5,2.5v10c0,1.4-1.1,2.5-2.5,2.5h-8c-1.4,0-2.5-1.1-2.5-2.5v-10c0-1.4,1.1-2.5,2.5-2.5h2v1h-2
				c-0.8,0-1.5,0.7-1.5,1.5v10c0,0.8,0.7,1.5,1.5,1.5h8c0.8,0,1.5-0.7,1.5-1.5v-10c0-0.8-0.7-1.5-1.5-1.5h-2V13z"/>
		</g>
		<g>
			<path d="M21.3,16h-2.7c-0.6,0-1.2-0.5-1.2-1.2v-1.7c0-0.6,0.5-1.2,1.2-1.2h2.7c0.6,0,1.2,0.5,1.2,1.2v1.7
				C22.5,15.5,22,16,21.3,16z M18.7,13c-0.1,0-0.2,0.1-0.2,0.2v1.7c0,0.1,0.1,0.2,0.2,0.2h2.7c0.1,0,0.2-0.1,0.2-0.2v-1.7
				c0-0.1-0.1-0.2-0.2-0.2H18.7z"/>
		</g>
		<g>
			<path d="M23,25h-6c-0.3,0-0.5-0.2-0.5-0.5S16.7,24,17,24h6c0.3,0,0.5,0.2,0.5,0.5S23.3,25,23,25z"/>
		</g>
		<g>
			<path d="M23,22h-6c-0.3,0-0.5-0.2-0.5-0.5S16.7,21,17,21h6c0.3,0,0.5,0.2,0.5,0.5S23.3,22,23,22z"/>
		</g>
		<g>
			<path d="M23,19h-6c-0.3,0-0.5-0.2-0.5-0.5S16.7,18,17,18h6c0.3,0,0.5,0.2,0.5,0.5S23.3,19,23,19z"/>
		</g>
	</g>
</g>
</svg>
