<?xml version="1.0" encoding="utf-8"?>
<!-- Generator: Adobe Illustrator 18.0.0, SVG Export Plug-In . SVG Version: 6.00 Build 0)  -->
<!DOCTYPE svg PUBLIC "-//W3C//DTD SVG 1.1//EN" "http://www.w3.org/Graphics/SVG/1.1/DTD/svg11.dtd">
<svg version="1.1" id="图层_1" xmlns="http://www.w3.org/2000/svg" xmlns:xlink="http://www.w3.org/1999/xlink" x="0px" y="0px"
	 viewBox="0 0 40 40" enable-background="new 0 0 40 40" xml:space="preserve">
<g>
	<g>
		<g>
			<path d="M19.6,28.5L19.6,28.5c-0.1,0-0.3-0.1-0.4-0.1c-0.8-0.8-2.2-0.8-2.9,0c-0.2,0.2-0.5,0.2-0.7,0l-4-4
				c-0.2-0.2-0.2-0.5,0-0.7c0.8-0.8,0.8-2.1,0-2.9c-0.2-0.2-0.2-0.5,0-0.7l8.4-8.4c0.1-0.1,0.2-0.1,0.4-0.1l0,0
				c0.1,0,0.3,0.1,0.4,0.1c0.8,0.8,2.1,0.8,2.9,0c0.2-0.2,0.5-0.2,0.7,0l4,4c0.2,0.2,0.2,0.5,0,0.7c-0.8,0.8-0.8,2.1,0,2.9
				c0.2,0.2,0.2,0.5,0,0.7L20,28.4C19.9,28.4,19.7,28.5,19.6,28.5z M12.7,24l3.3,3.3c1-0.7,2.5-0.7,3.6,0l7.7-7.7
				c-0.8-1.1-0.8-2.5,0-3.6L24,12.7c-1,0.7-2.5,0.7-3.6,0l-7.7,7.7C13.4,21.5,13.4,22.9,12.7,24z"/>
		</g>
		<g>
			<g>
				<path d="M21,23.3c-0.2,0-0.4-0.1-0.5-0.4l-1.7-5.9c-0.1-0.3,0.1-0.5,0.3-0.6c0.3-0.1,0.5,0.1,0.6,0.3l1.7,5.9
					c0.1,0.3-0.1,0.5-0.3,0.6C21.1,23.3,21.1,23.3,21,23.3z"/>
			</g>
			<g>
				<g>
					<g>
						<path d="M23,20.9c-0.6,0-1-0.4-1-1s0.4-1,1-1c0.6,0,1,0.4,1,1S23.6,20.9,23,20.9z"/>
					</g>
				</g>
				<g>
					<g>
						<path d="M17.4,20.8c-0.6,0-1-0.4-1-1s0.4-1,1-1c0.6,0,1,0.4,1,1S17.9,20.8,17.4,20.8z"/>
					</g>
				</g>
			</g>
		</g>
	</g>
</g>
</svg>
