<?xml version="1.0" encoding="utf-8"?>
<!-- Generator: Adobe Illustrator 18.0.0, SVG Export Plug-In . SVG Version: 6.00 Build 0)  -->
<!DOCTYPE svg PUBLIC "-//W3C//DTD SVG 1.1//EN" "http://www.w3.org/Graphics/SVG/1.1/DTD/svg11.dtd">
<svg version="1.1" id="图层_1" xmlns="http://www.w3.org/2000/svg" xmlns:xlink="http://www.w3.org/1999/xlink" x="0px" y="0px"
	 viewBox="0 0 40 40" enable-background="new 0 0 40 40" xml:space="preserve">
<g>
	<g>
		<g>
			<g>
				<path d="M20.8,16.2h-1.6c-1,0-2-0.7-2.3-1.7L16.3,13c-0.1-0.3-0.1-0.7,0.2-1s0.5-0.5,0.9-0.5h5.2c0.4,0,0.7,0.2,0.9,0.5
					s0.3,0.7,0.2,1l-0.5,1.6C22.8,15.6,21.9,16.2,20.8,16.2z M17.4,12.5C17.4,12.5,17.3,12.5,17.4,12.5c-0.1,0.1-0.1,0.1-0.1,0.1
					l0.5,1.6c0.2,0.6,0.7,1,1.3,1h1.6c0.6,0,1.2-0.4,1.3-1l0.5-1.6c0,0,0-0.1,0-0.1c0,0,0,0-0.1,0H17.4z"/>
			</g>
			<g>
				<path d="M21.3,15.6l2.4,10.1c0,0.2,0,0.4-0.2,0.5l-3.2,2.1c-0.1,0.1-0.2,0.1-0.3,0.1s-0.2,0-0.3-0.1l-3.2-2.1
					c-0.2-0.1-0.3-0.3-0.2-0.5l2.4-10.1H21.3z M17.4,25.6l2.6,1.8l2.6-1.8l-2.2-9.4h-0.9L17.4,25.6z"/>
			</g>
		</g>
		<g>
			<path d="M17.4,21.9l3.7-3.7l0.7,0.7l-3.7,3.7c-0.1,0.1-0.2,0.1-0.4,0.1L17.4,21.9z"/>
		</g>
		<g>
			<path d="M17.3,26.1l4.6-4.6l0.7,0.7l-4.6,4.6c-0.1,0.1-0.2,0.1-0.4,0.1L17.3,26.1z"/>
		</g>
	</g>
</g>
</svg>
