<?xml version="1.0" encoding="utf-8"?>
<!-- Generator: Adobe Illustrator 18.0.0, SVG Export Plug-In . SVG Version: 6.00 Build 0)  -->
<!DOCTYPE svg PUBLIC "-//W3C//DTD SVG 1.1//EN" "http://www.w3.org/Graphics/SVG/1.1/DTD/svg11.dtd">
<svg version="1.1" id="图层_1" xmlns="http://www.w3.org/2000/svg" xmlns:xlink="http://www.w3.org/1999/xlink" x="0px" y="0px"
	 viewBox="0 0 40 40" enable-background="new 0 0 40 40" xml:space="preserve">
<g>
	<g>
		<g>
			<path d="M15.8,16.3h-2c-0.3,0-0.5-0.2-0.5-0.5v-2c0-0.3,0.2-0.5,0.5-0.5h2c0.3,0,0.5,0.2,0.5,0.5v2
				C16.3,16.1,16.1,16.3,15.8,16.3z M14.3,15.3h1v-1h-1V15.3z"/>
		</g>
		<g>
			<path d="M20.8,16.3h-2c-0.3,0-0.5-0.2-0.5-0.5v-2c0-0.3,0.2-0.5,0.5-0.5h2c0.3,0,0.5,0.2,0.5,0.5v2
				C21.3,16.1,21.1,16.3,20.8,16.3z M19.3,15.3h1v-1h-1V15.3z"/>
		</g>
		<g>
			<path d="M25.8,16.3h-2c-0.3,0-0.5-0.2-0.5-0.5v-2c0-0.3,0.2-0.5,0.5-0.5h2c0.3,0,0.5,0.2,0.5,0.5v2
				C26.3,16.1,26.1,16.3,25.8,16.3z M24.3,15.3h1v-1h-1V15.3z"/>
		</g>
		<g>
			<path d="M15.8,21.3h-2c-0.3,0-0.5-0.2-0.5-0.5v-2c0-0.3,0.2-0.5,0.5-0.5h2c0.3,0,0.5,0.2,0.5,0.5v2
				C16.3,21.1,16.1,21.3,15.8,21.3z M14.3,20.3h1v-1h-1V20.3z"/>
		</g>
		<g>
			<path d="M20.8,21.3h-2c-0.3,0-0.5-0.2-0.5-0.5v-2c0-0.3,0.2-0.5,0.5-0.5h2c0.3,0,0.5,0.2,0.5,0.5v2
				C21.3,21.1,21.1,21.3,20.8,21.3z M19.3,20.3h1v-1h-1V20.3z"/>
		</g>
		<g>
			<path d="M25.8,21.3h-2c-0.3,0-0.5-0.2-0.5-0.5v-2c0-0.3,0.2-0.5,0.5-0.5h2c0.3,0,0.5,0.2,0.5,0.5v2
				C26.3,21.1,26.1,21.3,25.8,21.3z M24.3,20.3h1v-1h-1V20.3z"/>
		</g>
		<g>
			<path d="M15.8,26.3h-2c-0.3,0-0.5-0.2-0.5-0.5v-2c0-0.3,0.2-0.5,0.5-0.5h2c0.3,0,0.5,0.2,0.5,0.5v2
				C16.3,26.1,16.1,26.3,15.8,26.3z M14.3,25.3h1v-1h-1V25.3z"/>
		</g>
		<g>
			<path d="M20.8,26.3h-2c-0.3,0-0.5-0.2-0.5-0.5v-2c0-0.3,0.2-0.5,0.5-0.5h2c0.3,0,0.5,0.2,0.5,0.5v2
				C21.3,26.1,21.1,26.3,20.8,26.3z M19.3,25.3h1v-1h-1V25.3z"/>
		</g>
		<g>
			<path d="M24.8,26.7c-0.1,0-0.3-0.1-0.4-0.1L23,25.1c-0.2-0.2-0.2-0.5,0-0.7l1.4-1.4c0.2-0.2,0.5-0.2,0.7,0l1.4,1.4
				c0.2,0.2,0.2,0.5,0,0.7l-1.4,1.4C25.1,26.7,24.9,26.7,24.8,26.7z M24.1,24.8l0.7,0.7l0.7-0.7l-0.7-0.7L24.1,24.8z"/>
		</g>
	</g>
</g>
</svg>
