<?xml version="1.0" encoding="utf-8"?>
<!-- Generator: Adobe Illustrator 18.0.0, SVG Export Plug-In . SVG Version: 6.00 Build 0)  -->
<!DOCTYPE svg PUBLIC "-//W3C//DTD SVG 1.1//EN" "http://www.w3.org/Graphics/SVG/1.1/DTD/svg11.dtd">
<svg version="1.1" id="图层_1" xmlns="http://www.w3.org/2000/svg" xmlns:xlink="http://www.w3.org/1999/xlink" x="0px" y="0px"
	 viewBox="0 0 40 40" enable-background="new 0 0 40 40" xml:space="preserve">
<g>
	<g>
		<g>
			<path d="M20,28.5c-4.7,0-8.5-3.8-8.5-8.5s3.8-8.5,8.5-8.5s8.5,3.8,8.5,8.5S24.7,28.5,20,28.5z M20,12.5c-4.1,0-7.5,3.4-7.5,7.5
				s3.4,7.5,7.5,7.5s7.5-3.4,7.5-7.5S24.1,12.5,20,12.5z"/>
		</g>
		<g>
			<g>
				<path d="M20.3,24.4c-2.2,0-4.1-2-4.1-4.5s1.8-4.5,4.1-4.5c1.5,0,2.9,0.9,3.6,2.5c0.1,0.3,0,0.5-0.2,0.7c-0.3,0.1-0.5,0-0.7-0.2
					c-0.5-1.2-1.6-1.9-2.7-1.9c-1.7,0-3.1,1.5-3.1,3.5s1.4,3.5,3.1,3.5c1.1,0,2.2-0.7,2.7-1.9c0.1-0.3,0.4-0.4,0.7-0.2
					c0.3,0.1,0.4,0.4,0.2,0.7C23.2,23.5,21.8,24.4,20.3,24.4z"/>
			</g>
			<g>
				<g>
					<path d="M20,19.2h-4.6c-0.3,0-0.5-0.2-0.5-0.5s0.2-0.5,0.5-0.5H20c0.3,0,0.5,0.2,0.5,0.5S20.3,19.2,20,19.2z"/>
				</g>
				<g>
					<path d="M20,21.9h-4.6c-0.3,0-0.5-0.2-0.5-0.5s0.2-0.5,0.5-0.5H20c0.3,0,0.5,0.2,0.5,0.5S20.3,21.9,20,21.9z"/>
				</g>
			</g>
		</g>
	</g>
</g>
</svg>
