<?xml version="1.0" encoding="utf-8"?>
<!-- Generator: Adobe Illustrator 18.0.0, SVG Export Plug-In . SVG Version: 6.00 Build 0)  -->
<!DOCTYPE svg PUBLIC "-//W3C//DTD SVG 1.1//EN" "http://www.w3.org/Graphics/SVG/1.1/DTD/svg11.dtd">
<svg version="1.1" id="图层_1" xmlns="http://www.w3.org/2000/svg" xmlns:xlink="http://www.w3.org/1999/xlink" x="0px" y="0px"
	 viewBox="0 0 40 40" enable-background="new 0 0 40 40" xml:space="preserve">
<g>
	<g>
		<g>
			<path d="M20,28.5c-4.7,0-8.5-3.8-8.5-8.5s3.8-8.5,8.5-8.5s8.5,3.8,8.5,8.5S24.7,28.5,20,28.5z M20,12.5c-4.1,0-7.5,3.4-7.5,7.5
				s3.4,7.5,7.5,7.5s7.5-3.4,7.5-7.5S24.1,12.5,20,12.5z"/>
		</g>
		<g>
			<g>
				<path d="M21.4,24.5c-0.3,0-0.7-0.1-1.1-0.3c-0.8-0.4-1.6,0.2-1.7,0.2c-0.2,0.1-0.4,0.1-0.6,0c-0.2-0.1-0.2-0.4-0.1-0.6
					c0.4-0.7,0.2-1.8,0.1-2.9c-0.2-1.4-0.4-2.8,0.3-4c0.6-1,1.3-1.3,1.9-1.3c1-0.1,1.8,0.4,2,0.6c0.2,0.2,0.2,0.5,0,0.7
					c-0.2,0.2-0.5,0.2-0.7,0c-0.1-0.1-0.7-0.4-1.3-0.3c-0.4,0.1-0.8,0.4-1,0.8c-0.5,0.9-0.3,2.1-0.2,3.3c0.1,0.8,0.2,1.6,0.1,2.4
					c0.5-0.1,1.1-0.1,1.7,0.2c0.4,0.2,0.6,0.2,0.7,0.2c0.1-0.3,0.4-0.4,0.7-0.3c0.3,0.1,0.4,0.4,0.3,0.7c0,0.1-0.2,0.4-0.6,0.5
					C21.7,24.5,21.6,24.5,21.4,24.5z"/>
			</g>
			<g>
				<path d="M20.7,20h-3.7c-0.3,0-0.5-0.2-0.5-0.5s0.2-0.5,0.5-0.5h3.7c0.3,0,0.5,0.2,0.5,0.5S21,20,20.7,20z"/>
			</g>
		</g>
	</g>
</g>
</svg>
