<?xml version="1.0" encoding="utf-8"?>
<!-- Generator: Adobe Illustrator 18.0.0, SVG Export Plug-In . SVG Version: 6.00 Build 0)  -->
<!DOCTYPE svg PUBLIC "-//W3C//DTD SVG 1.1//EN" "http://www.w3.org/Graphics/SVG/1.1/DTD/svg11.dtd">
<svg version="1.1" id="图层_1" xmlns="http://www.w3.org/2000/svg" xmlns:xlink="http://www.w3.org/1999/xlink" x="0px" y="0px"
	 viewBox="0 0 40 40" enable-background="new 0 0 40 40" xml:space="preserve">
<g>
	<g>
		<g>
			<path d="M20,28.5c-4.7,0-8.5-3.8-8.5-8.5s3.8-8.5,8.5-8.5s8.5,3.8,8.5,8.5S24.7,28.5,20,28.5z M20,12.5c-4.1,0-7.5,3.4-7.5,7.5
				s3.4,7.5,7.5,7.5s7.5-3.4,7.5-7.5S24.1,12.5,20,12.5z"/>
		</g>
		<g>
			<g>
				<path d="M20,24.1c-1.7,0-3.1-1-3.1-2.3c0-0.3,0.2-0.5,0.5-0.5s0.5,0.2,0.5,0.5c0,0.7,1,1.3,2.1,1.3s2.1-0.6,2.1-1.3
					c0-0.7-1-1.3-2.1-1.3c-1.7,0-3.1-1-3.1-2.3c0-1.3,1.4-2.3,3.1-2.3s3.1,1,3.1,2.3c0,0.3-0.2,0.5-0.5,0.5s-0.5-0.2-0.5-0.5
					c0-0.7-1-1.3-2.1-1.3s-2.1,0.6-2.1,1.3c0,0.7,1,1.3,2.1,1.3c1.7,0,3.1,1,3.1,2.3C23.1,23.1,21.7,24.1,20,24.1z"/>
			</g>
			<g>
				<path d="M20,25c-0.3,0-0.5-0.2-0.5-0.5v-9c0-0.3,0.2-0.5,0.5-0.5s0.5,0.2,0.5,0.5v9C20.5,24.8,20.3,25,20,25z"/>
			</g>
		</g>
	</g>
</g>
</svg>
