<?xml version="1.0" encoding="utf-8"?>
<!-- Generator: Adobe Illustrator 18.0.0, SVG Export Plug-In . SVG Version: 6.00 Build 0)  -->
<!DOCTYPE svg PUBLIC "-//W3C//DTD SVG 1.1//EN" "http://www.w3.org/Graphics/SVG/1.1/DTD/svg11.dtd">
<svg version="1.1" id="图层_1" xmlns="http://www.w3.org/2000/svg" xmlns:xlink="http://www.w3.org/1999/xlink" x="0px" y="0px"
	 viewBox="0 0 40 40" enable-background="new 0 0 40 40" xml:space="preserve">
<g>
	<g>
		<g>
			<path d="M25.5,26.8h-11c-1.4,0-2.5-1.1-2.5-2.5v-8.7c0-1.4,1.1-2.5,2.5-2.5h11c1.4,0,2.5,1.1,2.5,2.5v2.4h-1v-2.4
				c0-0.8-0.7-1.5-1.5-1.5h-11c-0.8,0-1.5,0.7-1.5,1.5v8.7c0,0.8,0.7,1.5,1.5,1.5h11c0.8,0,1.5-0.7,1.5-1.5V22h1v2.3
				C28,25.7,26.9,26.8,25.5,26.8z"/>
		</g>
		<g>
			<path d="M27.1,22.5H22c-0.9,0-1.7-0.8-1.7-1.7v-1.6c0-0.9,0.8-1.7,1.7-1.7h5.1c0.9,0,1.7,0.8,1.7,1.7v1.6
				C28.8,21.7,28,22.5,27.1,22.5z M22,18.5c-0.4,0-0.7,0.3-0.7,0.7v1.6c0,0.4,0.3,0.7,0.7,0.7h5.1c0.4,0,0.7-0.3,0.7-0.7v-1.6
				c0-0.4-0.3-0.7-0.7-0.7H22z"/>
		</g>
		<g>
			<path d="M22.5,20.5c-0.1,0-0.3-0.1-0.4-0.2C22,20.3,22,20.1,22,20c0-0.1,0-0.3,0.1-0.4c0.2-0.2,0.5-0.2,0.7,0
				c0.1,0.1,0.2,0.2,0.2,0.4c0,0.1-0.1,0.3-0.2,0.3C22.7,20.4,22.6,20.5,22.5,20.5z"/>
		</g>
	</g>
</g>
</svg>
