<?xml version="1.0" encoding="utf-8"?>
<!-- Generator: Adobe Illustrator 18.0.0, SVG Export Plug-In . SVG Version: 6.00 Build 0)  -->
<!DOCTYPE svg PUBLIC "-//W3C//DTD SVG 1.1//EN" "http://www.w3.org/Graphics/SVG/1.1/DTD/svg11.dtd">
<svg version="1.1" id="图层_1" xmlns="http://www.w3.org/2000/svg" xmlns:xlink="http://www.w3.org/1999/xlink" x="0px" y="0px"
	 viewBox="0 0 40 40" enable-background="new 0 0 40 40" xml:space="preserve">
<g>
	<g>
		<g>
			<path d="M24.5,26h-13c-0.3,0-0.5-0.2-0.5-0.5v-7c0-0.3,0.2-0.5,0.5-0.5h13c0.3,0,0.5,0.2,0.5,0.5v7C25,25.8,24.8,26,24.5,26z
				 M12,25h12v-6H12V25z"/>
		</g>
		<g>
			<path d="M13,18.5v-2c0-0.3,0.2-0.5,0.5-0.5h13c0.3,0,0.5,0.2,0.5,0.5v7c0,0.3-0.2,0.5-0.5,0.5h-2v-1H26v-6H14v1.5H13z"/>
		</g>
		<g>
			<path d="M18,24.5c-1.4,0-2.5-1.1-2.5-2.5s1.1-2.5,2.5-2.5s2.5,1.1,2.5,2.5S19.4,24.5,18,24.5z M18,20.5c-0.8,0-1.5,0.7-1.5,1.5
				s0.7,1.5,1.5,1.5s1.5-0.7,1.5-1.5S18.8,20.5,18,20.5z"/>
		</g>
		<g>
			<path d="M15,16.5v-2c0-0.3,0.2-0.5,0.5-0.5h13c0.3,0,0.5,0.2,0.5,0.5v7c0,0.3-0.2,0.5-0.5,0.5h-2v-1H28v-6H16v1.5H15z"/>
		</g>
	</g>
</g>
</svg>
