<?xml version="1.0" encoding="utf-8"?>
<!-- Generator: Adobe Illustrator 18.0.0, SVG Export Plug-In . SVG Version: 6.00 Build 0)  -->
<!DOCTYPE svg PUBLIC "-//W3C//DTD SVG 1.1//EN" "http://www.w3.org/Graphics/SVG/1.1/DTD/svg11.dtd">
<svg version="1.1" id="图层_1" xmlns="http://www.w3.org/2000/svg" xmlns:xlink="http://www.w3.org/1999/xlink" x="0px" y="0px"
	 viewBox="0 0 40 40" enable-background="new 0 0 40 40" xml:space="preserve">
<g>
	<g>
		<path d="M20,25.5c-3.8,0-7-2.7-8.6-4.3c-0.6-0.6-0.6-1.7,0-2.3c1.6-1.6,4.8-4.3,8.6-4.3s7,2.7,8.6,4.3c0.6,0.6,0.6,1.7,0,2.3
			C27,22.8,23.8,25.5,20,25.5z M20,15.5c-3.6,0-6.7,2.8-7.9,4c-0.3,0.3-0.3,0.7,0,0.9c1.2,1.2,4.3,4,7.9,4s6.7-2.8,7.9-4
			c0.3-0.3,0.3-0.7,0-0.9C26.7,18.3,23.6,15.5,20,15.5z"/>
	</g>
	<g>
		<path d="M20,22.5c-1.4,0-2.5-1.1-2.5-2.5s1.1-2.5,2.5-2.5s2.5,1.1,2.5,2.5S21.4,22.5,20,22.5z M20,18.5c-0.8,0-1.5,0.7-1.5,1.5
			s0.7,1.5,1.5,1.5s1.5-0.7,1.5-1.5S20.8,18.5,20,18.5z"/>
	</g>
</g>
</svg>
