<?xml version="1.0" encoding="utf-8"?>
<!-- Generator: Adobe Illustrator 18.0.0, SVG Export Plug-In . SVG Version: 6.00 Build 0)  -->
<!DOCTYPE svg PUBLIC "-//W3C//DTD SVG 1.1//EN" "http://www.w3.org/Graphics/SVG/1.1/DTD/svg11.dtd">
<svg version="1.1" id="图层_1" xmlns="http://www.w3.org/2000/svg" xmlns:xlink="http://www.w3.org/1999/xlink" x="0px" y="0px"
	 viewBox="0 0 40 40" enable-background="new 0 0 40 40" xml:space="preserve">
<g>
	<g>
		<g>
			<path d="M20,26.7c-3.7,0-6.7-3-6.7-6.7s3-6.7,6.7-6.7s6.7,3,6.7,6.7S23.7,26.7,20,26.7z M20,14.3c-3.1,0-5.7,2.6-5.7,5.7
				s2.6,5.7,5.7,5.7s5.7-2.6,5.7-5.7S23.1,14.3,20,14.3z"/>
		</g>
		<g>
			<path d="M20,23.1c-1.7,0-3.2-1.4-3.2-3.2c0-1.7,1.4-3.2,3.2-3.2s3.2,1.4,3.2,3.2C23.2,21.7,21.7,23.1,20,23.1z M20,17.8
				c-1.2,0-2.2,1-2.2,2.2c0,1.2,1,2.2,2.2,2.2s2.2-1,2.2-2.2C22.2,18.8,21.2,17.8,20,17.8z"/>
		</g>
		<g>
			<path d="M20,17.8c-0.3,0-0.5-0.2-0.5-0.5V12c0-0.3,0.2-0.5,0.5-0.5s0.5,0.2,0.5,0.5v5.3C20.5,17.6,20.3,17.8,20,17.8z"/>
		</g>
		<g>
			<path d="M19.5,17.3V12c0-0.3,0.2-0.5,0.5-0.5s0.5,0.2,0.5,0.5v5.3H19.5z"/>
		</g>
		<g>
			<path d="M20.5,22.7V28c0,0.3-0.2,0.5-0.5,0.5s-0.5-0.2-0.5-0.5v-5.3H20.5z"/>
		</g>
		<g>
			<path d="M22.7,19.5H28c0.3,0,0.5,0.2,0.5,0.5s-0.2,0.5-0.5,0.5h-5.3V19.5z"/>
		</g>
		<g>
			<path d="M17.3,20.5H12c-0.3,0-0.5-0.2-0.5-0.5s0.2-0.5,0.5-0.5h5.3V20.5z"/>
		</g>
		<g>
			<path d="M21.5,17.7l3.8-3.8c0.2-0.2,0.5-0.2,0.7,0s0.2,0.5,0,0.7l-3.8,3.8L21.5,17.7z"/>
		</g>
		<g>
			<path d="M18.5,22.3L14.7,26c-0.1,0.1-0.2,0.1-0.4,0.1s-0.3,0-0.4-0.1c-0.2-0.2-0.2-0.5,0-0.7l3.8-3.8L18.5,22.3z"/>
		</g>
		<g>
			<path d="M17.7,18.5L14,14.7c-0.2-0.2-0.2-0.5,0-0.7s0.5-0.2,0.7,0l3.8,3.8L17.7,18.5z"/>
		</g>
		<g>
			<path d="M22.3,21.5l3.8,3.8c0.2,0.2,0.2,0.5,0,0.7c-0.1,0.1-0.2,0.1-0.4,0.1s-0.3,0-0.4-0.1l-3.8-3.8L22.3,21.5z"/>
		</g>
	</g>
</g>
</svg>
