<?xml version="1.0" encoding="utf-8"?>
<!-- Generator: Adobe Illustrator 18.0.0, SVG Export Plug-In . SVG Version: 6.00 Build 0)  -->
<!DOCTYPE svg PUBLIC "-//W3C//DTD SVG 1.1//EN" "http://www.w3.org/Graphics/SVG/1.1/DTD/svg11.dtd">
<svg version="1.1" id="图层_1" xmlns="http://www.w3.org/2000/svg" xmlns:xlink="http://www.w3.org/1999/xlink" x="0px" y="0px"
	 viewBox="0 0 40 40" enable-background="new 0 0 40 40" xml:space="preserve">
<g>
	<g>
		<path d="M17.7,25.5c-1,0-1.7-0.8-1.7-1.7v-7.5c0-1,0.8-1.7,1.7-1.7c0.3,0,0.6,0.1,0.9,0.2l6.5,3.8c0.5,0.3,0.9,0.9,0.9,1.5
			s-0.3,1.2-0.9,1.5l-6.5,3.8C18.3,25.4,18,25.5,17.7,25.5z M17.7,15.5c-0.4,0-0.7,0.3-0.7,0.7v7.5c0,0.6,0.7,0.9,1.1,0.6l6.5-3.8
			c0.2-0.1,0.4-0.4,0.4-0.6s-0.1-0.5-0.4-0.6l-6.5-3.8C18,15.5,17.9,15.5,17.7,15.5z"/>
	</g>
</g>
</svg>
