<?xml version="1.0" encoding="utf-8"?>
<!-- Generator: Adobe Illustrator 18.0.0, SVG Export Plug-In . SVG Version: 6.00 Build 0)  -->
<!DOCTYPE svg PUBLIC "-//W3C//DTD SVG 1.1//EN" "http://www.w3.org/Graphics/SVG/1.1/DTD/svg11.dtd">
<svg version="1.1" id="图层_1" xmlns="http://www.w3.org/2000/svg" xmlns:xlink="http://www.w3.org/1999/xlink" x="0px" y="0px"
	 viewBox="0 0 40 40" enable-background="new 0 0 40 40" xml:space="preserve">
<g>
	<g>
		<path d="M16.5,25.5c-1.1,0-2-0.9-2-2v-7c0-1.1,0.9-2,2-2s2,0.9,2,2v7C18.5,24.6,17.6,25.5,16.5,25.5z M16.5,15.5c-0.6,0-1,0.4-1,1
			v7c0,0.6,0.4,1,1,1s1-0.4,1-1v-7C17.5,15.9,17.1,15.5,16.5,15.5z"/>
	</g>
	<g>
		<g>
			<path d="M23.5,25.5c-1.1,0-2-0.9-2-2v-7c0-1.1,0.9-2,2-2s2,0.9,2,2v7C25.5,24.6,24.6,25.5,23.5,25.5z M23.5,15.5
				c-0.6,0-1,0.4-1,1v7c0,0.6,0.4,1,1,1s1-0.4,1-1v-7C24.5,15.9,24.1,15.5,23.5,15.5z"/>
		</g>
	</g>
</g>
</svg>
