<?xml version="1.0" encoding="utf-8"?>
<!-- Generator: Adobe Illustrator 18.0.0, SVG Export Plug-In . SVG Version: 6.00 Build 0)  -->
<!DOCTYPE svg PUBLIC "-//W3C//DTD SVG 1.1//EN" "http://www.w3.org/Graphics/SVG/1.1/DTD/svg11.dtd">
<svg version="1.1" id="图层_1" xmlns="http://www.w3.org/2000/svg" xmlns:xlink="http://www.w3.org/1999/xlink" x="0px" y="0px"
	 viewBox="0 0 40 40" enable-background="new 0 0 40 40" xml:space="preserve">
<g>
	<g>
		<path d="M15.9,24.5c-0.8,0-1.5-0.7-1.5-1.5v-6c0-0.8,0.7-1.5,1.5-1.5c0.3,0,0.5,0.1,0.7,0.2l5.2,3c0.5,0.3,0.7,0.7,0.7,1.3
			s-0.3,1-0.7,1.3l-5.2,3C16.4,24.4,16.1,24.5,15.9,24.5z M15.9,16.5c-0.2,0-0.5,0.2-0.5,0.5v6c0,0.4,0.4,0.6,0.7,0.4l5.2-3
			c0.2-0.1,0.2-0.3,0.2-0.4s0-0.3-0.2-0.4l-5.2-3C16.1,16.5,16,16.5,15.9,16.5z"/>
	</g>
	<g>
		<path d="M20.4,21.8V23c0,0.3,0.2,0.4,0.2,0.4c0.1,0,0.3,0.1,0.5,0l5.2-3c0.2-0.1,0.2-0.3,0.2-0.4s0-0.3-0.2-0.4l-5.2-3
			c-0.2-0.1-0.4,0-0.5,0c-0.1,0-0.2,0.2-0.2,0.4v1.2h-1V17c0-0.5,0.3-1,0.7-1.3s1-0.3,1.5,0l5.2,3c0.5,0.3,0.7,0.7,0.7,1.3
			s-0.3,1-0.7,1.3l-5.2,3c-0.2,0.1-0.5,0.2-0.7,0.2s-0.5-0.1-0.7-0.2c-0.5-0.3-0.7-0.7-0.7-1.3v-1.2H20.4z"/>
	</g>
</g>
</svg>
