<?xml version="1.0" encoding="utf-8"?>
<!-- Generator: Adobe Illustrator 18.0.0, SVG Export Plug-In . SVG Version: 6.00 Build 0)  -->
<!DOCTYPE svg PUBLIC "-//W3C//DTD SVG 1.1//EN" "http://www.w3.org/Graphics/SVG/1.1/DTD/svg11.dtd">
<svg version="1.1" id="图层_1" xmlns="http://www.w3.org/2000/svg" xmlns:xlink="http://www.w3.org/1999/xlink" x="0px" y="0px"
	 viewBox="0 0 40 40" enable-background="new 0 0 40 40" xml:space="preserve">
<g>
	<g>
		<path d="M24.1,24.5c-0.3,0-0.5-0.1-0.7-0.2l-5.2-3c-0.5-0.3-0.7-0.7-0.7-1.3s0.3-1,0.7-1.3l5.2-3c0.2-0.1,0.5-0.2,0.7-0.2
			c0.8,0,1.5,0.7,1.5,1.5v6C25.6,23.8,24.9,24.5,24.1,24.5z M24.1,16.5c-0.1,0-0.2,0-0.2,0.1l-5.2,3c-0.2,0.1-0.2,0.3-0.2,0.4
			s0,0.3,0.2,0.4l5.2,3c0.3,0.2,0.7,0,0.7-0.4v-6C24.6,16.7,24.3,16.5,24.1,16.5z"/>
	</g>
	<g>
		<path d="M20.6,21.8V23c0,0.5-0.3,1-0.7,1.3c-0.2,0.1-0.5,0.2-0.7,0.2s-0.5-0.1-0.7-0.2l-5.2-3c-0.5-0.3-0.7-0.7-0.7-1.3
			s0.3-1,0.7-1.3l5.2-3c0.5-0.3,1-0.3,1.5,0s0.7,0.7,0.7,1.3v1.2h-1V17c0-0.3-0.2-0.4-0.2-0.4c-0.1,0-0.3-0.1-0.5,0l-5.2,3
			c-0.2,0.1-0.2,0.3-0.2,0.4s0,0.3,0.2,0.4l5.2,3c0.2,0.1,0.4,0,0.5,0c0.1,0,0.2-0.2,0.2-0.4v-1.2H20.6z"/>
	</g>
</g>
</svg>
