<?xml version="1.0" encoding="utf-8"?>
<!-- Generator: Adobe Illustrator 18.0.0, SVG Export Plug-In . SVG Version: 6.00 Build 0)  -->
<!DOCTYPE svg PUBLIC "-//W3C//DTD SVG 1.1//EN" "http://www.w3.org/Graphics/SVG/1.1/DTD/svg11.dtd">
<svg version="1.1" id="图层_1" xmlns="http://www.w3.org/2000/svg" xmlns:xlink="http://www.w3.org/1999/xlink" x="0px" y="0px"
	 viewBox="0 0 40 40" enable-background="new 0 0 40 40" xml:space="preserve">
<g>
	<g>
		<path d="M28,20.2l-5.9,0.2c0,0-0.1,0-0.1,0l0-1l6-0.2L28,20.2z"/>
	</g>
	<g>
		<rect x="20.5" y="23" transform="matrix(-0.7071 -0.7071 0.7071 -0.7071 23.5356 56.8201)" width="6" height="1"/>
	</g>
	<g>
		<rect x="13.5" y="16" transform="matrix(-0.7071 -0.7071 0.7071 -0.7071 16.4655 39.7489)" width="6" height="1"/>
	</g>
	<g>
		<path d="M18,20.6l-6,0.2c0,0,0,0,0,0l0-1l5.9-0.2L18,20.6z"/>
	</g>
	<g>
		<path d="M20,28.5c-4.7,0-8.5-3.8-8.5-8.5c0-4.7,3.8-8.5,8.5-8.5s8.5,3.8,8.5,8.5C28.5,24.7,24.7,28.5,20,28.5z M20,12.5
			c-4.1,0-7.5,3.4-7.5,7.5s3.4,7.5,7.5,7.5s7.5-3.4,7.5-7.5S24.1,12.5,20,12.5z M20,22.5c-1.4,0-2.5-1.1-2.5-2.5
			c0-1.4,1.1-2.5,2.5-2.5s2.5,1.1,2.5,2.5C22.5,21.4,21.4,22.5,20,22.5z M20,18.5c-0.8,0-1.5,0.7-1.5,1.5s0.7,1.5,1.5,1.5
			s1.5-0.7,1.5-1.5S20.8,18.5,20,18.5z"/>
	</g>
</g>
</svg>
