<?xml version="1.0" encoding="utf-8"?>
<!-- Generator: Adobe Illustrator 18.0.0, SVG Export Plug-In . SVG Version: 6.00 Build 0)  -->
<!DOCTYPE svg PUBLIC "-//W3C//DTD SVG 1.1//EN" "http://www.w3.org/Graphics/SVG/1.1/DTD/svg11.dtd">
<svg version="1.1" id="图层_1" xmlns="http://www.w3.org/2000/svg" xmlns:xlink="http://www.w3.org/1999/xlink" x="0px" y="0px"
	 viewBox="0 0 40 40" enable-background="new 0 0 40 40" xml:space="preserve">
<g>
	<g>
		<path d="M23.9,20.7h-7.8c-0.6,0-1.2-0.4-1.5-1c-0.3-0.6-0.1-1.3,0.3-1.7l3.9-4.1c0.6-0.6,1.7-0.6,2.3,0l3.9,4.1
			c0.4,0.5,0.6,1.1,0.3,1.7C25.1,20.3,24.6,20.7,23.9,20.7z M20,14.3c-0.2,0-0.3,0.1-0.4,0.2l-3.9,4.1c-0.2,0.3-0.2,0.6-0.1,0.6
			c0,0.1,0.2,0.4,0.5,0.4h7.8c0.4,0,0.5-0.3,0.5-0.4c0-0.1,0.1-0.4-0.1-0.6l-3.9-4.1C20.3,14.4,20.2,14.3,20,14.3z"/>
	</g>
	<g>
		<path d="M24,25.7h-8c-0.8,0-1.5-0.7-1.5-1.5v-1c0-0.8,0.7-1.5,1.5-1.5h8c0.8,0,1.5,0.7,1.5,1.5v1C25.5,25,24.8,25.7,24,25.7z
			 M16,22.7c-0.3,0-0.5,0.2-0.5,0.5v1c0,0.3,0.2,0.5,0.5,0.5h8c0.3,0,0.5-0.2,0.5-0.5v-1c0-0.3-0.2-0.5-0.5-0.5H16z"/>
	</g>
</g>
</svg>
