<?xml version="1.0" encoding="utf-8"?>
<!-- Generator: Adobe Illustrator 18.0.0, SVG Export Plug-In . SVG Version: 6.00 Build 0)  -->
<!DOCTYPE svg PUBLIC "-//W3C//DTD SVG 1.1//EN" "http://www.w3.org/Graphics/SVG/1.1/DTD/svg11.dtd">
<svg version="1.1" id="图层_1" xmlns="http://www.w3.org/2000/svg" xmlns:xlink="http://www.w3.org/1999/xlink" x="0px" y="0px"
	 viewBox="0 0 40 40" enable-background="new 0 0 40 40" xml:space="preserve">
<g>
	<g>
		<g>
			<path d="M16.9,27.7c-1.1,0-2-0.5-2.4-1.3c-0.6-1.3,0.2-3,1.9-3.9c0.6-0.3,1.3-0.5,1.9-0.5c1.1,0,2,0.5,2.4,1.3
				c0.3,0.7,0.3,1.4-0.1,2.2c-0.4,0.7-1,1.3-1.8,1.7C18.1,27.6,17.5,27.7,16.9,27.7z M18.2,23.1c-0.5,0-1,0.1-1.4,0.4
				C15.6,24,15,25.2,15.4,26c0.4,0.8,1.8,0.9,2.9,0.4c0.6-0.3,1.1-0.8,1.4-1.3c0.2-0.5,0.3-0.9,0.1-1.3
				C19.5,23.4,18.9,23.1,18.2,23.1z"/>
		</g>
		<g>
			<path d="M19.8,23.4v-8.6c0-0.1,0-0.2,0-0.2v-2.2c0-0.2,0.2-0.4,0.4-0.5c0.1,0,2.7-0.7,5.1,1.9c1.6,1.7,2.7,1.2,2.8,1.2
				c0.2-0.1,0.5-0.1,0.6,0.1c0.2,0.2,0.2,0.4,0.1,0.6c0,0.1-0.9,1.3-2.2,1.5c-0.9,0.1-1.7-0.2-2.5-1c-1.3-1.2-2.6-1.2-3.1-1.1v9.5
				L19.8,23.4z M21.4,14c0.9,0,2.1,0.3,3.3,1.4c0.6,0.5,1.1,0.8,1.7,0.7c0.2,0,0.4-0.1,0.5-0.2c-0.7-0.2-1.5-0.6-2.3-1.5
				c-1.5-1.6-3-1.7-3.7-1.7V14C21,14,21.2,14,21.4,14z"/>
		</g>
	</g>
</g>
</svg>
