<?xml version="1.0" encoding="utf-8"?>
<!-- Generator: Adobe Illustrator 18.0.0, SVG Export Plug-In . SVG Version: 6.00 Build 0)  -->
<!DOCTYPE svg PUBLIC "-//W3C//DTD SVG 1.1//EN" "http://www.w3.org/Graphics/SVG/1.1/DTD/svg11.dtd">
<svg version="1.1" id="图层_1" xmlns="http://www.w3.org/2000/svg" xmlns:xlink="http://www.w3.org/1999/xlink" x="0px" y="0px"
	 viewBox="0 0 40 40" enable-background="new 0 0 40 40" xml:space="preserve">
<g>
	<g>
		<g>
			<path d="M22.8,27.4c-0.3,0-0.7-0.1-0.9-0.3l-4.9-4c-0.1-0.1-0.2-0.2-0.2-0.4v-5.3c0-0.2,0.1-0.3,0.2-0.4l4.9-4
				c0.3-0.2,0.6-0.3,0.9-0.3c0.8,0,1.5,0.7,1.5,1.5v11.8C24.3,26.7,23.6,27.4,22.8,27.4z M17.7,22.4l4.7,3.9
				c0.3,0.2,0.8,0.1,0.8-0.4V14.1c0-0.5-0.5-0.6-0.8-0.4l-4.7,3.9V22.4z"/>
		</g>
		<g>
			<path d="M17.2,23.2h-3c-0.3,0-0.5-0.2-0.5-0.5v-5.3c0-0.3,0.2-0.5,0.5-0.5h3V23.2z M14.7,22.2h2v-4.3h-2V22.2z"/>
		</g>
		<g>
			<path d="M23.8,20.6h1c0.3,0,0.5-0.2,0.5-0.5v-0.3c0-0.3-0.2-0.5-0.5-0.5h-1v-1h1c0.8,0,1.5,0.7,1.5,1.5v0.3
				c0,0.8-0.7,1.5-1.5,1.5h-1V20.6z"/>
		</g>
	</g>
	<g>
		<path d="M27,27.5c-0.1,0-0.3,0-0.4-0.1l-14-14c-0.2-0.2-0.2-0.5,0-0.7s0.5-0.2,0.7,0l14,14c0.2,0.2,0.2,0.5,0,0.7
			C27.3,27.5,27.1,27.5,27,27.5z"/>
	</g>
</g>
</svg>
