<?xml version="1.0" encoding="utf-8"?>
<!-- Generator: Adobe Illustrator 18.0.0, SVG Export Plug-In . SVG Version: 6.00 Build 0)  -->
<!DOCTYPE svg PUBLIC "-//W3C//DTD SVG 1.1//EN" "http://www.w3.org/Graphics/SVG/1.1/DTD/svg11.dtd">
<svg version="1.1" id="图层_1" xmlns="http://www.w3.org/2000/svg" xmlns:xlink="http://www.w3.org/1999/xlink" x="0px" y="0px"
	 viewBox="0 0 40 40" enable-background="new 0 0 40 40" xml:space="preserve">
<g>
	<g>
		<g>
			<path d="M25,18.3c-0.3,0-0.5-0.2-0.5-0.5c0-2.5-2-4.5-4.5-4.5s-4.5,2-4.5,4.5c0,0.3-0.2,0.5-0.5,0.5s-0.5-0.2-0.5-0.5
				c0-3,2.5-5.5,5.5-5.5s5.5,2.5,5.5,5.5C25.5,18.1,25.3,18.3,25,18.3z"/>
		</g>
		<g>
			<path d="M14.5,23.5c-1.1,0-2-0.9-2-2v-2c0-1.1,0.9-2,2-2s2,0.9,2,2v2C16.5,22.6,15.6,23.5,14.5,23.5z M14.5,18.5
				c-0.6,0-1,0.4-1,1v2c0,0.6,0.4,1,1,1s1-0.4,1-1v-2C15.5,18.9,15.1,18.5,14.5,18.5z"/>
		</g>
		<g>
			<path d="M25.5,23.5c-1.1,0-2-0.9-2-2v-2c0-1.1,0.9-2,2-2s2,0.9,2,2v2C27.5,22.6,26.6,23.5,25.5,23.5z M25.5,18.5
				c-0.6,0-1,0.4-1,1v2c0,0.6,0.4,1,1,1s1-0.4,1-1v-2C26.5,18.9,26.1,18.5,25.5,18.5z"/>
		</g>
	</g>
	<g>
		<path d="M25.9,23.2c-0.1,0.1-1.8,3-4.8,3c-0.3,0-0.5-0.2-0.5-0.5s0.2-0.5,0.5-0.5c2.4,0,3.9-2.5,3.9-2.5L25.9,23.2z"/>
	</g>
	<g>
		<path d="M20.1,27.2c-0.8,0-1.5-0.7-1.5-1.5s0.7-1.5,1.5-1.5s1.5,0.7,1.5,1.5S21,27.2,20.1,27.2z M20.1,25.2
			c-0.3,0-0.5,0.2-0.5,0.5s0.2,0.5,0.5,0.5s0.5-0.2,0.5-0.5S20.4,25.2,20.1,25.2z"/>
	</g>
</g>
</svg>
