<?xml version="1.0" encoding="utf-8"?>
<!-- Generator: Adobe Illustrator 18.0.0, SVG Export Plug-In . SVG Version: 6.00 Build 0)  -->
<!DOCTYPE svg PUBLIC "-//W3C//DTD SVG 1.1//EN" "http://www.w3.org/Graphics/SVG/1.1/DTD/svg11.dtd">
<svg version="1.1" id="图层_1" xmlns="http://www.w3.org/2000/svg" xmlns:xlink="http://www.w3.org/1999/xlink" x="0px" y="0px"
	 viewBox="0 0 40 40" enable-background="new 0 0 40 40" xml:space="preserve">
<g>
	<g>
		<g>
			<path d="M14.5,26.5c-1.1,0-2-0.9-2-2v-2c0-1.1,0.9-2,2-2s2,0.9,2,2v2C16.5,25.6,15.6,26.5,14.5,26.5z M14.5,21.5
				c-0.6,0-1,0.4-1,1v2c0,0.6,0.4,1,1,1s1-0.4,1-1v-2C15.5,21.9,15.1,21.5,14.5,21.5z"/>
		</g>
		<g>
			<path d="M25.5,26.5c-1.1,0-2-0.9-2-2v-2c0-1.1,0.9-2,2-2s2,0.9,2,2v2C27.5,25.6,26.6,26.5,25.5,26.5z M25.5,21.5
				c-0.6,0-1,0.4-1,1v2c0,0.6,0.4,1,1,1s1-0.4,1-1v-2C26.5,21.9,26.1,21.5,25.5,21.5z"/>
		</g>
	</g>
	<g>
		<path d="M14.5,21v-2c0-3,2.5-5.5,5.5-5.5s5.5,2.5,5.5,5.5v2h-1v-2c0-2.5-2-4.5-4.5-4.5s-4.5,2-4.5,4.5v2H14.5z"/>
	</g>
</g>
</svg>
