<?xml version="1.0" encoding="utf-8"?>
<!-- Generator: Adobe Illustrator 18.0.0, SVG Export Plug-In . SVG Version: 6.00 Build 0)  -->
<!DOCTYPE svg PUBLIC "-//W3C//DTD SVG 1.1//EN" "http://www.w3.org/Graphics/SVG/1.1/DTD/svg11.dtd">
<svg version="1.1" id="图层_1" xmlns="http://www.w3.org/2000/svg" xmlns:xlink="http://www.w3.org/1999/xlink" x="0px" y="0px"
	 viewBox="0 0 40 40" enable-background="new 0 0 40 40" xml:space="preserve">
<g>
	<g>
		<path d="M20,24.8c-2.8,0-5-2-5-4.5c0-0.3,0.2-0.5,0.5-0.5S16,20,16,20.3c0,1.9,1.8,3.5,4,3.5s4-1.6,4-3.5c0-0.3,0.2-0.5,0.5-0.5
			S25,20,25,20.3C25,22.7,22.8,24.8,20,24.8z"/>
	</g>
	<g>
		<path d="M20,22.3c-1.4,0-2.5-1.1-2.5-2.5v-5c0-1.4,1.1-2.5,2.5-2.5s2.5,1.1,2.5,2.5v5C22.5,21.1,21.4,22.3,20,22.3z M20,13.3
			c-0.8,0-1.5,0.7-1.5,1.5v5c0,0.8,0.7,1.5,1.5,1.5s1.5-0.7,1.5-1.5v-5C21.5,13.9,20.8,13.3,20,13.3z"/>
	</g>
	<g>
		<rect x="19.5" y="24.3" width="1" height="3"/>
	</g>
	<g>
		<path d="M22,27.8h-4c-0.3,0-0.5-0.2-0.5-0.5s0.2-0.5,0.5-0.5h4c0.3,0,0.5,0.2,0.5,0.5S22.3,27.8,22,27.8z"/>
	</g>
</g>
</svg>
