<?xml version="1.0" encoding="utf-8"?>
<!-- Generator: Adobe Illustrator 18.0.0, SVG Export Plug-In . SVG Version: 6.00 Build 0)  -->
<!DOCTYPE svg PUBLIC "-//W3C//DTD SVG 1.1//EN" "http://www.w3.org/Graphics/SVG/1.1/DTD/svg11.dtd">
<svg version="1.1" id="图层_1" xmlns="http://www.w3.org/2000/svg" xmlns:xlink="http://www.w3.org/1999/xlink" x="0px" y="0px"
	 viewBox="0 0 40 40" enable-background="new 0 0 40 40" xml:space="preserve">
<g>
	<g>
		<path d="M23.7,27.2c-0.2,0-0.5-0.1-0.7-0.2l-2.8-1.4c-0.1-0.1-0.3-0.1-0.4,0L17,27c-0.6,0.3-1.4,0.1-1.8-0.4
			c-0.3-0.3-0.4-0.8-0.3-1.2l0.4-3.1c0-0.2,0-0.3-0.1-0.4L13,19.7c-0.4-0.4-0.5-1-0.4-1.5c0.2-0.5,0.6-0.9,1.2-1l3.1-0.5
			c0.2,0,0.3-0.1,0.4-0.3l1.4-2.8c0.3-0.5,0.8-0.8,1.3-0.8s1.1,0.3,1.3,0.8l1.4,2.8c0.1,0.1,0.2,0.2,0.4,0.3l3.1,0.5
			c0.6,0.1,1,0.5,1.2,1c0.2,0.5,0,1.1-0.4,1.5l-2.2,2.2c-0.1,0.1-0.2,0.3-0.1,0.4l0.5,3.1c0.1,0.4-0.1,0.9-0.3,1.2
			C24.5,27,24.1,27.2,23.7,27.2z M20,24.6c0.2,0,0.5,0.1,0.7,0.2l2.8,1.4c0.2,0.1,0.5,0,0.6-0.1c0.1-0.1,0.1-0.2,0.1-0.4l-0.5-3.1
			c-0.1-0.5,0.1-0.9,0.4-1.3l2.2-2.2c0.1-0.1,0.2-0.3,0.1-0.5c0-0.1-0.1-0.3-0.4-0.3L23,17.6c-0.5-0.1-0.9-0.4-1.1-0.8l-1.4-2.8
			c-0.2-0.3-0.7-0.3-0.9,0l-1.4,2.8c-0.2,0.4-0.6,0.7-1.1,0.8L14,18.2c-0.3,0-0.4,0.3-0.4,0.3c-0.1,0.2,0,0.4,0.1,0.5l2.2,2.2
			c0.3,0.3,0.5,0.8,0.4,1.3l-0.4,3.1c0,0.2,0,0.3,0.1,0.4c0.1,0.2,0.4,0.2,0.6,0.1l2.8-1.4C19.5,24.6,19.8,24.6,20,24.6z"/>
	</g>
</g>
</svg>
