<?xml version="1.0" encoding="utf-8"?>
<!-- Generator: Adobe Illustrator 18.0.0, SVG Export Plug-In . SVG Version: 6.00 Build 0)  -->
<!DOCTYPE svg PUBLIC "-//W3C//DTD SVG 1.1//EN" "http://www.w3.org/Graphics/SVG/1.1/DTD/svg11.dtd">
<svg version="1.1" id="图层_1" xmlns="http://www.w3.org/2000/svg" xmlns:xlink="http://www.w3.org/1999/xlink" x="0px" y="0px"
	 viewBox="0 0 40 40" enable-background="new 0 0 40 40" xml:space="preserve">
<g>
	<g>
		<path d="M20,27.3c-0.1,0-0.2,0-0.3,0c-0.9-0.2-4.1-1.2-6.6-5.1c-1.2-1.8-1.1-4.2,0.3-5.8c0.9-1,2.2-1.6,3.5-1.6
			c1.1,0,2.2,0.4,3.1,1.1c0.9-0.7,1.9-1.1,3.1-1.1c1.4,0,2.6,0.6,3.5,1.6c1.4,1.5,1.5,3.9,0.3,5.8c-2.5,3.9-5.7,4.9-6.6,5.1
			C20.2,27.2,20.1,27.3,20,27.3z M16.9,15.7c-1.1,0-2.1,0.5-2.8,1.3c-1.1,1.2-1.2,3.1-0.2,4.6c2.3,3.6,5.2,4.5,6,4.7l0.1,0
			c0,0,0.1,0,0.1,0c0.8-0.2,3.7-1.1,6-4.7c0.9-1.5,0.9-3.4-0.2-4.6c-0.7-0.8-1.7-1.3-2.8-1.3c-1,0-1.9,0.4-2.6,1.1
			c0,0-0.1,0.1-0.1,0.1c-0.2,0.2-0.5,0.2-0.7,0c0,0-0.1-0.1-0.1-0.1C18.9,16.1,17.9,15.7,16.9,15.7z"/>
	</g>
</g>
</svg>
