<?xml version="1.0" encoding="utf-8"?>
<!-- Generator: Adobe Illustrator 18.0.0, SVG Export Plug-In . SVG Version: 6.00 Build 0)  -->
<!DOCTYPE svg PUBLIC "-//W3C//DTD SVG 1.1//EN" "http://www.w3.org/Graphics/SVG/1.1/DTD/svg11.dtd">
<svg version="1.1" id="图层_1" xmlns="http://www.w3.org/2000/svg" xmlns:xlink="http://www.w3.org/1999/xlink" x="0px" y="0px"
	 viewBox="0 0 40 40" enable-background="new 0 0 40 40" xml:space="preserve">
<g>
	<g>
		<g>
			<path d="M26.5,27h-13c-0.8,0-1.5-0.7-1.5-1.5v-11c0-0.8,0.7-1.5,1.5-1.5h4c0.8,0,1.5,0.7,1.5,1.5v1c0,0.3,0.2,0.5,0.5,0.5h7
				c0.8,0,1.5,0.7,1.5,1.5v8C28,26.3,27.3,27,26.5,27z M13.5,14c-0.3,0-0.5,0.2-0.5,0.5v11c0,0.3,0.2,0.5,0.5,0.5h13
				c0.3,0,0.5-0.2,0.5-0.5v-8c0-0.3-0.2-0.5-0.5-0.5h-7c-0.8,0-1.5-0.7-1.5-1.5v-1c0-0.3-0.2-0.5-0.5-0.5H13.5z"/>
		</g>
		<g>
			<path d="M21.2,24.4c-0.1,0-0.3,0-0.4-0.1L20,23.9l-0.9,0.4c-0.3,0.2-0.8,0.1-1-0.2c-0.2-0.2-0.2-0.4-0.2-0.7l0.1-1l-0.7-0.7
				c-0.2-0.2-0.3-0.5-0.2-0.8c0.1-0.3,0.3-0.5,0.7-0.6l1-0.2l0.5-0.9c0.3-0.6,1.2-0.6,1.5,0l0.5,0.9l1,0.2c0.3,0.1,0.6,0.3,0.7,0.6
				c0.1,0.3,0,0.6-0.2,0.8l-0.7,0.7l0.1,1c0,0.2,0,0.5-0.2,0.7C21.7,24.3,21.5,24.4,21.2,24.4z M18.3,21.3l0.5,0.5
				c0.2,0.2,0.3,0.5,0.2,0.7L19,23.3l0.7-0.3c0.2-0.1,0.5-0.1,0.7,0l0.7,0.3l-0.1-0.7c0-0.3,0-0.5,0.2-0.7l0.5-0.5l-0.7-0.1
				c-0.3,0-0.5-0.2-0.6-0.4L20,20.1l-0.3,0.7c-0.1,0.2-0.3,0.4-0.6,0.4L18.3,21.3z"/>
		</g>
	</g>
</g>
</svg>
