<?xml version="1.0" encoding="utf-8"?>
<!-- Generator: Adobe Illustrator 18.0.0, SVG Export Plug-In . SVG Version: 6.00 Build 0)  -->
<!DOCTYPE svg PUBLIC "-//W3C//DTD SVG 1.1//EN" "http://www.w3.org/Graphics/SVG/1.1/DTD/svg11.dtd">
<svg version="1.1" id="图层_1" xmlns="http://www.w3.org/2000/svg" xmlns:xlink="http://www.w3.org/1999/xlink" x="0px" y="0px"
	 viewBox="0 0 40 40" enable-background="new 0 0 40 40" xml:space="preserve">
<g>
	<g>
		<g>
			<path d="M23.4,27.6c-0.2,0-0.4,0-0.5-0.1L20,25.8l-2.9,1.6c-0.4,0.2-0.9,0.2-1.3-0.2c-0.2-0.2-0.3-0.5-0.3-0.8v-14
				c0-0.3,0.2-0.5,0.5-0.5h8c0.3,0,0.5,0.2,0.5,0.5v14C24.5,27.1,24,27.6,23.4,27.6z M20,24.8c0.2,0,0.4,0,0.5,0.1l2.9,1.6
				c0,0,0.1,0,0.1-0.1V13h-7v13.5l0.1,0.1l2.9-1.6C19.6,24.9,19.8,24.8,20,24.8z"/>
		</g>
		<g>
			<rect x="16" y="14.7" width="8" height="1"/>
		</g>
		<g>
			<rect x="16" y="16.6" width="8" height="1"/>
		</g>
	</g>
</g>
</svg>
