<?xml version="1.0" encoding="utf-8"?>
<!-- Generator: Adobe Illustrator 18.0.0, SVG Export Plug-In . SVG Version: 6.00 Build 0)  -->
<!DOCTYPE svg PUBLIC "-//W3C//DTD SVG 1.1//EN" "http://www.w3.org/Graphics/SVG/1.1/DTD/svg11.dtd">
<svg version="1.1" id="图层_1" xmlns="http://www.w3.org/2000/svg" xmlns:xlink="http://www.w3.org/1999/xlink" x="0px" y="0px"
	 viewBox="0 0 40 40" enable-background="new 0 0 40 40" xml:space="preserve">
<g>
	<g>
		<g>
			<g>
				<path d="M20,22.6c-1.3,0-2.6-0.6-3.5-1.6c-0.9-1-1.3-2.3-1.2-3.6l0.5-5.4c0-0.3,0.2-0.5,0.5-0.5h7.3c0.3,0,0.5,0.2,0.5,0.5
					l0.5,5.4c0.1,1.3-0.3,2.7-1.2,3.6S21.3,22.6,20,22.6z M16.8,12.5l-0.5,5c-0.1,1,0.2,2.1,0.9,2.9c0.7,0.8,1.7,1.2,2.8,1.2
					s2.1-0.4,2.8-1.2c0.7-0.8,1-1.8,0.9-2.9l-0.5-5H16.8z"/>
			</g>
			<g>
				<rect x="19.5" y="22.1" width="1" height="5.9"/>
			</g>
			<g>
				<path d="M22.7,28.5h-5.3c-0.3,0-0.5-0.2-0.5-0.5s0.2-0.5,0.5-0.5h5.3c0.3,0,0.5,0.2,0.5,0.5S22.9,28.5,22.7,28.5z"/>
			</g>
		</g>
		<g>
			<path d="M23.7,17.9h-7.3c-0.3,0-0.5-0.2-0.5-0.5s0.2-0.5,0.5-0.5h7.3c0.3,0,0.5,0.2,0.5,0.5S23.9,17.9,23.7,17.9z"/>
		</g>
	</g>
</g>
</svg>
