<?xml version="1.0" encoding="utf-8"?>
<!-- Generator: Adobe Illustrator 18.0.0, SVG Export Plug-In . SVG Version: 6.00 Build 0)  -->
<!DOCTYPE svg PUBLIC "-//W3C//DTD SVG 1.1//EN" "http://www.w3.org/Graphics/SVG/1.1/DTD/svg11.dtd">
<svg version="1.1" id="图层_1" xmlns="http://www.w3.org/2000/svg" xmlns:xlink="http://www.w3.org/1999/xlink" x="0px" y="0px"
	 viewBox="0 0 40 40" enable-background="new 0 0 40 40" xml:space="preserve">
<g>
	<g>
		<g>
			<path d="M20,22.5c-0.9,0-1.8-0.4-2.5-1l-3.2-3.2c-0.2-0.2-0.3-0.5-0.2-0.8c0.1-0.3,0.4-0.5,0.7-0.5h10.2c0.3,0,0.6,0.2,0.7,0.5
				c0.1,0.3,0.1,0.6-0.2,0.8l-3.2,3.2C21.8,22.1,20.9,22.5,20,22.5z M15.5,18l2.8,2.8c0.9,0.9,2.6,0.9,3.5,0l2.8-2.8H15.5z"/>
		</g>
		<g>
			<rect x="19.5" y="22" width="1" height="4.9"/>
		</g>
		<g>
			<path d="M22.7,27.4h-5.5c-0.3,0-0.5-0.2-0.5-0.5s0.2-0.5,0.5-0.5h5.5c0.3,0,0.5,0.2,0.5,0.5S23,27.4,22.7,27.4z"/>
		</g>
		<g>
			<rect x="16.5" y="19.2" width="7" height="1"/>
		</g>
		<g>
			<g>
				<path d="M22.1,17.8c-0.1,0-0.1,0-0.2,0c-0.2-0.1-0.4-0.4-0.2-0.7l1.2-2.4c0.1-0.2,0.4-0.4,0.7-0.2c0.2,0.1,0.4,0.4,0.2,0.7
					l-1.2,2.4C22.5,17.7,22.3,17.8,22.1,17.8z"/>
			</g>
			<g>
				<path d="M26.4,16.9c-0.1,0-0.1,0-0.2,0l-6.4-3.1c-0.2-0.1-0.4-0.4-0.2-0.7c0.3-0.7,1.4-0.7,1.8-0.7c1.2,0,2.7,0.3,2.7,0.3
					c0.1,0,0.1,0,0.2,0.1c1.2,0.9,3.1,2.7,2.5,3.8c-0.1,0.1-0.2,0.2-0.3,0.3C26.6,16.9,26.5,16.9,26.4,16.9z M21.4,13.4l4.2,2
					c-0.4-0.5-1.1-1.2-1.7-1.7C23.5,13.6,22.3,13.4,21.4,13.4z"/>
			</g>
		</g>
	</g>
</g>
</svg>
