<?xml version="1.0" encoding="utf-8"?>
<!-- Generator: Adobe Illustrator 18.0.0, SVG Export Plug-In . SVG Version: 6.00 Build 0)  -->
<!DOCTYPE svg PUBLIC "-//W3C//DTD SVG 1.1//EN" "http://www.w3.org/Graphics/SVG/1.1/DTD/svg11.dtd">
<svg version="1.1" id="图层_1" xmlns="http://www.w3.org/2000/svg" xmlns:xlink="http://www.w3.org/1999/xlink" x="0px" y="0px"
	 viewBox="0 0 40 40" enable-background="new 0 0 40 40" xml:space="preserve">
<g>
	<g>
		<g>
			<path d="M24.4,19.9c-1.9,0-3.5-1.6-3.5-3.5s1.6-3.5,3.5-3.5s3.5,1.6,3.5,3.5S26.3,19.9,24.4,19.9z M24.4,13.9
				c-1.4,0-2.5,1.1-2.5,2.5s1.1,2.5,2.5,2.5s2.5-1.1,2.5-2.5S25.7,13.9,24.4,13.9z"/>
		</g>
		<g>
			<path d="M21.2,29.5H19c-1.1,0-2.1-0.8-2.2-1.9l-1.3-10.3c0-0.3,0.1-0.7,0.3-0.9c0.2-0.3,0.6-0.4,0.9-0.4h6.8
				c0.3,0,0.7,0.1,0.9,0.4c0.2,0.3,0.3,0.6,0.3,0.9l-1.3,10.3C23.2,28.7,22.3,29.5,21.2,29.5z M16.7,16.9c-0.1,0-0.1,0-0.2,0.1
				c0,0-0.1,0.1,0,0.2l1.3,10.3c0.1,0.6,0.6,1.1,1.2,1.1h2.2c0.6,0,1.1-0.5,1.2-1.1l1.3-10.3c0-0.1,0-0.1,0-0.2c0,0-0.1-0.1-0.2-0.1
				H16.7z"/>
		</g>
		<g>
			<rect x="16.7" y="22.2" width="6.8" height="1"/>
		</g>
		<g>
			<path d="M20.1,25.6c-0.2,0-0.4-0.2-0.5-0.4l-2.1-11.8c-0.1-0.6-0.5-1-1.1-1.2l-2.5-0.7c-0.3-0.1-0.4-0.4-0.3-0.6
				c0.1-0.3,0.4-0.4,0.6-0.3l2.5,0.7c0.9,0.3,1.6,1,1.8,2L20.6,25C20.6,25.3,20.4,25.5,20.1,25.6C20.1,25.6,20.1,25.6,20.1,25.6z"/>
		</g>
	</g>
</g>
</svg>
