<?xml version="1.0" encoding="utf-8"?>
<!-- Generator: Adobe Illustrator 18.0.0, SVG Export Plug-In . SVG Version: 6.00 Build 0)  -->
<!DOCTYPE svg PUBLIC "-//W3C//DTD SVG 1.1//EN" "http://www.w3.org/Graphics/SVG/1.1/DTD/svg11.dtd">
<svg version="1.1" id="图层_1" xmlns="http://www.w3.org/2000/svg" xmlns:xlink="http://www.w3.org/1999/xlink" x="0px" y="0px"
	 viewBox="0 0 40 40" enable-background="new 0 0 40 40" xml:space="preserve">
<g>
	<g>
		<g>
			<path d="M22.7,28.5h-6.3c-0.9,0-1.6-0.7-1.6-1.6v-7.9c0-0.3,0.2-0.5,0.5-0.5s0.5,0.2,0.5,0.5v7.9c0,0.3,0.3,0.6,0.6,0.6h6.3
				c0.3,0,0.6-0.3,0.6-0.6v-7.9c0-0.3,0.2-0.5,0.5-0.5s0.5,0.2,0.5,0.5v7.9C24.3,27.7,23.6,28.5,22.7,28.5z"/>
		</g>
		<g>
			<path d="M23.8,24.7h1.8c0.5,0,0.9-0.4,0.9-0.9v-4.5c0-0.5-0.4-0.9-0.9-0.9H25v-1h0.5c1,0,1.9,0.8,1.9,1.9v4.5
				c0,1-0.8,1.9-1.9,1.9h-1.8V24.7z"/>
		</g>
		<g>
			<path d="M23,19.4c-0.6,0-1.3-0.2-1.8-0.5c-1,0.7-2.4,0.7-3.4,0.1c-0.5,0.3-1.1,0.5-1.7,0.5c-1.5,0-2.8-1-2.8-2.3
				c0-0.3,0.1-0.6,0.2-0.9c-0.2-0.3-0.2-0.6-0.2-0.9c0-1.3,1.3-2.3,2.8-2.3c0.6,0,1.2,0.2,1.7,0.5c1-0.6,2.5-0.6,3.4,0.1
				c0.5-0.3,1.1-0.5,1.8-0.5c1.5,0,2.8,1,2.8,2.3c0,0.3-0.1,0.6-0.2,0.9c0.2,0.3,0.2,0.6,0.2,0.9C25.8,18.4,24.5,19.4,23,19.4z
				 M21.2,17.8c0.1,0,0.3,0,0.3,0.1c0.3,0.3,0.9,0.5,1.4,0.5c1,0,1.8-0.6,1.8-1.3c0-0.2-0.1-0.4-0.2-0.6c-0.1-0.2-0.1-0.4,0-0.6
				c0.1-0.2,0.2-0.4,0.2-0.6c0-0.7-0.8-1.3-1.8-1.3c-0.5,0-1.1,0.2-1.4,0.5c-0.2,0.2-0.5,0.2-0.7,0c-0.7-0.6-2-0.7-2.8-0.1
				c-0.2,0.2-0.5,0.2-0.6,0c-0.3-0.3-0.8-0.5-1.3-0.5c-1,0-1.8,0.6-1.8,1.3c0,0.2,0.1,0.4,0.2,0.6c0.1,0.2,0.1,0.4,0,0.6
				c-0.1,0.2-0.2,0.4-0.2,0.6c0,0.7,0.8,1.3,1.8,1.3c0.5,0,1-0.2,1.3-0.5c0.2-0.2,0.5-0.2,0.6,0c0.7,0.6,2.1,0.6,2.8-0.1
				C21,17.8,21.1,17.8,21.2,17.8z"/>
		</g>
	</g>
	<g>
		<g>
			<path d="M16.9,28v-7.1c0-0.3,0.2-0.5,0.5-0.5s0.5,0.2,0.5,0.5V28H16.9z"/>
		</g>
		<g>
			<path d="M19,28v-7.1c0-0.3,0.2-0.5,0.5-0.5s0.5,0.2,0.5,0.5V28H19z"/>
		</g>
		<g>
			<path d="M21.2,28v-7.1c0-0.3,0.2-0.5,0.5-0.5s0.5,0.2,0.5,0.5V28H21.2z"/>
		</g>
	</g>
</g>
</svg>
