<?xml version="1.0" encoding="utf-8"?>
<!-- Generator: Adobe Illustrator 18.0.0, SVG Export Plug-In . SVG Version: 6.00 Build 0)  -->
<!DOCTYPE svg PUBLIC "-//W3C//DTD SVG 1.1//EN" "http://www.w3.org/Graphics/SVG/1.1/DTD/svg11.dtd">
<svg version="1.1" id="图层_1" xmlns="http://www.w3.org/2000/svg" xmlns:xlink="http://www.w3.org/1999/xlink" x="0px" y="0px"
	 viewBox="0 0 40 40" enable-background="new 0 0 40 40" xml:space="preserve">
<g>
	<g>
		<g>
			<g>
				<path d="M21.1,26.3h-2.3c-2.5,0-4.6-1.8-5-4.2l-0.8-4.4c0-0.3,0-0.5,0.2-0.7c0.2-0.2,0.4-0.3,0.7-0.3h12.1
					c0.3,0,0.5,0.1,0.7,0.3c0.2,0.2,0.2,0.5,0.2,0.7l-0.8,4.4C25.7,24.6,23.6,26.3,21.1,26.3z M14.1,17.8l0.7,4.2c0.3,2,2,3.4,4,3.4
					h2.3c2,0,3.7-1.4,4-3.4l0.7-4.2H14.1z"/>
			</g>
			<g>
				<path d="M25.9,18.4c0.5-0.5,1.6-0.9,2.5,0c0.6,0.6,0.7,1.8,0.1,2.7c-0.4,0.7-1.1,1.1-1.9,1.1c-0.3,0-0.6-0.1-1-0.2l0.3-1
					c1,0.3,1.5-0.1,1.7-0.5c0.3-0.5,0.3-1.2,0-1.5c-0.5-0.5-0.9-0.1-1.1,0L25.9,18.4z"/>
			</g>
		</g>
		<g>
			<g>
				<path d="M17.8,16.1c-0.2,0-0.3-0.1-0.4-0.2c0-0.1-0.3-0.5-0.3-1.1s0.3-1.1,0.3-1.1l0,0c0,0,0.2-0.3,0.2-0.6
					c0-0.3-0.2-0.6-0.2-0.6c-0.1-0.2-0.1-0.5,0.2-0.7c0.2-0.1,0.5-0.1,0.7,0.2c0,0.1,0.3,0.5,0.3,1.1c0,0.6-0.3,1.1-0.3,1.1l0,0
					c0,0-0.2,0.3-0.2,0.6c0,0.3,0.2,0.6,0.2,0.6c0.1,0.2,0.1,0.5-0.2,0.7C17.9,16.1,17.9,16.1,17.8,16.1z"/>
			</g>
			<g>
				<path d="M20,16.1c-0.2,0-0.3-0.1-0.4-0.2c0,0-0.3-0.5-0.3-1.1s0.3-1.1,0.3-1.1l0,0c0,0,0.2-0.3,0.2-0.6c0-0.3-0.2-0.6-0.2-0.6
					c-0.1-0.2-0.1-0.5,0.2-0.7c0.2-0.1,0.5-0.1,0.7,0.2c0,0.1,0.3,0.5,0.3,1.1c0,0.6-0.3,1.1-0.3,1.1l0,0c0,0-0.2,0.3-0.2,0.6
					c0,0.3,0.2,0.6,0.2,0.6c0.1,0.2,0.1,0.5-0.2,0.7C20.2,16.1,20.1,16.1,20,16.1z"/>
			</g>
			<g>
				<path d="M22.2,16.1c-0.2,0-0.3-0.1-0.4-0.2c0,0-0.3-0.5-0.3-1.1s0.3-1.1,0.3-1.1l0,0c0,0,0.2-0.3,0.2-0.6c0-0.3-0.2-0.6-0.2-0.6
					c-0.1-0.2-0.1-0.5,0.2-0.7s0.5-0.1,0.7,0.2c0,0.1,0.3,0.5,0.3,1.1c0,0.6-0.3,1.1-0.3,1.1l0,0c0,0-0.2,0.3-0.2,0.6
					c0,0.3,0.2,0.6,0.2,0.6c0.1,0.2,0.1,0.5-0.2,0.7C22.4,16.1,22.3,16.1,22.2,16.1z"/>
			</g>
		</g>
		<g>
			<path d="M26.5,28.3h-13c-0.3,0-0.5-0.2-0.5-0.5s0.2-0.5,0.5-0.5h13c0.3,0,0.5,0.2,0.5,0.5S26.8,28.3,26.5,28.3z"/>
		</g>
	</g>
</g>
</svg>
