<?xml version="1.0" encoding="utf-8"?>
<!-- Generator: Adobe Illustrator 18.0.0, SVG Export Plug-In . SVG Version: 6.00 Build 0)  -->
<!DOCTYPE svg PUBLIC "-//W3C//DTD SVG 1.1//EN" "http://www.w3.org/Graphics/SVG/1.1/DTD/svg11.dtd">
<svg version="1.1" id="图层_1" xmlns="http://www.w3.org/2000/svg" xmlns:xlink="http://www.w3.org/1999/xlink" x="0px" y="0px"
	 viewBox="0 0 40 40" enable-background="new 0 0 40 40" xml:space="preserve">
<g>
	<g>
		<g>
			<path d="M22,28.8h-4c-0.8,0-1.5-0.7-1.5-1.5v-8c0-0.8,0.7-1.5,1.5-1.5h4c0.8,0,1.5,0.7,1.5,1.5v8C23.5,28.2,22.8,28.8,22,28.8z
				 M18,18.8c-0.3,0-0.5,0.2-0.5,0.5v8c0,0.3,0.2,0.5,0.5,0.5h4c0.3,0,0.5-0.2,0.5-0.5v-8c0-0.3-0.2-0.5-0.5-0.5H18z"/>
		</g>
		<g>
			<path d="M20,18.8c-1.8,0-3.1-1.1-3.1-2.7c0-1,0.8-1.8,1.7-2.7c0.6-0.6,1.3-1.3,1.6-2c0.1-0.2,0.4-0.4,0.6-0.3
				c0.2,0.1,0.4,0.3,0.3,0.6c-0.4,1.6,0.1,2,0.7,2.4c0.5,0.4,1.1,0.8,1.1,1.9C23.1,17.7,21.8,18.8,20,18.8z M20.2,13.3
				c-0.3,0.3-0.5,0.5-0.8,0.8c-0.7,0.7-1.4,1.4-1.4,2c0,1.2,1,1.7,2.1,1.7s2.1-0.5,2.1-1.7c0-0.6-0.3-0.8-0.7-1.1
				C20.9,14.7,20.3,14.3,20.2,13.3z"/>
		</g>
		<g>
			<g>
				<path d="M22.9,21.1c-0.1,0-0.2,0-0.3-0.1l-3.3-2.2c-0.1-0.1-0.2-0.3-0.2-0.4c0-0.1,0-0.2,0.1-0.3c0.2-0.2,0.5-0.3,0.7-0.1
					l3.3,2.2c0.1,0.1,0.2,0.3,0.2,0.4c0,0.1,0,0.2-0.1,0.3C23.2,21,23,21.1,22.9,21.1z"/>
			</g>
			<g>
				<path d="M22.9,24.1c-0.1,0-0.2,0-0.3-0.1l-5.7-3.8c-0.2-0.2-0.3-0.5-0.1-0.7c0.2-0.2,0.5-0.3,0.7-0.1l5.7,3.8
					c0.2,0.2,0.3,0.5,0.1,0.7C23.2,24,23,24.1,22.9,24.1z"/>
			</g>
			<g>
				<path d="M22.9,27.1c-0.1,0-0.2,0-0.3-0.1l-5.7-3.8c-0.2-0.2-0.3-0.5-0.1-0.7c0.2-0.2,0.5-0.3,0.7-0.1l5.7,3.8
					c0.2,0.2,0.3,0.5,0.1,0.7C23.2,27,23,27.1,22.9,27.1z"/>
			</g>
			<g>
				<path d="M21.1,28.8c-0.1,0-0.2,0-0.3-0.1l-3.9-2.6c-0.2-0.2-0.3-0.5-0.1-0.7c0.2-0.2,0.5-0.3,0.7-0.1l3.9,2.6
					c0.2,0.2,0.3,0.5,0.1,0.7C21.4,28.8,21.2,28.8,21.1,28.8z"/>
			</g>
		</g>
	</g>
</g>
</svg>
