<?xml version="1.0" encoding="utf-8"?>
<!-- Generator: Adobe Illustrator 18.0.0, SVG Export Plug-In . SVG Version: 6.00 Build 0)  -->
<!DOCTYPE svg PUBLIC "-//W3C//DTD SVG 1.1//EN" "http://www.w3.org/Graphics/SVG/1.1/DTD/svg11.dtd">
<svg version="1.1" id="图层_1" xmlns="http://www.w3.org/2000/svg" xmlns:xlink="http://www.w3.org/1999/xlink" x="0px" y="0px"
	 viewBox="0 0 40 40" enable-background="new 0 0 40 40" xml:space="preserve">
<g>
	<g>
		<path d="M27.3,20.5H12.7c-0.7,0-1.2-0.6-1.2-1.2v-1.5c0-0.7,0.6-1.2,1.2-1.2h14.5c0.7,0,1.2,0.6,1.2,1.2v1.5
			C28.5,19.9,27.9,20.5,27.3,20.5z M12.7,17.5c-0.1,0-0.2,0.1-0.2,0.2v1.5c0,0.1,0.1,0.2,0.2,0.2h14.5c0.1,0,0.2-0.1,0.2-0.2v-1.5
			c0-0.1-0.1-0.2-0.2-0.2H12.7z"/>
	</g>
	<g>
		<path d="M24,27.5h-8c-1.4,0-2.5-1.1-2.5-2.5v-5h1v5c0,0.8,0.7,1.5,1.5,1.5h8c0.8,0,1.5-0.7,1.5-1.5v-5h1v5
			C26.5,26.4,25.4,27.5,24,27.5z"/>
	</g>
	<g>
		<rect x="19.5" y="17" width="1" height="10"/>
	</g>
	<g>
		<g>
			<path d="M20.5,17.5c-0.4,0-0.7-0.2-0.8-0.3c-0.4-0.5-0.2-1.2,0.6-2.4c0.5-0.8,1.2-1.6,1.5-1.8c0.8-0.7,2-0.5,2.7,0.2
				c0.3,0.4,0.5,0.9,0.4,1.4s-0.3,1-0.7,1.3C23.8,16.2,21.6,17.5,20.5,17.5z M23,13.5c-0.2,0-0.4,0.1-0.6,0.2
				c-0.6,0.5-1.8,2.2-1.9,2.8c0.8,0,2.6-1,3.1-1.4c0.2-0.2,0.3-0.4,0.3-0.6c0-0.2-0.1-0.5-0.2-0.7C23.5,13.6,23.3,13.5,23,13.5z"/>
		</g>
		<g>
			<path d="M19.5,17.5L19.5,17.5c-1.1,0-3.3-1.3-3.8-1.7c-0.4-0.3-0.6-0.8-0.7-1.3s0.1-1,0.4-1.4c0.6-0.8,1.9-0.9,2.7-0.2
				c0.3,0.3,1,1,1.5,1.8c0.8,1.2,1,1.9,0.6,2.4C20.2,17.3,19.9,17.5,19.5,17.5z M17,13.5c-0.3,0-0.5,0.1-0.7,0.3
				c-0.2,0.2-0.2,0.4-0.2,0.7c0,0.2,0.1,0.5,0.3,0.6c0.5,0.4,2.3,1.4,3.1,1.4c-0.1-0.6-1.3-2.3-1.9-2.8C17.4,13.6,17.2,13.5,17,13.5
				z"/>
		</g>
	</g>
</g>
</svg>
