<?xml version="1.0" encoding="utf-8"?>
<!-- Generator: Adobe Illustrator 18.0.0, SVG Export Plug-In . SVG Version: 6.00 Build 0)  -->
<!DOCTYPE svg PUBLIC "-//W3C//DTD SVG 1.1//EN" "http://www.w3.org/Graphics/SVG/1.1/DTD/svg11.dtd">
<svg version="1.1" id="图层_1" xmlns="http://www.w3.org/2000/svg" xmlns:xlink="http://www.w3.org/1999/xlink" x="0px" y="0px"
	 viewBox="0 0 40 40" enable-background="new 0 0 40 40" xml:space="preserve">
<g>
	<g>
		<path d="M14.5,20.5v-2c0-0.8,0.7-1.5,1.5-1.5h8c0.8,0,1.5,0.7,1.5,1.5v2H14.5z M15.5,20h9v-1.5c0-0.3-0.2-0.5-0.5-0.5h-8
			c-0.3,0-0.5,0.2-0.5,0.5V20z"/>
	</g>
	<g>
		<path d="M26.4,27H13.6c-0.6,0-1.1-0.5-1.1-1.1v-3.4c0-1.4,1.1-2.5,2.5-2.5h10c1.4,0,2.5,1.1,2.5,2.5v3.4C27.5,26.5,27,27,26.4,27z
			 M15,21c-0.8,0-1.5,0.7-1.5,1.5v3.4c0,0.1,0.1,0.1,0.1,0.1h12.7c0.1,0,0.1-0.1,0.1-0.1v-3.4c0-0.8-0.7-1.5-1.5-1.5H15z"/>
	</g>
	<g>
		<path d="M19.5,17.5v-2c0-0.3,0.2-0.5,0.5-0.5s0.5,0.2,0.5,0.5v2H19.5z"/>
	</g>
	<g>
		<path d="M22.5,17.5v-2c0-0.3,0.2-0.5,0.5-0.5s0.5,0.2,0.5,0.5v2H22.5z"/>
	</g>
	<g>
		<path d="M16.5,17.5v-2c0-0.3,0.2-0.5,0.5-0.5s0.5,0.2,0.5,0.5v2H16.5z"/>
	</g>
	<g>
		<path d="M20,13c-0.1,0-0.3,0-0.4-0.2c-0.1-0.1-0.1-0.2-0.1-0.3s0-0.3,0.1-0.4c0.2-0.2,0.5-0.2,0.7,0c0.1,0.1,0.2,0.2,0.2,0.4
			c0,0.1,0,0.3-0.1,0.3C20.3,13,20.1,13,20,13z"/>
	</g>
	<g>
		<path d="M23,13c-0.1,0-0.3,0-0.4-0.2c-0.1-0.1-0.1-0.2-0.1-0.3s0-0.3,0.1-0.4c0.2-0.2,0.5-0.2,0.7,0c0.1,0.1,0.2,0.2,0.2,0.4
			s0,0.3-0.1,0.3C23.3,13,23.1,13,23,13z"/>
	</g>
	<g>
		<path d="M17,13c-0.1,0-0.3,0-0.4-0.2c-0.1-0.1-0.1-0.2-0.1-0.3s0-0.3,0.1-0.4c0.2-0.2,0.5-0.2,0.7,0c0.1,0.1,0.2,0.2,0.2,0.4
			s0,0.3-0.1,0.3C17.3,13,17.1,13,17,13z"/>
	</g>
</g>
</svg>
