<?xml version="1.0" encoding="utf-8"?>
<!-- Generator: Adobe Illustrator 18.0.0, SVG Export Plug-In . SVG Version: 6.00 Build 0)  -->
<!DOCTYPE svg PUBLIC "-//W3C//DTD SVG 1.1//EN" "http://www.w3.org/Graphics/SVG/1.1/DTD/svg11.dtd">
<svg version="1.1" id="图层_1" xmlns="http://www.w3.org/2000/svg" xmlns:xlink="http://www.w3.org/1999/xlink" x="0px" y="0px"
	 viewBox="0 0 40 40" enable-background="new 0 0 40 40" xml:space="preserve">
<g>
	<g>
		<g>
			<path d="M26.9,22.7H13.2c-1.2,0-2.2-0.7-2.6-1.8c-0.3-0.8-0.2-1.6,0.2-2.2c0.4-0.7,1.1-1.1,1.9-1.2l0.5-0.1
				c0.1,0,0.2-0.1,0.3-0.2l0.2-0.5c0.5-1.4,1.8-2.3,3.2-2.3c0.1,0,0.3,0,0.4,0l0.6,0.1c0,0,0,0,0,0c0.2,0,0.3-0.1,0.3-0.2l0.2-0.4
				c0.7-1.5,2.1-2.5,3.6-2.5l0.2,0c2.3,0,4.2,1.9,4.2,4.2c0,0.2,0,0.4-0.1,0.6l-0.1,0.8c0,0.2,0.1,0.4,0.3,0.4l0.7,0.1
				c1.1,0.2,2,1,2.2,2.1c0.1,0.8-0.1,1.6-0.6,2.2C28.4,22.3,27.7,22.7,26.9,22.7z M16.9,15.4c-1,0-1.9,0.7-2.3,1.6l-0.2,0.5
				c-0.2,0.5-0.6,0.8-1.1,0.9l-0.5,0.1c-0.5,0.1-0.9,0.3-1.2,0.8c-0.3,0.4-0.3,0.9-0.1,1.4c0.2,0.6,0.9,1.1,1.6,1.1h13.7
				c0.5,0,0.9-0.2,1.3-0.6c0.3-0.4,0.4-0.9,0.3-1.4c-0.1-0.6-0.7-1.2-1.4-1.3l-0.7-0.1c-0.7-0.1-1.2-0.8-1.1-1.5l0.1-0.8
				c0-0.2,0-0.3,0-0.5c0-1.7-1.4-3.2-3.2-3.2l-0.1,0c-1.2,0-2.2,0.8-2.8,2l-0.2,0.4c-0.2,0.5-0.7,0.8-1.2,0.8c0,0-0.1,0-0.2,0
				l-0.6-0.1C17.1,15.4,17,15.4,16.9,15.4z"/>
		</g>
	</g>
	<g>
		<path d="M21.5,22.5l-2.2,2.7l2.5,1.5c0.1,0.1,0.2,0.2,0.2,0.3c0,0.1,0,0.3-0.1,0.4l-2.6,3.1c-0.1,0.1-0.2,0.2-0.4,0.2
			c-0.1,0-0.2,0-0.3-0.1c-0.2-0.2-0.2-0.5-0.1-0.7l2.2-2.7l-2.5-1.5c-0.1-0.1-0.2-0.2-0.2-0.3c0-0.1,0-0.3,0.1-0.4l2.6-3.1
			L21.5,22.5z"/>
	</g>
</g>
</svg>
