<?xml version="1.0" encoding="utf-8"?>
<!-- Generator: Adobe Illustrator 18.0.0, SVG Export Plug-In . SVG Version: 6.00 Build 0)  -->
<!DOCTYPE svg PUBLIC "-//W3C//DTD SVG 1.1//EN" "http://www.w3.org/Graphics/SVG/1.1/DTD/svg11.dtd">
<svg version="1.1" id="图层_1" xmlns="http://www.w3.org/2000/svg" xmlns:xlink="http://www.w3.org/1999/xlink" x="0px" y="0px"
	 viewBox="0 0 40 40" enable-background="new 0 0 40 40" xml:space="preserve">
<g>
	<g>
		<g>
			<path d="M27.5,26.9H13.9c-1.2,0-2.2-0.7-2.6-1.8c-0.3-0.7-0.2-1.6,0.2-2.2c0.4-0.7,1.1-1.1,1.9-1.2l0.5-0.1
				c0.1,0,0.2-0.1,0.3-0.2l0.2-0.5c0.5-1.4,1.8-2.3,3.2-2.3c0.1,0,0.3,0,0.4,0l0.6,0.1c0,0,0,0,0,0c0.2,0,0.3-0.1,0.3-0.2l0.2-0.4
				c0.7-1.5,2.1-2.5,3.6-2.5l0.2,0c2.3,0,4.2,1.9,4.2,4.2c0,0.2,0,0.4-0.1,0.6l-0.1,0.8c0,0.2,0.1,0.4,0.3,0.4l0.7,0.1
				c1.1,0.2,2,1,2.2,2.1c0.1,0.8-0.1,1.6-0.6,2.2C29,26.6,28.3,26.9,27.5,26.9z M17.6,19.6c-1,0-1.9,0.7-2.3,1.6l-0.2,0.5
				c-0.2,0.5-0.6,0.8-1.1,0.9l-0.5,0.1c-0.5,0.1-0.9,0.3-1.2,0.8c-0.3,0.4-0.3,0.9-0.1,1.4c0.2,0.6,0.9,1.1,1.6,1.1h13.7
				c0.5,0,0.9-0.2,1.3-0.6c0.3-0.4,0.4-0.9,0.3-1.4c-0.1-0.6-0.7-1.2-1.4-1.3L27,22.6c-0.7-0.1-1.2-0.8-1.1-1.5l0.1-0.8
				c0-0.2,0-0.3,0-0.5c0-1.7-1.4-3.2-3.2-3.2l-0.1,0c-1.2,0-2.2,0.8-2.8,2l-0.2,0.4c-0.2,0.5-0.7,0.8-1.2,0.8c0,0-0.1,0-0.1,0
				l-0.6-0.1C17.8,19.6,17.7,19.6,17.6,19.6z"/>
		</g>
	</g>
	<g>
		<g>
			<g>
				<path d="M16.3,15.1c-0.3,0-0.5-0.2-0.5-0.5v-1c0-0.3,0.2-0.5,0.5-0.5s0.5,0.2,0.5,0.5v1C16.8,14.8,16.5,15.1,16.3,15.1z"/>
			</g>
			<g>
				<path d="M11.4,20h-1c-0.3,0-0.5-0.2-0.5-0.5s0.2-0.5,0.5-0.5h1c0.3,0,0.5,0.2,0.5,0.5S11.6,20,11.4,20z"/>
			</g>
		</g>
		<g>
			<g>
				<path d="M12.8,16.5c-0.1,0-0.3,0-0.4-0.1l-0.7-0.7c-0.2-0.2-0.2-0.5,0-0.7s0.5-0.2,0.7,0l0.7,0.7c0.2,0.2,0.2,0.5,0,0.7
					C13,16.4,12.9,16.5,12.8,16.5z"/>
			</g>
		</g>
		<g>
			<g>
				<path d="M19.7,16.6c-0.1,0-0.3,0-0.4-0.1c-0.2-0.2-0.2-0.5,0-0.7l0.8-0.8c0.2-0.2,0.5-0.2,0.7,0s0.2,0.5,0,0.7L20,16.4
					C19.9,16.5,19.8,16.6,19.7,16.6z"/>
			</g>
		</g>
	</g>
	<g>
		<path d="M14,22.4c-0.8-0.7-1.2-1.7-1.2-2.7c0-2,1.6-3.7,3.7-3.7c1.6,0,3,1,3.5,2.5L19,18.8c-0.4-1.1-1.4-1.8-2.5-1.8
			c-1.5,0-2.7,1.2-2.7,2.7c0,0.7,0.3,1.5,0.9,2L14,22.4z"/>
	</g>
</g>
</svg>
