<?xml version="1.0" encoding="utf-8"?>
<!-- Generator: Adobe Illustrator 18.0.0, SVG Export Plug-In . SVG Version: 6.00 Build 0)  -->
<!DOCTYPE svg PUBLIC "-//W3C//DTD SVG 1.1//EN" "http://www.w3.org/Graphics/SVG/1.1/DTD/svg11.dtd">
<svg version="1.1" id="图层_1" xmlns="http://www.w3.org/2000/svg" xmlns:xlink="http://www.w3.org/1999/xlink" x="0px" y="0px"
	 viewBox="0 0 40 40" enable-background="new 0 0 40 40" xml:space="preserve">
<g>
	<g>
		<path d="M20,24.5c-2.5,0-4.5-2-4.5-4.5s2-4.5,4.5-4.5s4.5,2,4.5,4.5S22.5,24.5,20,24.5z M20,16.5c-1.9,0-3.5,1.6-3.5,3.5
			s1.6,3.5,3.5,3.5s3.5-1.6,3.5-3.5S21.9,16.5,20,16.5z"/>
	</g>
	<g>
		<g>
			<path d="M20,13.5c-0.3,0-0.5-0.2-0.5-0.5v-1c0-0.3,0.2-0.5,0.5-0.5s0.5,0.2,0.5,0.5v1C20.5,13.3,20.3,13.5,20,13.5z"/>
		</g>
		<g>
			<path d="M20,28.5c-0.3,0-0.5-0.2-0.5-0.5v-1c0-0.3,0.2-0.5,0.5-0.5s0.5,0.2,0.5,0.5v1C20.5,28.3,20.3,28.5,20,28.5z"/>
		</g>
	</g>
	<g>
		<g>
			<path d="M28,20.5h-1c-0.3,0-0.5-0.2-0.5-0.5s0.2-0.5,0.5-0.5h1c0.3,0,0.5,0.2,0.5,0.5S28.3,20.5,28,20.5z"/>
		</g>
		<g>
			<path d="M13,20.5h-1c-0.3,0-0.5-0.2-0.5-0.5s0.2-0.5,0.5-0.5h1c0.3,0,0.5,0.2,0.5,0.5S13.3,20.5,13,20.5z"/>
		</g>
	</g>
	<g>
		<g>
			<path d="M25,15.5c-0.1,0-0.3,0-0.4-0.1c-0.2-0.2-0.2-0.5,0-0.7l0.7-0.7c0.2-0.2,0.5-0.2,0.7,0s0.2,0.5,0,0.7l-0.7,0.7
				C25.2,15.5,25.1,15.5,25,15.5z"/>
		</g>
		<g>
			<path d="M14.3,26.2c-0.1,0-0.3,0-0.4-0.1c-0.2-0.2-0.2-0.5,0-0.7l0.7-0.7c0.2-0.2,0.5-0.2,0.7,0s0.2,0.5,0,0.7L14.7,26
				C14.6,26.1,14.5,26.2,14.3,26.2z"/>
		</g>
	</g>
	<g>
		<g>
			<path d="M25.7,26.2c-0.1,0-0.3,0-0.4-0.1l-0.7-0.7c-0.2-0.2-0.2-0.5,0-0.7s0.5-0.2,0.7,0l0.7,0.7c0.2,0.2,0.2,0.5,0,0.7
				C25.9,26.1,25.8,26.2,25.7,26.2z"/>
		</g>
		<g>
			<path d="M15,15.5c-0.1,0-0.3,0-0.4-0.1L14,14.7c-0.2-0.2-0.2-0.5,0-0.7s0.5-0.2,0.7,0l0.7,0.7c0.2,0.2,0.2,0.5,0,0.7
				C15.3,15.5,15.2,15.5,15,15.5z"/>
		</g>
	</g>
</g>
</svg>
