<?xml version="1.0" encoding="utf-8"?>
<!-- Generator: Adobe Illustrator 18.0.0, SVG Export Plug-In . SVG Version: 6.00 Build 0)  -->
<!DOCTYPE svg PUBLIC "-//W3C//DTD SVG 1.1//EN" "http://www.w3.org/Graphics/SVG/1.1/DTD/svg11.dtd">
<svg version="1.1" id="图层_1" xmlns="http://www.w3.org/2000/svg" xmlns:xlink="http://www.w3.org/1999/xlink" x="0px" y="0px"
	 viewBox="0 0 40 40" enable-background="new 0 0 40 40" xml:space="preserve">
<g>
	<g>
		<path d="M20,27.5c-2,0-3.9-0.8-5.3-2.2S12.5,22,12.5,20c0-2,0.8-3.9,2.2-5.3c1.4-1.4,3.3-2.2,5.3-2.2c0.2,0,0.4,0.1,0.5,0.3
			s0.1,0.4,0,0.5c-1.2,1.8-0.9,4.2,0.6,5.7c0.8,0.9,2,1.3,3.2,1.3c0.9,0,1.7-0.3,2.5-0.7c0.2-0.1,0.3-0.1,0.5,0s0.3,0.3,0.3,0.4
			c0,2-0.8,3.9-2.2,5.4C23.9,26.7,22,27.5,20,27.5z M19.2,13.6c-1.5,0.2-2.8,0.8-3.8,1.8c-1.2,1.2-1.9,2.9-1.9,4.6
			c0,1.7,0.7,3.4,1.9,4.6s2.9,1.9,4.6,1.9c1.7,0,3.4-0.7,4.6-1.9c1-1,1.7-2.4,1.9-3.8c-0.7,0.3-1.4,0.5-2.2,0.5
			c-1.5,0-2.9-0.6-3.9-1.6C18.7,18,18.3,15.6,19.2,13.6z"/>
	</g>
</g>
</svg>
