<?xml version="1.0" encoding="utf-8"?>
<!-- Generator: Adobe Illustrator 18.0.0, SVG Export Plug-In . SVG Version: 6.00 Build 0)  -->
<!DOCTYPE svg PUBLIC "-//W3C//DTD SVG 1.1//EN" "http://www.w3.org/Graphics/SVG/1.1/DTD/svg11.dtd">
<svg version="1.1" id="图层_1" xmlns="http://www.w3.org/2000/svg" xmlns:xlink="http://www.w3.org/1999/xlink" x="0px" y="0px"
	 viewBox="0 0 40 40" enable-background="new 0 0 40 40" xml:space="preserve">
<g>
	<g>
		<g>
			<path d="M28,21c-0.3,0-0.5-0.2-0.5-0.5c0-3.8-3.4-6.9-7.5-6.9s-7.5,3.1-7.5,6.9c0,0.3-0.2,0.5-0.5,0.5s-0.5-0.2-0.5-0.5
				c0-4.3,3.8-7.9,8.5-7.9s8.5,3.5,8.5,7.9C28.5,20.8,28.3,21,28,21z"/>
		</g>
		<g>
			<path d="M28,21c-0.3,0-0.5-0.2-0.5-0.5c0-0.6-0.5-1.1-1.1-1.1s-1.1,0.5-1.1,1.1c0,0.3-0.2,0.5-0.5,0.5s-0.5-0.2-0.5-0.5
				c0-0.6-0.5-1.1-1.1-1.1s-1.1,0.5-1.1,1.1c0,0.3-0.2,0.5-0.5,0.5s-0.5-0.2-0.5-0.5c0-0.6-0.5-1.1-1.1-1.1s-1.1,0.5-1.1,1.1
				c0,0.3-0.2,0.5-0.5,0.5s-0.5-0.2-0.5-0.5c0-0.6-0.5-1.1-1.1-1.1s-1.1,0.5-1.1,1.1c0,0.3-0.2,0.5-0.5,0.5s-0.5-0.2-0.5-0.5
				c0-0.6-0.5-1.1-1.1-1.1s-1.1,0.5-1.1,1.1c0,0.3-0.2,0.5-0.5,0.5s-0.5-0.2-0.5-0.5c0-1.2,0.9-2.1,2.1-2.1c0.6,0,1.2,0.3,1.6,0.7
				c0.4-0.5,1-0.7,1.6-0.7c0.6,0,1.2,0.3,1.6,0.7c0.4-0.5,1-0.7,1.6-0.7s1.2,0.3,1.6,0.7c0.4-0.5,1-0.7,1.6-0.7
				c0.6,0,1.2,0.3,1.6,0.7c0.4-0.5,1-0.7,1.6-0.7c1.2,0,2.1,0.9,2.1,2.1C28.5,20.8,28.3,21,28,21z"/>
		</g>
		<g>
			<path d="M19.5,13.1V12c0-0.3,0.2-0.5,0.5-0.5s0.5,0.2,0.5,0.5v1.1H19.5z"/>
		</g>
		<g>
			<path d="M18.8,28.5c-0.9,0-1.7-0.8-1.7-1.7v-0.9c0-0.3,0.2-0.5,0.5-0.5s0.5,0.2,0.5,0.5v0.9c0,0.4,0.3,0.7,0.7,0.7
				s0.7-0.3,0.7-0.7v-7.1c0-0.3,0.2-0.5,0.5-0.5s0.5,0.2,0.5,0.5v7.1C20.5,27.7,19.7,28.5,18.8,28.5z"/>
		</g>
	</g>
</g>
</svg>
