<?xml version="1.0" encoding="utf-8"?>
<!-- Generator: Adobe Illustrator 18.0.0, SVG Export Plug-In . SVG Version: 6.00 Build 0)  -->
<!DOCTYPE svg PUBLIC "-//W3C//DTD SVG 1.1//EN" "http://www.w3.org/Graphics/SVG/1.1/DTD/svg11.dtd">
<svg version="1.1" id="图层_1" xmlns="http://www.w3.org/2000/svg" xmlns:xlink="http://www.w3.org/1999/xlink" x="0px" y="0px"
	 viewBox="0 0 40 40" enable-background="new 0 0 40 40" xml:space="preserve">
<g>
	<g>
		<g>
			<g>
				<path d="M22.1,21.4c-0.7,0-1.4-0.3-1.9-0.8c-0.8-0.8-1.7-2.5,0.8-5c2-2,6.2-2.7,6.4-2.8c0.2,0,0.3,0,0.4,0.1s0.2,0.3,0.1,0.4
					c0,0.2-0.8,4.4-2.8,6.4C24.1,20.8,23.1,21.4,22.1,21.4z M26.9,13.9c-1.3,0.3-3.8,1-5.2,2.3c-1.5,1.5-1.7,2.7-0.8,3.6
					c1,1,2.2,0.7,3.6-0.8C25.8,17.7,26.6,15.1,26.9,13.9z"/>
			</g>
			<g>
				<path d="M19.6,26.8h-1c0-2.1,0.7-4.3,2-6.6l0.9,0.5C20.2,22.8,19.6,24.9,19.6,26.8z"/>
			</g>
			<g>
				<g>
					<path d="M16.7,20.2c-0.7,0-1.4-0.3-2.2-0.9C12.9,18,12.1,15.1,12,15c0-0.2,0-0.3,0.1-0.5c0.1-0.1,0.2-0.2,0.4-0.2
						c0.1,0,3.2,0.2,4.8,1.4c0.9,0.7,1.4,1.4,1.5,2.1c0.1,0.5-0.1,1-0.5,1.5C17.9,19.9,17.3,20.2,16.7,20.2z M13.2,15.4
						c0.3,0.9,1,2.3,1.9,3.1c1,0.8,1.8,1,2.4,0.3c0.2-0.3,0.3-0.5,0.2-0.8c-0.1-0.4-0.4-0.9-1.1-1.5C15.8,15.8,14.2,15.5,13.2,15.4z
						"/>
				</g>
				<g>
					<path d="M20.1,23.8l-1,0c0-1.5-0.5-3-1.7-4.4l0.8-0.6C19.4,20.4,20.1,22.1,20.1,23.8z"/>
				</g>
			</g>
		</g>
		<g>
			<path d="M21.1,27.3h-3.9c-0.3,0-0.5-0.2-0.5-0.5s0.2-0.5,0.5-0.5h3.9c0.3,0,0.5,0.2,0.5,0.5S21.4,27.3,21.1,27.3z"/>
		</g>
	</g>
</g>
</svg>
